<svg width="580" height="300" viewBox="0 0 580 300" fill="none" xmlns="http://www.w3.org/2000/svg">
<g clip-path="url(#clip0_1820_17225)">
<rect width="580" height="300" rx="4" fill="white"/>
<g clip-path="url(#clip1_1820_17225)">
<rect x="164" y="-8" width="416" height="307" fill="white"/>
<g clip-path="url(#clip2_1820_17225)">
<path d="M580 143L405 143L465.5 249H580V143Z" fill="#FDEEEE"/>
<path d="M136 143L304 143L242.385 250H136V143Z" fill="#FDEEEE"/>
<line x1="205.13" y1="91.6797" x2="205.13" y2="249.059" stroke="url(#paint0_linear_1820_17225)" stroke-opacity="0.3" stroke-width="0.884152"/>
<line x1="628.191" y1="107.153" x2="187.885" y2="107.153" stroke="url(#paint1_linear_1820_17225)" stroke-opacity="0.2" stroke-width="0.884152"/>
<path d="M354.5 55L405.162 143.5H303.838L354.5 55Z" fill="#E5F9EE"/>
<path d="M304 143.475L354.781 55L406 145" stroke="#00C452" stroke-width="0.884152"/>
<path d="M405 143L468 252" stroke="#FF2121" stroke-width="0.884152"/>
<path d="M304 143L241 252" stroke="#EA5555" stroke-width="0.884152"/>
</g>
</g>
<mask id="path-11-inside-1_1820_17225" fill="white">
<path d="M0 0H164V300H0V0Z"/>
</mask>
<path d="M163 0V300H165V0H163Z" fill="#F3F3F3" mask="url(#path-11-inside-1_1820_17225)"/>
<rect x="16" y="18" width="129" height="40" rx="4" fill="white"/>
<rect x="24" y="30" width="17" height="16" rx="1" fill="#EA5555" fill-opacity="0.1"/>
<path d="M33.9227 36.7266C33.8895 36.4164 33.7499 36.175 33.5036 36.0021C33.2598 35.8293 32.9426 35.7429 32.5519 35.7429C32.2773 35.7429 32.0418 35.7843 31.8453 35.8672C31.6488 35.95 31.4984 36.0625 31.3943 36.2045C31.2901 36.3466 31.2368 36.5088 31.2345 36.6911C31.2345 36.8426 31.2688 36.974 31.3374 37.0852C31.4085 37.1965 31.5044 37.2912 31.6251 37.3693C31.7458 37.4451 31.8796 37.509 32.0264 37.5611C32.1731 37.6132 32.3211 37.657 32.4703 37.6925L33.1521 37.8629C33.4267 37.9268 33.6907 38.0133 33.944 38.1222C34.1997 38.2311 34.4281 38.3684 34.6294 38.5341C34.8329 38.6998 34.9939 38.8999 35.1123 39.1342C35.2307 39.3686 35.2899 39.6432 35.2899 39.9581C35.2899 40.3842 35.181 40.7595 34.9632 41.0838C34.7454 41.4058 34.4305 41.6579 34.0186 41.8402C33.609 42.0201 33.113 42.1101 32.5306 42.1101C31.9648 42.1101 31.4736 42.0225 31.0569 41.8473C30.6426 41.6721 30.3183 41.4164 30.0839 41.0803C29.8519 40.7441 29.7264 40.3345 29.7075 39.8516H31.0036C31.0226 40.1049 31.1007 40.3156 31.238 40.4837C31.3753 40.6518 31.5541 40.7772 31.7742 40.8601C31.9968 40.9429 32.2454 40.9844 32.52 40.9844C32.8064 40.9844 33.0574 40.9418 33.2728 40.8565C33.4906 40.7689 33.6611 40.6482 33.7842 40.4943C33.9073 40.3381 33.97 40.1558 33.9724 39.9474C33.97 39.758 33.9144 39.6018 33.8055 39.4787C33.6966 39.3532 33.5439 39.2491 33.3474 39.1662C33.1533 39.081 32.926 39.0052 32.6656 38.9389L31.8382 38.7259C31.2392 38.572 30.7657 38.3388 30.4177 38.0263C30.0721 37.7114 29.8992 37.2936 29.8992 36.7727C29.8992 36.3442 30.0152 35.969 30.2472 35.647C30.4816 35.325 30.8 35.0753 31.2025 34.8977C31.605 34.7178 32.0607 34.6278 32.5697 34.6278C33.0858 34.6278 33.538 34.7178 33.9262 34.8977C34.3169 35.0753 34.6234 35.3227 34.846 35.6399C35.0685 35.9548 35.1833 36.317 35.1904 36.7266H33.9227Z" fill="#EA5555"/>
<path d="M63.9034 42V41.233L66.7841 38.0795C67.1222 37.7102 67.4006 37.3892 67.6193 37.1165C67.8381 36.8409 68 36.5824 68.1051 36.3409C68.2131 36.0966 68.267 35.8409 68.267 35.5739C68.267 35.267 68.1932 35.0014 68.0455 34.777C67.9006 34.5526 67.7017 34.3793 67.4489 34.2571C67.196 34.1349 66.9119 34.0739 66.5966 34.0739C66.2614 34.0739 65.9688 34.1435 65.7188 34.2827C65.4716 34.419 65.2798 34.6108 65.1435 34.858C65.0099 35.1051 64.9432 35.3949 64.9432 35.7273H63.9375C63.9375 35.2159 64.0554 34.767 64.2912 34.3807C64.527 33.9943 64.848 33.6932 65.2543 33.4773C65.6634 33.2614 66.1222 33.1534 66.6307 33.1534C67.142 33.1534 67.5952 33.2614 67.9901 33.4773C68.3849 33.6932 68.6946 33.9844 68.919 34.3509C69.1435 34.7173 69.2557 35.125 69.2557 35.5739C69.2557 35.8949 69.1974 36.2088 69.081 36.5156C68.9673 36.8196 68.7685 37.1591 68.4844 37.5341C68.2031 37.9062 67.8125 38.3608 67.3125 38.8977L65.3523 40.9943V41.0625H69.4091V42H63.9034ZM74.2372 33.2727V42H73.1804V34.3807H73.1293L70.9986 35.7955V34.7216L73.1804 33.2727H74.2372ZM79.5938 42.1193C78.9517 42.1193 78.4048 41.9446 77.9531 41.5952C77.5014 41.2429 77.1563 40.733 76.9176 40.0653C76.679 39.3949 76.5597 38.5852 76.5597 37.6364C76.5597 36.6932 76.679 35.8878 76.9176 35.2202C77.1591 34.5497 77.5057 34.0384 77.9574 33.6861C78.4119 33.331 78.9574 33.1534 79.5938 33.1534C80.2301 33.1534 80.7741 33.331 81.2259 33.6861C81.6804 34.0384 82.027 34.5497 82.2656 35.2202C82.5071 35.8878 82.6278 36.6932 82.6278 37.6364C82.6278 38.5852 82.5085 39.3949 82.2699 40.0653C82.0312 40.733 81.6861 41.2429 81.2344 41.5952C80.7827 41.9446 80.2358 42.1193 79.5938 42.1193ZM79.5938 41.1818C80.2301 41.1818 80.7244 40.875 81.0767 40.2614C81.429 39.6477 81.6051 38.7727 81.6051 37.6364C81.6051 36.8807 81.5241 36.2372 81.3622 35.706C81.2031 35.1747 80.973 34.7699 80.6719 34.4915C80.3736 34.2131 80.0142 34.0739 79.5938 34.0739C78.9631 34.0739 78.4702 34.3849 78.1151 35.0071C77.7599 35.6264 77.5824 36.5028 77.5824 37.6364C77.5824 38.392 77.6619 39.0341 77.821 39.5625C77.9801 40.0909 78.2088 40.4929 78.5071 40.7685C78.8082 41.044 79.1705 41.1818 79.5938 41.1818ZM87.0938 42.1193C86.4517 42.1193 85.9048 41.9446 85.4531 41.5952C85.0014 41.2429 84.6563 40.733 84.4176 40.0653C84.179 39.3949 84.0597 38.5852 84.0597 37.6364C84.0597 36.6932 84.179 35.8878 84.4176 35.2202C84.6591 34.5497 85.0057 34.0384 85.4574 33.6861C85.9119 33.331 86.4574 33.1534 87.0938 33.1534C87.7301 33.1534 88.2741 33.331 88.7259 33.6861C89.1804 34.0384 89.527 34.5497 89.7656 35.2202C90.0071 35.8878 90.1278 36.6932 90.1278 37.6364C90.1278 38.5852 90.0085 39.3949 89.7699 40.0653C89.5312 40.733 89.1861 41.2429 88.7344 41.5952C88.2827 41.9446 87.7358 42.1193 87.0938 42.1193ZM87.0938 41.1818C87.7301 41.1818 88.2244 40.875 88.5767 40.2614C88.929 39.6477 89.1051 38.7727 89.1051 37.6364C89.1051 36.8807 89.0241 36.2372 88.8622 35.706C88.7031 35.1747 88.473 34.7699 88.1719 34.4915C87.8736 34.2131 87.5142 34.0739 87.0938 34.0739C86.4631 34.0739 85.9702 34.3849 85.6151 35.0071C85.2599 35.6264 85.0824 36.5028 85.0824 37.6364C85.0824 38.392 85.1619 39.0341 85.321 39.5625C85.4801 40.0909 85.7088 40.4929 86.0071 40.7685C86.3082 41.044 86.6705 41.1818 87.0938 41.1818ZM94.5938 42.1193C93.9517 42.1193 93.4048 41.9446 92.9531 41.5952C92.5014 41.2429 92.1563 40.733 91.9176 40.0653C91.679 39.3949 91.5597 38.5852 91.5597 37.6364C91.5597 36.6932 91.679 35.8878 91.9176 35.2202C92.1591 34.5497 92.5057 34.0384 92.9574 33.6861C93.4119 33.331 93.9574 33.1534 94.5938 33.1534C95.2301 33.1534 95.7741 33.331 96.2259 33.6861C96.6804 34.0384 97.027 34.5497 97.2656 35.2202C97.5071 35.8878 97.6278 36.6932 97.6278 37.6364C97.6278 38.5852 97.5085 39.3949 97.2699 40.0653C97.0312 40.733 96.6861 41.2429 96.2344 41.5952C95.7827 41.9446 95.2358 42.1193 94.5938 42.1193ZM94.5938 41.1818C95.2301 41.1818 95.7244 40.875 96.0767 40.2614C96.429 39.6477 96.6051 38.7727 96.6051 37.6364C96.6051 36.8807 96.5241 36.2372 96.3622 35.706C96.2031 35.1747 95.973 34.7699 95.6719 34.4915C95.3736 34.2131 95.0142 34.0739 94.5938 34.0739C93.9631 34.0739 93.4702 34.3849 93.1151 35.0071C92.7599 35.6264 92.5824 36.5028 92.5824 37.6364C92.5824 38.392 92.6619 39.0341 92.821 39.5625C92.9801 40.0909 93.2088 40.4929 93.5071 40.7685C93.8082 41.044 94.1705 41.1818 94.5938 41.1818Z" fill="#3A3A3A"/>
<path d="M129.08 36H128.023C127.96 35.696 127.851 35.429 127.695 35.1989C127.541 34.9688 127.354 34.7756 127.132 34.6193C126.913 34.4602 126.67 34.3409 126.403 34.2614C126.136 34.1818 125.858 34.142 125.568 34.142C125.04 34.142 124.561 34.2756 124.132 34.5426C123.706 34.8097 123.366 35.2031 123.114 35.723C122.864 36.2429 122.739 36.8807 122.739 37.6364C122.739 38.392 122.864 39.0298 123.114 39.5497C123.366 40.0696 123.706 40.4631 124.132 40.7301C124.561 40.9972 125.04 41.1307 125.568 41.1307C125.858 41.1307 126.136 41.0909 126.403 41.0114C126.67 40.9318 126.913 40.8139 127.132 40.6577C127.354 40.4986 127.541 40.304 127.695 40.0739C127.851 39.8409 127.96 39.5739 128.023 39.2727H129.08C129 39.7187 128.855 40.1179 128.645 40.4702C128.435 40.8224 128.173 41.1222 127.861 41.3693C127.548 41.6136 127.197 41.7997 126.808 41.9276C126.422 42.0554 126.009 42.1193 125.568 42.1193C124.824 42.1193 124.162 41.9375 123.582 41.5739C123.003 41.2102 122.547 40.6932 122.214 40.0227C121.882 39.3523 121.716 38.5568 121.716 37.6364C121.716 36.7159 121.882 35.9205 122.214 35.25C122.547 34.5795 123.003 34.0625 123.582 33.6989C124.162 33.3352 124.824 33.1534 125.568 33.1534C126.009 33.1534 126.422 33.2173 126.808 33.3452C127.197 33.473 127.548 33.6605 127.861 33.9077C128.173 34.152 128.435 34.4503 128.645 34.8026C128.855 35.152 129 35.5511 129.08 36ZM130.787 42V33.2727H136.054V34.2102H131.844V37.1591H135.782V38.0966H131.844V41.0625H136.123V42H130.787Z" fill="#3A3A3A"/>
<rect x="16" y="114" width="129" height="40" rx="4" fill="white"/>
<rect x="24" y="126" width="17" height="16" rx="1" fill="#EA5555" fill-opacity="0.1"/>
<path d="M33.9227 132.727C33.8895 132.416 33.7499 132.175 33.5036 132.002C33.2598 131.829 32.9426 131.743 32.5519 131.743C32.2773 131.743 32.0418 131.784 31.8453 131.867C31.6488 131.95 31.4984 132.062 31.3943 132.205C31.2901 132.347 31.2368 132.509 31.2345 132.691C31.2345 132.843 31.2688 132.974 31.3374 133.085C31.4085 133.196 31.5044 133.291 31.6251 133.369C31.7458 133.445 31.8796 133.509 32.0264 133.561C32.1731 133.613 32.3211 133.657 32.4703 133.692L33.1521 133.863C33.4267 133.927 33.6907 134.013 33.944 134.122C34.1997 134.231 34.4281 134.368 34.6294 134.534C34.8329 134.7 34.9939 134.9 35.1123 135.134C35.2307 135.369 35.2899 135.643 35.2899 135.958C35.2899 136.384 35.181 136.759 34.9632 137.084C34.7454 137.406 34.4305 137.658 34.0186 137.84C33.609 138.02 33.113 138.11 32.5306 138.11C31.9648 138.11 31.4736 138.022 31.0569 137.847C30.6426 137.672 30.3183 137.416 30.0839 137.08C29.8519 136.744 29.7264 136.335 29.7075 135.852H31.0036C31.0226 136.105 31.1007 136.316 31.238 136.484C31.3753 136.652 31.5541 136.777 31.7742 136.86C31.9968 136.943 32.2454 136.984 32.52 136.984C32.8064 136.984 33.0574 136.942 33.2728 136.857C33.4906 136.769 33.6611 136.648 33.7842 136.494C33.9073 136.338 33.97 136.156 33.9724 135.947C33.97 135.758 33.9144 135.602 33.8055 135.479C33.6966 135.353 33.5439 135.249 33.3474 135.166C33.1533 135.081 32.926 135.005 32.6656 134.939L31.8382 134.726C31.2392 134.572 30.7657 134.339 30.4177 134.026C30.0721 133.711 29.8992 133.294 29.8992 132.773C29.8992 132.344 30.0152 131.969 30.2472 131.647C30.4816 131.325 30.8 131.075 31.2025 130.898C31.605 130.718 32.0607 130.628 32.5697 130.628C33.0858 130.628 33.538 130.718 33.9262 130.898C34.3169 131.075 34.6234 131.323 34.846 131.64C35.0685 131.955 35.1833 132.317 35.1904 132.727H33.9227Z" fill="#EA5555"/>
<path d="M63.4034 138V137.233L66.2841 134.08C66.6222 133.71 66.9006 133.389 67.1193 133.116C67.3381 132.841 67.5 132.582 67.6051 132.341C67.7131 132.097 67.767 131.841 67.767 131.574C67.767 131.267 67.6932 131.001 67.5455 130.777C67.4006 130.553 67.2017 130.379 66.9489 130.257C66.696 130.135 66.4119 130.074 66.0966 130.074C65.7614 130.074 65.4688 130.143 65.2188 130.283C64.9716 130.419 64.7798 130.611 64.6435 130.858C64.5099 131.105 64.4432 131.395 64.4432 131.727H63.4375C63.4375 131.216 63.5554 130.767 63.7912 130.381C64.027 129.994 64.348 129.693 64.7543 129.477C65.1634 129.261 65.6222 129.153 66.1307 129.153C66.642 129.153 67.0952 129.261 67.4901 129.477C67.8849 129.693 68.1946 129.984 68.419 130.351C68.6435 130.717 68.7557 131.125 68.7557 131.574C68.7557 131.895 68.6974 132.209 68.581 132.516C68.4673 132.82 68.2685 133.159 67.9844 133.534C67.7031 133.906 67.3125 134.361 66.8125 134.898L64.8523 136.994V137.062H68.9091V138H63.4034ZM73.5156 138.119C72.8736 138.119 72.3267 137.945 71.875 137.595C71.4233 137.243 71.0781 136.733 70.8395 136.065C70.6009 135.395 70.4815 134.585 70.4815 133.636C70.4815 132.693 70.6009 131.888 70.8395 131.22C71.081 130.55 71.4276 130.038 71.8793 129.686C72.3338 129.331 72.8793 129.153 73.5156 129.153C74.152 129.153 74.696 129.331 75.1477 129.686C75.6023 130.038 75.9489 130.55 76.1875 131.22C76.429 131.888 76.5497 132.693 76.5497 133.636C76.5497 134.585 76.4304 135.395 76.1918 136.065C75.9531 136.733 75.608 137.243 75.1562 137.595C74.7045 137.945 74.1577 138.119 73.5156 138.119ZM73.5156 137.182C74.152 137.182 74.6463 136.875 74.9986 136.261C75.3509 135.648 75.527 134.773 75.527 133.636C75.527 132.881 75.446 132.237 75.2841 131.706C75.125 131.175 74.8949 130.77 74.5938 130.491C74.2955 130.213 73.9361 130.074 73.5156 130.074C72.8849 130.074 72.392 130.385 72.0369 131.007C71.6818 131.626 71.5043 132.503 71.5043 133.636C71.5043 134.392 71.5838 135.034 71.7429 135.562C71.902 136.091 72.1307 136.493 72.429 136.768C72.7301 137.044 73.0923 137.182 73.5156 137.182ZM81.0156 138.119C80.3736 138.119 79.8267 137.945 79.375 137.595C78.9233 137.243 78.5781 136.733 78.3395 136.065C78.1009 135.395 77.9815 134.585 77.9815 133.636C77.9815 132.693 78.1009 131.888 78.3395 131.22C78.581 130.55 78.9276 130.038 79.3793 129.686C79.8338 129.331 80.3793 129.153 81.0156 129.153C81.652 129.153 82.196 129.331 82.6477 129.686C83.1023 130.038 83.4489 130.55 83.6875 131.22C83.929 131.888 84.0497 132.693 84.0497 133.636C84.0497 134.585 83.9304 135.395 83.6918 136.065C83.4531 136.733 83.108 137.243 82.6562 137.595C82.2045 137.945 81.6577 138.119 81.0156 138.119ZM81.0156 137.182C81.652 137.182 82.1463 136.875 82.4986 136.261C82.8509 135.648 83.027 134.773 83.027 133.636C83.027 132.881 82.946 132.237 82.7841 131.706C82.625 131.175 82.3949 130.77 82.0938 130.491C81.7955 130.213 81.4361 130.074 81.0156 130.074C80.3849 130.074 79.892 130.385 79.5369 131.007C79.1818 131.626 79.0043 132.503 79.0043 133.636C79.0043 134.392 79.0838 135.034 79.2429 135.562C79.402 136.091 79.6307 136.493 79.929 136.768C80.2301 137.044 80.5923 137.182 81.0156 137.182ZM88.5156 138.119C87.8736 138.119 87.3267 137.945 86.875 137.595C86.4233 137.243 86.0781 136.733 85.8395 136.065C85.6009 135.395 85.4815 134.585 85.4815 133.636C85.4815 132.693 85.6009 131.888 85.8395 131.22C86.081 130.55 86.4276 130.038 86.8793 129.686C87.3338 129.331 87.8793 129.153 88.5156 129.153C89.152 129.153 89.696 129.331 90.1477 129.686C90.6023 130.038 90.9489 130.55 91.1875 131.22C91.429 131.888 91.5497 132.693 91.5497 133.636C91.5497 134.585 91.4304 135.395 91.1918 136.065C90.9531 136.733 90.608 137.243 90.1562 137.595C89.7045 137.945 89.1577 138.119 88.5156 138.119ZM88.5156 137.182C89.152 137.182 89.6463 136.875 89.9986 136.261C90.3509 135.648 90.527 134.773 90.527 133.636C90.527 132.881 90.446 132.237 90.2841 131.706C90.125 131.175 89.8949 130.77 89.5938 130.491C89.2955 130.213 88.9361 130.074 88.5156 130.074C87.8849 130.074 87.392 130.385 87.0369 131.007C86.6818 131.626 86.5043 132.503 86.5043 133.636C86.5043 134.392 86.5838 135.034 86.7429 135.562C86.902 136.091 87.1307 136.493 87.429 136.768C87.7301 137.044 88.0923 137.182 88.5156 137.182ZM96.0156 138.119C95.3736 138.119 94.8267 137.945 94.375 137.595C93.9233 137.243 93.5781 136.733 93.3395 136.065C93.1009 135.395 92.9815 134.585 92.9815 133.636C92.9815 132.693 93.1009 131.888 93.3395 131.22C93.581 130.55 93.9276 130.038 94.3793 129.686C94.8338 129.331 95.3793 129.153 96.0156 129.153C96.652 129.153 97.196 129.331 97.6477 129.686C98.1023 130.038 98.4489 130.55 98.6875 131.22C98.929 131.888 99.0497 132.693 99.0497 133.636C99.0497 134.585 98.9304 135.395 98.6918 136.065C98.4531 136.733 98.108 137.243 97.6562 137.595C97.2045 137.945 96.6577 138.119 96.0156 138.119ZM96.0156 137.182C96.652 137.182 97.1463 136.875 97.4986 136.261C97.8509 135.648 98.027 134.773 98.027 133.636C98.027 132.881 97.946 132.237 97.7841 131.706C97.625 131.175 97.3949 130.77 97.0938 130.491C96.7955 130.213 96.4361 130.074 96.0156 130.074C95.3849 130.074 94.892 130.385 94.5369 131.007C94.1818 131.626 94.0043 132.503 94.0043 133.636C94.0043 134.392 94.0838 135.034 94.2429 135.562C94.402 136.091 94.6307 136.493 94.929 136.768C95.2301 137.044 95.5923 137.182 96.0156 137.182Z" fill="#3A3A3A"/>
<path d="M123.057 138V129.273H126.006C126.69 129.273 127.25 129.396 127.685 129.643C128.122 129.888 128.446 130.219 128.656 130.636C128.866 131.054 128.972 131.52 128.972 132.034C128.972 132.548 128.866 133.016 128.656 133.436C128.449 133.857 128.128 134.192 127.693 134.442C127.259 134.689 126.702 134.812 126.023 134.812H123.909V133.875H125.989C126.457 133.875 126.834 133.794 127.118 133.632C127.402 133.47 127.608 133.251 127.736 132.976C127.866 132.697 127.932 132.384 127.932 132.034C127.932 131.685 127.866 131.372 127.736 131.097C127.608 130.821 127.401 130.605 127.114 130.449C126.827 130.29 126.446 130.21 125.972 130.21H124.114V138H123.057ZM130.674 138V129.273H135.941V130.21H131.731V133.159H135.668V134.097H131.731V137.062H136.009V138H130.674Z" fill="#3A3A3A"/>
<rect x="16" y="66" width="129" height="40" rx="4" fill="white"/>
<rect x="24" y="78" width="17" height="16" rx="1" fill="#00C452" fill-opacity="0.1"/>
<path d="M29.9312 90V82.7273H32.7153C33.2409 82.7273 33.6776 82.8101 34.0257 82.9759C34.376 83.1392 34.6376 83.3629 34.8105 83.647C34.9856 83.9311 35.0732 84.2531 35.0732 84.6129C35.0732 84.9089 35.0164 85.1622 34.9028 85.3729C34.7892 85.5812 34.6365 85.7505 34.4447 85.8807C34.2529 86.0109 34.0387 86.1044 33.8019 86.1612V86.2322C34.06 86.2464 34.3074 86.3258 34.5441 86.4702C34.7832 86.6122 34.9785 86.8134 35.1301 87.0739C35.2816 87.3343 35.3573 87.6491 35.3573 88.0185C35.3573 88.3949 35.2662 88.7334 35.0839 89.0341C34.9016 89.3324 34.627 89.5679 34.26 89.7408C33.8931 89.9136 33.4314 90 32.8751 90H29.9312ZM31.2487 88.8991H32.6656C33.1438 88.8991 33.4883 88.808 33.699 88.6257C33.912 88.4411 34.0186 88.2043 34.0186 87.9155C34.0186 87.7 33.9653 87.5059 33.8588 87.3331C33.7522 87.1579 33.6007 87.0206 33.4042 86.9212C33.2077 86.8194 32.9733 86.7685 32.7011 86.7685H31.2487V88.8991ZM31.2487 85.8203H32.5519C32.7792 85.8203 32.984 85.7789 33.1663 85.696C33.3486 85.6108 33.4918 85.4912 33.596 85.3374C33.7025 85.1811 33.7558 84.9964 33.7558 84.7834C33.7558 84.5017 33.6563 84.2696 33.4575 84.0874C33.261 83.9051 32.9686 83.8139 32.5803 83.8139H31.2487V85.8203Z" fill="#00C452"/>
<path d="M62.9034 90V89.233L65.7841 86.0795C66.1222 85.7102 66.4006 85.3892 66.6193 85.1165C66.8381 84.8409 67 84.5824 67.1051 84.3409C67.2131 84.0966 67.267 83.8409 67.267 83.5739C67.267 83.267 67.1932 83.0014 67.0455 82.777C66.9006 82.5526 66.7017 82.3793 66.4489 82.2571C66.196 82.1349 65.9119 82.0739 65.5966 82.0739C65.2614 82.0739 64.9688 82.1435 64.7188 82.2827C64.4716 82.419 64.2798 82.6108 64.1435 82.858C64.0099 83.1051 63.9432 83.3949 63.9432 83.7273H62.9375C62.9375 83.2159 63.0554 82.767 63.2912 82.3807C63.527 81.9943 63.848 81.6932 64.2543 81.4773C64.6634 81.2614 65.1222 81.1534 65.6307 81.1534C66.142 81.1534 66.5952 81.2614 66.9901 81.4773C67.3849 81.6932 67.6946 81.9844 67.919 82.3509C68.1435 82.7173 68.2557 83.125 68.2557 83.5739C68.2557 83.8949 68.1974 84.2088 68.081 84.5156C67.9673 84.8196 67.7685 85.1591 67.4844 85.5341C67.2031 85.9062 66.8125 86.3608 66.3125 86.8977L64.3523 88.9943V89.0625H68.4091V90H62.9034ZM73.0156 90.1193C72.3736 90.1193 71.8267 89.9446 71.375 89.5952C70.9233 89.2429 70.5781 88.733 70.3395 88.0653C70.1009 87.3949 69.9815 86.5852 69.9815 85.6364C69.9815 84.6932 70.1009 83.8878 70.3395 83.2202C70.581 82.5497 70.9276 82.0384 71.3793 81.6861C71.8338 81.331 72.3793 81.1534 73.0156 81.1534C73.652 81.1534 74.196 81.331 74.6477 81.6861C75.1023 82.0384 75.4489 82.5497 75.6875 83.2202C75.929 83.8878 76.0497 84.6932 76.0497 85.6364C76.0497 86.5852 75.9304 87.3949 75.6918 88.0653C75.4531 88.733 75.108 89.2429 74.6562 89.5952C74.2045 89.9446 73.6577 90.1193 73.0156 90.1193ZM73.0156 89.1818C73.652 89.1818 74.1463 88.875 74.4986 88.2614C74.8509 87.6477 75.027 86.7727 75.027 85.6364C75.027 84.8807 74.946 84.2372 74.7841 83.706C74.625 83.1747 74.3949 82.7699 74.0938 82.4915C73.7955 82.2131 73.4361 82.0739 73.0156 82.0739C72.3849 82.0739 71.892 82.3849 71.5369 83.0071C71.1818 83.6264 71.0043 84.5028 71.0043 85.6364C71.0043 86.392 71.0838 87.0341 71.2429 87.5625C71.402 88.0909 71.6307 88.4929 71.929 88.7685C72.2301 89.044 72.5923 89.1818 73.0156 89.1818ZM80.5668 90.1193C80.2088 90.1136 79.8509 90.0455 79.4929 89.9148C79.1349 89.7841 78.8082 89.5639 78.5128 89.2543C78.2173 88.9418 77.9801 88.5199 77.8011 87.9886C77.6222 87.4545 77.5327 86.7841 77.5327 85.9773C77.5327 85.2045 77.6051 84.5199 77.75 83.9233C77.8949 83.3239 78.1051 82.8196 78.3807 82.4105C78.6563 81.9986 78.9886 81.6861 79.3778 81.473C79.7699 81.2599 80.2116 81.1534 80.7031 81.1534C81.1918 81.1534 81.6264 81.2514 82.0071 81.4474C82.3906 81.6406 82.7031 81.9105 82.9446 82.2571C83.1861 82.6037 83.3423 83.0028 83.4134 83.4545H82.3736C82.277 83.0625 82.0895 82.7372 81.8111 82.4787C81.5327 82.2202 81.1634 82.0909 80.7031 82.0909C80.027 82.0909 79.4943 82.3849 79.1051 82.973C78.7188 83.5611 78.5241 84.3864 78.5213 85.4489H78.5895C78.7486 85.2074 78.9375 85.0014 79.1562 84.831C79.3778 84.6577 79.6222 84.5241 79.8892 84.4304C80.1563 84.3366 80.4389 84.2898 80.7372 84.2898C81.2372 84.2898 81.6946 84.4148 82.1094 84.6648C82.5241 84.9119 82.8565 85.2543 83.1065 85.6918C83.3565 86.1264 83.4815 86.625 83.4815 87.1875C83.4815 87.7273 83.3608 88.2216 83.1193 88.6705C82.8778 89.1165 82.5384 89.4716 82.1009 89.7358C81.6662 89.9972 81.1548 90.125 80.5668 90.1193ZM80.5668 89.1818C80.9247 89.1818 81.2457 89.0923 81.5298 88.9134C81.8168 88.7344 82.0426 88.4943 82.2074 88.1932C82.375 87.892 82.4588 87.5568 82.4588 87.1875C82.4588 86.8267 82.3778 86.4986 82.2159 86.2031C82.0568 85.9048 81.8366 85.6676 81.5554 85.4915C81.277 85.3153 80.9588 85.2273 80.6009 85.2273C80.331 85.2273 80.0795 85.2812 79.8466 85.3892C79.6136 85.4943 79.4091 85.6392 79.233 85.8239C79.0597 86.0085 78.9233 86.2202 78.8239 86.4588C78.7244 86.6946 78.6747 86.9432 78.6747 87.2045C78.6747 87.5511 78.7557 87.875 78.9176 88.1761C79.0824 88.4773 79.3068 88.7202 79.5909 88.9048C79.8778 89.0895 80.2031 89.1818 80.5668 89.1818ZM88.0039 90.1193C87.3619 90.1193 86.815 89.9446 86.3633 89.5952C85.9116 89.2429 85.5664 88.733 85.3278 88.0653C85.0891 87.3949 84.9698 86.5852 84.9698 85.6364C84.9698 84.6932 85.0891 83.8878 85.3278 83.2202C85.5692 82.5497 85.9158 82.0384 86.3675 81.6861C86.8221 81.331 87.3675 81.1534 88.0039 81.1534C88.6403 81.1534 89.1843 81.331 89.636 81.6861C90.0906 82.0384 90.4371 82.5497 90.6758 83.2202C90.9173 83.8878 91.038 84.6932 91.038 85.6364C91.038 86.5852 90.9187 87.3949 90.68 88.0653C90.4414 88.733 90.0962 89.2429 89.6445 89.5952C89.1928 89.9446 88.646 90.1193 88.0039 90.1193ZM88.0039 89.1818C88.6403 89.1818 89.1346 88.875 89.4869 88.2614C89.8391 87.6477 90.0153 86.7727 90.0153 85.6364C90.0153 84.8807 89.9343 84.2372 89.7724 83.706C89.6133 83.1747 89.3832 82.7699 89.082 82.4915C88.7837 82.2131 88.4244 82.0739 88.0039 82.0739C87.3732 82.0739 86.8803 82.3849 86.5252 83.0071C86.1701 83.6264 85.9925 84.5028 85.9925 85.6364C85.9925 86.392 86.0721 87.0341 86.2312 87.5625C86.3903 88.0909 86.619 88.4929 86.9173 88.7685C87.2184 89.044 87.5806 89.1818 88.0039 89.1818ZM95.5039 90.1193C94.8619 90.1193 94.315 89.9446 93.8633 89.5952C93.4116 89.2429 93.0664 88.733 92.8278 88.0653C92.5891 87.3949 92.4698 86.5852 92.4698 85.6364C92.4698 84.6932 92.5891 83.8878 92.8278 83.2202C93.0692 82.5497 93.4158 82.0384 93.8675 81.6861C94.3221 81.331 94.8675 81.1534 95.5039 81.1534C96.1403 81.1534 96.6843 81.331 97.136 81.6861C97.5906 82.0384 97.9371 82.5497 98.1758 83.2202C98.4173 83.8878 98.538 84.6932 98.538 85.6364C98.538 86.5852 98.4187 87.3949 98.18 88.0653C97.9414 88.733 97.5962 89.2429 97.1445 89.5952C96.6928 89.9446 96.146 90.1193 95.5039 90.1193ZM95.5039 89.1818C96.1403 89.1818 96.6346 88.875 96.9869 88.2614C97.3391 87.6477 97.5153 86.7727 97.5153 85.6364C97.5153 84.8807 97.4343 84.2372 97.2724 83.706C97.1133 83.1747 96.8832 82.7699 96.582 82.4915C96.2837 82.2131 95.9244 82.0739 95.5039 82.0739C94.8732 82.0739 94.3803 82.3849 94.0252 83.0071C93.6701 83.6264 93.4925 84.5028 93.4925 85.6364C93.4925 86.392 93.5721 87.0341 93.7312 87.5625C93.8903 88.0909 94.119 88.4929 94.4173 88.7685C94.7184 89.044 95.0806 89.1818 95.5039 89.1818Z" fill="#3A3A3A"/>
<path d="M129.08 84H128.023C127.96 83.696 127.851 83.429 127.695 83.1989C127.541 82.9688 127.354 82.7756 127.132 82.6193C126.913 82.4602 126.67 82.3409 126.403 82.2614C126.136 82.1818 125.858 82.142 125.568 82.142C125.04 82.142 124.561 82.2756 124.132 82.5426C123.706 82.8097 123.366 83.2031 123.114 83.723C122.864 84.2429 122.739 84.8807 122.739 85.6364C122.739 86.392 122.864 87.0298 123.114 87.5497C123.366 88.0696 123.706 88.4631 124.132 88.7301C124.561 88.9972 125.04 89.1307 125.568 89.1307C125.858 89.1307 126.136 89.0909 126.403 89.0114C126.67 88.9318 126.913 88.8139 127.132 88.6577C127.354 88.4986 127.541 88.304 127.695 88.0739C127.851 87.8409 127.96 87.5739 128.023 87.2727H129.08C129 87.7187 128.855 88.1179 128.645 88.4702C128.435 88.8224 128.173 89.1222 127.861 89.3693C127.548 89.6136 127.197 89.7997 126.808 89.9276C126.422 90.0554 126.009 90.1193 125.568 90.1193C124.824 90.1193 124.162 89.9375 123.582 89.5739C123.003 89.2102 122.547 88.6932 122.214 88.0227C121.882 87.3523 121.716 86.5568 121.716 85.6364C121.716 84.7159 121.882 83.9205 122.214 83.25C122.547 82.5795 123.003 82.0625 123.582 81.6989C124.162 81.3352 124.824 81.1534 125.568 81.1534C126.009 81.1534 126.422 81.2173 126.808 81.3452C127.197 81.473 127.548 81.6605 127.861 81.9077C128.173 82.152 128.435 82.4503 128.645 82.8026C128.855 83.152 129 83.5511 129.08 84ZM130.787 90V81.2727H136.054V82.2102H131.844V85.1591H135.782V86.0966H131.844V89.0625H136.123V90H130.787Z" fill="#3A3A3A"/>
<rect x="16" y="162" width="129" height="40" rx="4" fill="white"/>
<rect x="24" y="174" width="17" height="16" rx="1" fill="#00C452" fill-opacity="0.1"/>
<path d="M29.9312 186V178.727H32.7153C33.2409 178.727 33.6776 178.81 34.0257 178.976C34.376 179.139 34.6376 179.363 34.8105 179.647C34.9856 179.931 35.0732 180.253 35.0732 180.613C35.0732 180.909 35.0164 181.162 34.9028 181.373C34.7892 181.581 34.6365 181.75 34.4447 181.881C34.2529 182.011 34.0387 182.104 33.8019 182.161V182.232C34.06 182.246 34.3074 182.326 34.5441 182.47C34.7832 182.612 34.9785 182.813 35.1301 183.074C35.2816 183.334 35.3573 183.649 35.3573 184.018C35.3573 184.395 35.2662 184.733 35.0839 185.034C34.9016 185.332 34.627 185.568 34.26 185.741C33.8931 185.914 33.4314 186 32.8751 186H29.9312ZM31.2487 184.899H32.6656C33.1438 184.899 33.4883 184.808 33.699 184.626C33.912 184.441 34.0186 184.204 34.0186 183.915C34.0186 183.7 33.9653 183.506 33.8588 183.333C33.7522 183.158 33.6007 183.021 33.4042 182.921C33.2077 182.819 32.9733 182.768 32.7011 182.768H31.2487V184.899ZM31.2487 181.82H32.5519C32.7792 181.82 32.984 181.779 33.1663 181.696C33.3486 181.611 33.4918 181.491 33.596 181.337C33.7025 181.181 33.7558 180.996 33.7558 180.783C33.7558 180.502 33.6563 180.27 33.4575 180.087C33.261 179.905 32.9686 179.814 32.5803 179.814H31.2487V181.82Z" fill="#00C452"/>
<path d="M67.4716 177.273V186H66.4148V178.381H66.3636L64.233 179.795V178.722L66.4148 177.273H67.4716ZM72.7599 177.153C73.1179 177.156 73.4759 177.224 73.8338 177.358C74.1918 177.491 74.5185 177.713 74.8139 178.023C75.1094 178.33 75.3466 178.749 75.5256 179.28C75.7045 179.811 75.794 180.477 75.794 181.278C75.794 182.054 75.7202 182.743 75.5724 183.345C75.4276 183.945 75.2173 184.45 74.9418 184.862C74.669 185.274 74.3366 185.587 73.9446 185.8C73.5554 186.013 73.1151 186.119 72.6236 186.119C72.1349 186.119 71.6989 186.023 71.3153 185.83C70.9347 185.634 70.6222 185.362 70.3778 185.016C70.1364 184.666 69.9815 184.261 69.9134 183.801H70.9531C71.0469 184.202 71.233 184.533 71.5114 184.794C71.7926 185.053 72.1634 185.182 72.6236 185.182C73.2969 185.182 73.8281 184.888 74.2173 184.3C74.6094 183.712 74.8054 182.881 74.8054 181.807H74.7372C74.5781 182.045 74.3892 182.251 74.1705 182.425C73.9517 182.598 73.7088 182.732 73.4418 182.825C73.1747 182.919 72.8906 182.966 72.5895 182.966C72.0895 182.966 71.6307 182.842 71.2131 182.595C70.7983 182.345 70.4659 182.003 70.2159 181.568C69.9688 181.131 69.8452 180.631 69.8452 180.068C69.8452 179.534 69.9645 179.045 70.2031 178.602C70.4446 178.156 70.7827 177.801 71.2173 177.537C71.6548 177.273 72.169 177.145 72.7599 177.153ZM72.7599 178.091C72.402 178.091 72.0795 178.18 71.7926 178.359C71.5085 178.536 71.2827 178.774 71.1151 179.075C70.9503 179.374 70.8679 179.705 70.8679 180.068C70.8679 180.432 70.9474 180.763 71.1065 181.061C71.2685 181.357 71.4886 181.592 71.767 181.768C72.0483 181.942 72.3679 182.028 72.7259 182.028C72.9957 182.028 73.2472 181.976 73.4801 181.871C73.7131 181.763 73.9162 181.616 74.0895 181.432C74.2656 181.244 74.4034 181.033 74.5028 180.797C74.6023 180.558 74.652 180.31 74.652 180.051C74.652 179.71 74.5696 179.391 74.4048 179.092C74.2429 178.794 74.0185 178.553 73.7315 178.368C73.4474 178.183 73.1236 178.091 72.7599 178.091ZM80.2653 186.119C79.68 186.119 79.163 186.016 78.7141 185.808C78.2681 185.598 77.9201 185.31 77.6701 184.943C77.4201 184.574 77.2965 184.153 77.2994 183.682C77.2965 183.312 77.369 182.972 77.5167 182.659C77.6644 182.344 77.8661 182.081 78.1218 181.871C78.3803 181.658 78.6687 181.523 78.9869 181.466V181.415C78.5692 181.307 78.2369 181.072 77.9897 180.712C77.7425 180.348 77.6204 179.935 77.6232 179.472C77.6204 179.028 77.7326 178.632 77.9599 178.283C78.1871 177.933 78.4996 177.658 78.8974 177.456C79.2979 177.254 79.7539 177.153 80.2653 177.153C80.771 177.153 81.2227 177.254 81.6204 177.456C82.0181 177.658 82.3306 177.933 82.5579 178.283C82.788 178.632 82.9045 179.028 82.9073 179.472C82.9045 179.935 82.7781 180.348 82.5281 180.712C82.2809 181.072 81.9528 181.307 81.5437 181.415V181.466C81.859 181.523 82.1431 181.658 82.396 181.871C82.6488 182.081 82.8505 182.344 83.0011 182.659C83.1516 182.972 83.2283 183.312 83.2312 183.682C83.2283 184.153 83.1005 184.574 82.8477 184.943C82.5977 185.31 82.2496 185.598 81.8036 185.808C81.3604 186.016 80.8477 186.119 80.2653 186.119ZM80.2653 185.182C80.6602 185.182 81.0011 185.118 81.288 184.99C81.5749 184.862 81.7965 184.682 81.9528 184.449C82.109 184.216 82.1886 183.943 82.1914 183.631C82.1886 183.301 82.1033 183.01 81.9357 182.757C81.7681 182.504 81.5394 182.305 81.2496 182.161C80.9627 182.016 80.6346 181.943 80.2653 181.943C79.8931 181.943 79.5607 182.016 79.2681 182.161C78.9783 182.305 78.7496 182.504 78.582 182.757C78.4173 183.01 78.3363 183.301 78.3391 183.631C78.3363 183.943 78.4116 184.216 78.565 184.449C78.7212 184.682 78.9442 184.862 79.234 184.99C79.5238 185.118 79.8675 185.182 80.2653 185.182ZM80.2653 181.04C80.5778 181.04 80.8548 180.977 81.0962 180.852C81.3406 180.727 81.5323 180.553 81.6715 180.328C81.8107 180.104 81.8817 179.841 81.8846 179.54C81.8817 179.244 81.8121 178.987 81.6758 178.768C81.5394 178.547 81.3505 178.376 81.109 178.257C80.8675 178.135 80.5863 178.074 80.2653 178.074C79.9386 178.074 79.6531 178.135 79.4087 178.257C79.1644 178.376 78.9755 178.547 78.842 178.768C78.7085 178.987 78.6431 179.244 78.646 179.54C78.6431 179.841 78.7099 180.104 78.8462 180.328C78.9854 180.553 79.1772 180.727 79.4215 180.852C79.6658 180.977 79.9471 181.04 80.2653 181.04ZM87.7109 186.119C87.0689 186.119 86.522 185.945 86.0703 185.595C85.6186 185.243 85.2734 184.733 85.0348 184.065C84.7962 183.395 84.6768 182.585 84.6768 181.636C84.6768 180.693 84.7962 179.888 85.0348 179.22C85.2763 178.55 85.6229 178.038 86.0746 177.686C86.5291 177.331 87.0746 177.153 87.7109 177.153C88.3473 177.153 88.8913 177.331 89.343 177.686C89.7976 178.038 90.1442 178.55 90.3828 179.22C90.6243 179.888 90.745 180.693 90.745 181.636C90.745 182.585 90.6257 183.395 90.3871 184.065C90.1484 184.733 89.8033 185.243 89.3516 185.595C88.8999 185.945 88.353 186.119 87.7109 186.119ZM87.7109 185.182C88.3473 185.182 88.8416 184.875 89.1939 184.261C89.5462 183.648 89.7223 182.773 89.7223 181.636C89.7223 180.881 89.6413 180.237 89.4794 179.706C89.3203 179.175 89.0902 178.77 88.7891 178.491C88.4908 178.213 88.1314 178.074 87.7109 178.074C87.0803 178.074 86.5874 178.385 86.2322 179.007C85.8771 179.626 85.6996 180.503 85.6996 181.636C85.6996 182.392 85.7791 183.034 85.9382 183.562C86.0973 184.091 86.326 184.493 86.6243 184.768C86.9254 185.044 87.2876 185.182 87.7109 185.182ZM95.2109 186.119C94.5689 186.119 94.022 185.945 93.5703 185.595C93.1186 185.243 92.7734 184.733 92.5348 184.065C92.2962 183.395 92.1768 182.585 92.1768 181.636C92.1768 180.693 92.2962 179.888 92.5348 179.22C92.7763 178.55 93.1229 178.038 93.5746 177.686C94.0291 177.331 94.5746 177.153 95.2109 177.153C95.8473 177.153 96.3913 177.331 96.843 177.686C97.2976 178.038 97.6442 178.55 97.8828 179.22C98.1243 179.888 98.245 180.693 98.245 181.636C98.245 182.585 98.1257 183.395 97.8871 184.065C97.6484 184.733 97.3033 185.243 96.8516 185.595C96.3999 185.945 95.853 186.119 95.2109 186.119ZM95.2109 185.182C95.8473 185.182 96.3416 184.875 96.6939 184.261C97.0462 183.648 97.2223 182.773 97.2223 181.636C97.2223 180.881 97.1413 180.237 96.9794 179.706C96.8203 179.175 96.5902 178.77 96.2891 178.491C95.9908 178.213 95.6314 178.074 95.2109 178.074C94.5803 178.074 94.0874 178.385 93.7322 179.007C93.3771 179.626 93.1996 180.503 93.1996 181.636C93.1996 182.392 93.2791 183.034 93.4382 183.562C93.5973 184.091 93.826 184.493 94.1243 184.768C94.4254 185.044 94.7876 185.182 95.2109 185.182Z" fill="#3A3A3A"/>
<path d="M123.057 186V177.273H126.006C126.69 177.273 127.25 177.396 127.685 177.643C128.122 177.888 128.446 178.219 128.656 178.636C128.866 179.054 128.972 179.52 128.972 180.034C128.972 180.548 128.866 181.016 128.656 181.436C128.449 181.857 128.128 182.192 127.693 182.442C127.259 182.689 126.702 182.812 126.023 182.812H123.909V181.875H125.989C126.457 181.875 126.834 181.794 127.118 181.632C127.402 181.47 127.608 181.251 127.736 180.976C127.866 180.697 127.932 180.384 127.932 180.034C127.932 179.685 127.866 179.372 127.736 179.097C127.608 178.821 127.401 178.605 127.114 178.449C126.827 178.29 126.446 178.21 125.972 178.21H124.114V186H123.057ZM130.674 186V177.273H135.941V178.21H131.731V181.159H135.668V182.097H131.731V185.062H136.009V186H130.674Z" fill="#3A3A3A"/>
</g>
<defs>
<linearGradient id="paint0_linear_1820_17225" x1="204.688" y1="222.092" x2="204.688" y2="96.1005" gradientUnits="userSpaceOnUse">
<stop stop-color="#C2C2C2" stop-opacity="0.36"/>
<stop offset="0.786458" stop-color="#C8C8C8" stop-opacity="0.12"/>
<stop offset="1" stop-color="#727272" stop-opacity="0"/>
</linearGradient>
<linearGradient id="paint1_linear_1820_17225" x1="187.885" y1="106.711" x2="628.191" y2="106.711" gradientUnits="userSpaceOnUse">
<stop stop-color="#AFAFAF" stop-opacity="0"/>
<stop offset="0.3125" stop-color="#BEBEBE" stop-opacity="0.36"/>
<stop offset="0.786458" stop-color="#BDBDBD" stop-opacity="0.12"/>
<stop offset="1" stop-color="#A7A7A7" stop-opacity="0"/>
</linearGradient>
<clipPath id="clip0_1820_17225">
<rect width="580" height="300" rx="4" fill="white"/>
</clipPath>
<clipPath id="clip1_1820_17225">
<rect width="953" height="356" fill="white" transform="translate(164 -8)"/>
</clipPath>
<clipPath id="clip2_1820_17225">
<rect width="416" height="200" fill="white" transform="translate(164 49)"/>
</clipPath>
</defs>
</svg>
