<svg width="580" height="300" viewBox="0 0 580 300" fill="none" xmlns="http://www.w3.org/2000/svg">
<g clip-path="url(#clip0_1820_17268)">
<rect width="580" height="300" rx="4" fill="#F8F8F8"/>
<rect x="126" width="454" height="300" rx="6" fill="white"/>
<path d="M207.979 74V72.8864L211.425 69.3168C211.793 68.929 212.096 68.5893 212.335 68.2976C212.576 68.0026 212.757 67.7225 212.876 67.4574C212.996 67.1922 213.055 66.9105 213.055 66.6122C213.055 66.2741 212.976 65.9825 212.817 65.7372C212.658 65.4886 212.441 65.2981 212.165 65.1655C211.89 65.0296 211.58 64.9616 211.236 64.9616C210.871 64.9616 210.553 65.0362 210.281 65.1854C210.009 65.3345 209.801 65.545 209.655 65.8168C209.509 66.0885 209.436 66.4067 209.436 66.7713H207.969C207.969 66.1515 208.112 65.6096 208.397 65.1456C208.682 64.6816 209.073 64.322 209.57 64.0668C210.067 63.8082 210.633 63.679 211.266 63.679C211.905 63.679 212.469 63.8066 212.956 64.0618C213.446 64.3137 213.829 64.6584 214.104 65.0959C214.379 65.5301 214.517 66.0206 214.517 66.5675C214.517 66.9453 214.446 67.3149 214.303 67.6761C214.164 68.0374 213.92 68.4401 213.572 68.8842C213.224 69.325 212.741 69.8603 212.121 70.4901L210.097 72.608V72.6825H214.681V74H207.979ZM220.11 74.169C219.325 74.1657 218.653 73.9586 218.097 73.5476C217.54 73.1366 217.114 72.5384 216.819 71.7528C216.524 70.9673 216.376 70.0211 216.376 68.9141C216.376 67.8104 216.524 66.8674 216.819 66.0852C217.117 65.303 217.545 64.7064 218.102 64.2955C218.662 63.8845 219.331 63.679 220.11 63.679C220.889 63.679 221.557 63.8861 222.114 64.3004C222.67 64.7114 223.096 65.308 223.391 66.0902C223.69 66.8691 223.839 67.8104 223.839 68.9141C223.839 70.0244 223.691 70.9723 223.396 71.7578C223.101 72.54 222.675 73.1383 222.119 73.5526C221.562 73.9635 220.892 74.169 220.11 74.169ZM220.11 72.8416C220.799 72.8416 221.338 72.5052 221.726 71.8324C222.117 71.1596 222.312 70.1868 222.312 68.9141C222.312 68.0689 222.223 67.3546 222.044 66.7713C221.868 66.1847 221.615 65.7405 221.283 65.4389C220.955 65.134 220.564 64.9815 220.11 64.9815C219.424 64.9815 218.885 65.3196 218.494 65.9957C218.103 66.6719 217.906 67.6446 217.903 68.9141C217.903 69.7625 217.991 70.4801 218.166 71.0668C218.345 71.6501 218.599 72.0926 218.927 72.3942C219.255 72.6925 219.649 72.8416 220.11 72.8416ZM225.602 74V72.8864L229.048 69.3168C229.416 68.929 229.719 68.5893 229.958 68.2976C230.2 68.0026 230.38 67.7225 230.499 67.4574C230.619 67.1922 230.678 66.9105 230.678 66.6122C230.678 66.2741 230.599 65.9825 230.44 65.7372C230.281 65.4886 230.064 65.2981 229.789 65.1655C229.513 65.0296 229.204 64.9616 228.859 64.9616C228.494 64.9616 228.176 65.0362 227.904 65.1854C227.633 65.3345 227.424 65.545 227.278 65.8168C227.132 66.0885 227.059 66.4067 227.059 66.7713H225.593C225.593 66.1515 225.735 65.6096 226.02 65.1456C226.305 64.6816 226.696 64.322 227.193 64.0668C227.691 63.8082 228.256 63.679 228.889 63.679C229.528 63.679 230.092 63.8066 230.579 64.0618C231.07 64.3137 231.452 64.6584 231.727 65.0959C232.003 65.5301 232.14 66.0206 232.14 66.5675C232.14 66.9453 232.069 67.3149 231.926 67.6761C231.787 68.0374 231.544 68.4401 231.195 68.8842C230.847 69.325 230.364 69.8603 229.744 70.4901L227.72 72.608V72.6825H232.304V74H225.602ZM238.051 63.8182V74H236.51V65.3594H236.45L234.014 66.9503V65.4787L236.555 63.8182H238.051Z" fill="#808080"/>
<line x1="253" y1="71.5" x2="523" y2="71.5" stroke="#F3F3F3"/>
<path d="M207.979 34V32.8864L211.425 29.3168C211.793 28.929 212.096 28.5893 212.335 28.2976C212.576 28.0026 212.757 27.7225 212.876 27.4574C212.996 27.1922 213.055 26.9105 213.055 26.6122C213.055 26.2741 212.976 25.9825 212.817 25.7372C212.658 25.4886 212.441 25.2981 212.165 25.1655C211.89 25.0296 211.58 24.9616 211.236 24.9616C210.871 24.9616 210.553 25.0362 210.281 25.1854C210.009 25.3345 209.801 25.545 209.655 25.8168C209.509 26.0885 209.436 26.4067 209.436 26.7713H207.969C207.969 26.1515 208.112 25.6096 208.397 25.1456C208.682 24.6816 209.073 24.322 209.57 24.0668C210.067 23.8082 210.633 23.679 211.266 23.679C211.905 23.679 212.469 23.8066 212.956 24.0618C213.446 24.3137 213.829 24.6584 214.104 25.0959C214.379 25.5301 214.517 26.0206 214.517 26.5675C214.517 26.9453 214.446 27.3149 214.303 27.6761C214.164 28.0374 213.92 28.4401 213.572 28.8842C213.224 29.325 212.741 29.8603 212.121 30.4901L210.097 32.608V32.6825H214.681V34H207.979ZM220.11 34.169C219.325 34.1657 218.653 33.9586 218.097 33.5476C217.54 33.1366 217.114 32.5384 216.819 31.7528C216.524 30.9673 216.376 30.0211 216.376 28.9141C216.376 27.8104 216.524 26.8674 216.819 26.0852C217.117 25.303 217.545 24.7064 218.102 24.2955C218.662 23.8845 219.331 23.679 220.11 23.679C220.889 23.679 221.557 23.8861 222.114 24.3004C222.67 24.7114 223.096 25.308 223.391 26.0902C223.69 26.8691 223.839 27.8104 223.839 28.9141C223.839 30.0244 223.691 30.9723 223.396 31.7578C223.101 32.54 222.675 33.1383 222.119 33.5526C221.562 33.9635 220.892 34.169 220.11 34.169ZM220.11 32.8416C220.799 32.8416 221.338 32.5052 221.726 31.8324C222.117 31.1596 222.312 30.1868 222.312 28.9141C222.312 28.0689 222.223 27.3546 222.044 26.7713C221.868 26.1847 221.615 25.7405 221.283 25.4389C220.955 25.134 220.564 24.9815 220.11 24.9815C219.424 24.9815 218.885 25.3196 218.494 25.9957C218.103 26.6719 217.906 27.6446 217.903 28.9141C217.903 29.7625 217.991 30.4801 218.166 31.0668C218.345 31.6501 218.599 32.0926 218.927 32.3942C219.255 32.6925 219.649 32.8416 220.11 32.8416ZM225.602 34V32.8864L229.048 29.3168C229.416 28.929 229.719 28.5893 229.958 28.2976C230.2 28.0026 230.38 27.7225 230.499 27.4574C230.619 27.1922 230.678 26.9105 230.678 26.6122C230.678 26.2741 230.599 25.9825 230.44 25.7372C230.281 25.4886 230.064 25.2981 229.789 25.1655C229.513 25.0296 229.204 24.9616 228.859 24.9616C228.494 24.9616 228.176 25.0362 227.904 25.1854C227.633 25.3345 227.424 25.545 227.278 25.8168C227.132 26.0885 227.059 26.4067 227.059 26.7713H225.593C225.593 26.1515 225.735 25.6096 226.02 25.1456C226.305 24.6816 226.696 24.322 227.193 24.0668C227.691 23.8082 228.256 23.679 228.889 23.679C229.528 23.679 230.092 23.8066 230.579 24.0618C231.07 24.3137 231.452 24.6584 231.727 25.0959C232.003 25.5301 232.14 26.0206 232.14 26.5675C232.14 26.9453 232.069 27.3149 231.926 27.6761C231.787 28.0374 231.544 28.4401 231.195 28.8842C230.847 29.325 230.364 29.8603 229.744 30.4901L227.72 32.608V32.6825H232.304V34H225.602ZM234.188 34V32.8864L237.634 29.3168C238.002 28.929 238.305 28.5893 238.544 28.2976C238.785 28.0026 238.966 27.7225 239.085 27.4574C239.205 27.1922 239.264 26.9105 239.264 26.6122C239.264 26.2741 239.185 25.9825 239.026 25.7372C238.867 25.4886 238.65 25.2981 238.374 25.1655C238.099 25.0296 237.789 24.9616 237.445 24.9616C237.08 24.9616 236.762 25.0362 236.49 25.1854C236.218 25.3345 236.01 25.545 235.864 25.8168C235.718 26.0885 235.645 26.4067 235.645 26.7713H234.178C234.178 26.1515 234.321 25.6096 234.606 25.1456C234.891 24.6816 235.282 24.322 235.779 24.0668C236.276 23.8082 236.842 23.679 237.475 23.679C238.114 23.679 238.678 23.8066 239.165 24.0618C239.655 24.3137 240.038 24.6584 240.313 25.0959C240.588 25.5301 240.726 26.0206 240.726 26.5675C240.726 26.9453 240.655 27.3149 240.512 27.6761C240.373 28.0374 240.129 28.4401 239.781 28.8842C239.433 29.325 238.95 29.8603 238.33 30.4901L236.306 32.608V32.6825H240.89V34H234.188Z" fill="#808080"/>
<line x1="253" y1="31.5" x2="523" y2="31.5" stroke="#F3F3F3"/>
<mask id="path-7-inside-1_1820_17268" fill="white">
<path d="M0 0H164V300H0V0Z"/>
</mask>
<path d="M0 0H164V300H0V0Z" fill="white"/>
<rect width="80" height="54" transform="translate(42.5 49)" fill="white"/>
<path d="M55.5568 66V57.2727H58.5057C59.1903 57.2727 59.75 57.3963 60.1847 57.6435C60.6222 57.8878 60.946 58.2188 61.1562 58.6364C61.3665 59.054 61.4716 59.5199 61.4716 60.0341C61.4716 60.5483 61.3665 61.0156 61.1562 61.4361C60.9489 61.8565 60.6278 62.1918 60.1932 62.4418C59.7585 62.6889 59.2017 62.8125 58.5227 62.8125H56.4091V61.875H58.4886C58.9574 61.875 59.3338 61.794 59.6179 61.6321C59.902 61.4702 60.108 61.2514 60.2358 60.9759C60.3665 60.6974 60.4318 60.3835 60.4318 60.0341C60.4318 59.6847 60.3665 59.3722 60.2358 59.0966C60.108 58.821 59.9006 58.6051 59.6136 58.4489C59.3267 58.2898 58.946 58.2102 58.4716 58.2102H56.6136V66H55.5568ZM65.0991 66.1193C64.5252 66.1193 64.0309 66.0142 63.6161 65.804C63.2013 65.5937 62.8817 65.3054 62.6573 64.9389C62.4329 64.5724 62.3207 64.1534 62.3207 63.6818C62.3207 63.3182 62.3974 62.9957 62.5508 62.7145C62.707 62.4304 62.9215 62.1676 63.1942 61.9261C63.4698 61.6818 63.7866 61.4375 64.1445 61.1932L65.4059 60.2557C65.6531 60.0937 65.8505 59.9205 65.9982 59.7358C66.1488 59.5511 66.2241 59.3097 66.2241 59.0114C66.2241 58.7898 66.1261 58.5753 65.93 58.3679C65.7369 58.1605 65.4826 58.0568 65.1673 58.0568C64.9457 58.0568 64.7496 58.1136 64.5792 58.2273C64.4116 58.3381 64.2795 58.4801 64.1829 58.6534C64.0891 58.8239 64.0423 59 64.0423 59.1818C64.0423 59.3864 64.0977 59.5938 64.2085 59.804C64.3221 60.0114 64.4656 60.2244 64.6388 60.4432C64.815 60.6591 64.9968 60.8807 65.1843 61.108L69.19 66H67.9798L64.6729 62.0114C64.3661 61.642 64.0877 61.3068 63.8377 61.0057C63.5877 60.7045 63.3888 60.4077 63.2411 60.1151C63.0934 59.8224 63.0195 59.5057 63.0195 59.1648C63.0195 58.7727 63.1062 58.429 63.2795 58.1335C63.4556 57.8352 63.7013 57.6037 64.0167 57.4389C64.3349 57.2713 64.707 57.1875 65.1332 57.1875C65.5707 57.1875 65.9471 57.2727 66.2624 57.4432C66.5778 57.6108 66.8207 57.8338 66.9911 58.1122C67.1616 58.3878 67.2468 58.6875 67.2468 59.0114C67.2468 59.429 67.1431 59.7912 66.9357 60.098C66.7283 60.4048 66.4457 60.6903 66.0877 60.9545L64.3491 62.25C63.957 62.5398 63.6914 62.821 63.5522 63.0938C63.413 63.3665 63.3434 63.5625 63.3434 63.6818C63.3434 63.9545 63.4144 64.2088 63.5565 64.4446C63.6985 64.6804 63.8988 64.8707 64.1573 65.0156C64.4158 65.1605 64.7184 65.233 65.065 65.233C65.3945 65.233 65.7156 65.1634 66.0281 65.0241C66.3406 64.8821 66.6232 64.6776 66.8761 64.4105C67.1317 64.1435 67.3335 63.8224 67.4812 63.4474C67.6317 63.0724 67.707 62.6506 67.707 62.1818H68.6786C68.6786 62.7614 68.6119 63.2344 68.4783 63.6009C68.3448 63.9673 68.1942 64.2543 68.0266 64.4616C67.859 64.669 67.7241 64.8239 67.6218 64.9261C67.5877 64.9687 67.5565 65.0114 67.5281 65.054C67.4996 65.0966 67.4684 65.1392 67.4343 65.1818C67.1531 65.4972 66.7979 65.733 66.369 65.8892C65.94 66.0426 65.5167 66.1193 65.0991 66.1193ZM70.4396 66V57.2727H71.4964V65.0625H75.5533V66H70.4396Z" fill="#3A3A3A"/>
<path d="M55.554 93V92.1051L58.9148 88.4261C59.3092 87.9953 59.634 87.6207 59.8892 87.3026C60.1444 86.9811 60.3333 86.6795 60.456 86.3977C60.5819 86.1127 60.6449 85.8144 60.6449 85.5028C60.6449 85.1449 60.5587 84.835 60.3864 84.5732C60.2173 84.3113 59.9853 84.1091 59.6903 83.9666C59.3954 83.8241 59.0639 83.7528 58.696 83.7528C58.3049 83.7528 57.9635 83.834 57.6719 83.9964C57.3835 84.1555 57.1598 84.3793 57.0007 84.6676C56.8449 84.956 56.767 85.294 56.767 85.6818H55.5938C55.5938 85.0852 55.7313 84.5616 56.0064 84.1108C56.2815 83.66 56.656 83.3087 57.13 83.0568C57.6072 82.8049 58.1425 82.679 58.7358 82.679C59.3324 82.679 59.861 82.8049 60.3217 83.0568C60.7824 83.3087 61.1437 83.6484 61.4055 84.076C61.6674 84.5036 61.7983 84.9792 61.7983 85.5028C61.7983 85.8774 61.7304 86.2436 61.5945 86.6016C61.4619 86.9562 61.2299 87.3523 60.8984 87.7898C60.5703 88.224 60.1146 88.7543 59.5312 89.3807L57.2443 91.8267V91.9062H61.9773V93H55.554ZM67.4709 93.1392C66.8146 93.1392 66.2296 93.0265 65.7159 92.8011C65.2055 92.5758 64.7995 92.2625 64.4979 91.8615C64.1996 91.4571 64.0372 90.9882 64.0107 90.4545H65.2635C65.29 90.7827 65.4027 91.0661 65.6016 91.3047C65.8004 91.54 66.0606 91.7223 66.3821 91.8516C66.7036 91.9808 67.0599 92.0455 67.451 92.0455C67.8885 92.0455 68.2763 91.9692 68.6143 91.8168C68.9524 91.6643 69.2176 91.4522 69.4098 91.1804C69.602 90.9086 69.6982 90.5938 69.6982 90.2358C69.6982 89.8613 69.6054 89.5315 69.4197 89.2464C69.2341 88.9581 68.9624 88.7327 68.6044 88.5703C68.2464 88.4079 67.8089 88.3267 67.2919 88.3267H66.4766V87.233H67.2919C67.6963 87.233 68.0509 87.16 68.3558 87.0142C68.6641 86.8684 68.9044 86.6629 69.0767 86.3977C69.2524 86.1326 69.3402 85.821 69.3402 85.4631C69.3402 85.1184 69.264 84.8184 69.1115 84.5632C68.959 84.308 68.7436 84.1091 68.4652 83.9666C68.1901 83.8241 67.8653 83.7528 67.4908 83.7528C67.1394 83.7528 66.808 83.8175 66.4964 83.9467C66.1882 84.0727 65.9363 84.2566 65.7408 84.4986C65.5452 84.7372 65.4392 85.0256 65.4226 85.3636H64.2294C64.2493 84.83 64.41 84.3627 64.7116 83.9616C65.0133 83.5573 65.4077 83.2424 65.8949 83.017C66.3854 82.7917 66.924 82.679 67.5107 82.679C68.1404 82.679 68.6806 82.8066 69.1314 83.0618C69.5821 83.3137 69.9285 83.6468 70.1705 84.0611C70.4124 84.4754 70.5334 84.9228 70.5334 85.4034C70.5334 85.9768 70.3826 86.4657 70.081 86.87C69.7827 87.2744 69.3767 87.5545 68.8629 87.7102V87.7898C69.5059 87.8958 70.008 88.1693 70.3693 88.6101C70.7306 89.0476 70.9112 89.5895 70.9112 90.2358C70.9112 90.7893 70.7604 91.2865 70.4588 91.7273C70.1605 92.1648 69.7528 92.5095 69.2358 92.7614C68.7188 93.0133 68.1304 93.1392 67.4709 93.1392ZM72.706 90.9119V89.8977L77.1804 82.8182H77.9162V84.3892H77.419L74.0384 89.7386V89.8182H80.0639V90.9119H72.706ZM77.4986 93V90.6037V90.1314V82.8182H78.6719V93H77.4986ZM85.1088 93.1392C84.5255 93.1392 84.0002 93.0232 83.5328 92.7912C83.0655 92.5592 82.691 92.241 82.4093 91.8366C82.1275 91.4323 81.9734 90.9716 81.9469 90.4545H83.1401C83.1865 90.9152 83.3953 91.2964 83.7665 91.598C84.141 91.8963 84.5885 92.0455 85.1088 92.0455C85.5265 92.0455 85.8977 91.9477 86.2225 91.7521C86.5506 91.5566 86.8075 91.2881 86.9931 90.9467C87.182 90.602 87.2765 90.2126 87.2765 89.7784C87.2765 89.3343 87.1787 88.9382 86.9831 88.5902C86.7909 88.2389 86.5257 87.9621 86.1877 87.7599C85.8496 87.5578 85.4635 87.455 85.0293 87.4517C84.7177 87.4484 84.3979 87.4964 84.0698 87.5959C83.7417 87.692 83.4715 87.8163 83.2594 87.9688L82.106 87.8295L82.7225 82.8182H88.0123V83.9119H83.7566L83.3986 86.9148H83.4583C83.6671 86.7491 83.9289 86.6115 84.2438 86.5021C84.5587 86.3928 84.8868 86.3381 85.2282 86.3381C85.8513 86.3381 86.4064 86.4872 86.8936 86.7855C87.3842 87.0805 87.7686 87.4848 88.0471 87.9986C88.3288 88.5123 88.4696 89.099 88.4696 89.7585C88.4696 90.4081 88.3238 90.9882 88.0321 91.4986C87.7438 92.0057 87.3461 92.4067 86.839 92.7017C86.3319 92.9934 85.7551 93.1392 85.1088 93.1392ZM90.4446 93V92.1051L93.8054 88.4261C94.1998 87.9953 94.5246 87.6207 94.7798 87.3026C95.035 86.9811 95.224 86.6795 95.3466 86.3977C95.4725 86.1127 95.5355 85.8144 95.5355 85.5028C95.5355 85.1449 95.4493 84.835 95.277 84.5732C95.108 84.3113 94.8759 84.1091 94.581 83.9666C94.286 83.8241 93.9545 83.7528 93.5866 83.7528C93.1955 83.7528 92.8542 83.834 92.5625 83.9964C92.2741 84.1555 92.0504 84.3793 91.8913 84.6676C91.7356 84.956 91.6577 85.294 91.6577 85.6818H90.4844C90.4844 85.0852 90.6219 84.5616 90.897 84.1108C91.1721 83.66 91.5466 83.3087 92.0206 83.0568C92.4979 82.8049 93.0331 82.679 93.6264 82.679C94.223 82.679 94.7517 82.8049 95.2124 83.0568C95.6731 83.3087 96.0343 83.6484 96.2962 84.076C96.558 84.5036 96.6889 84.9792 96.6889 85.5028C96.6889 85.8774 96.621 86.2436 96.4851 86.6016C96.3525 86.9562 96.1205 87.3523 95.7891 87.7898C95.4609 88.224 95.0052 88.7543 94.4219 89.3807L92.1349 91.8267V91.9062H96.8679V93H90.4446ZM99.7962 93.0795C99.5509 93.0795 99.3404 92.9917 99.1648 92.8161C98.9891 92.6404 98.9013 92.4299 98.9013 92.1847C98.9013 91.9394 98.9891 91.7289 99.1648 91.5533C99.3404 91.3776 99.5509 91.2898 99.7962 91.2898C100.041 91.2898 100.252 91.3776 100.428 91.5533C100.603 91.7289 100.691 91.9394 100.691 92.1847C100.691 92.3471 100.65 92.4962 100.567 92.6321C100.487 92.768 100.379 92.8774 100.244 92.9602C100.111 93.0398 99.9619 93.0795 99.7962 93.0795ZM105.753 93.1392C105.17 93.1392 104.645 93.0232 104.177 92.7912C103.71 92.5592 103.336 92.241 103.054 91.8366C102.772 91.4323 102.618 90.9716 102.591 90.4545H103.785C103.831 90.9152 104.04 91.2964 104.411 91.598C104.786 91.8963 105.233 92.0455 105.753 92.0455C106.171 92.0455 106.542 91.9477 106.867 91.7521C107.195 91.5566 107.452 91.2881 107.638 90.9467C107.827 90.602 107.921 90.2126 107.921 89.7784C107.921 89.3343 107.823 88.9382 107.628 88.5902C107.435 88.2389 107.17 87.9621 106.832 87.7599C106.494 87.5578 106.108 87.455 105.674 87.4517C105.362 87.4484 105.042 87.4964 104.714 87.5959C104.386 87.692 104.116 87.8163 103.904 87.9688L102.751 87.8295L103.367 82.8182H108.657V83.9119H104.401L104.043 86.9148H104.103C104.312 86.7491 104.573 86.6115 104.888 86.5021C105.203 86.3928 105.531 86.3381 105.873 86.3381C106.496 86.3381 107.051 86.4872 107.538 86.7855C108.029 87.0805 108.413 87.4848 108.692 87.9986C108.973 88.5123 109.114 89.099 109.114 89.7585C109.114 90.4081 108.968 90.9882 108.677 91.4986C108.388 92.0057 107.991 92.4067 107.483 92.7017C106.976 92.9934 106.4 93.1392 105.753 93.1392Z" fill="#00C452"/>
<rect width="80" height="54" transform="translate(42.5 123)" fill="white"/>
<path d="M55.5568 131.273H56.8182L59.7841 138.517H59.8864L62.8523 131.273H64.1136V140H63.125V133.369H63.0398L60.3125 140H59.358L56.6307 133.369H56.5455V140H55.5568V131.273ZM68.0224 140.153C67.6076 140.153 67.2312 140.075 66.8931 139.919C66.555 139.76 66.2866 139.531 66.0877 139.233C65.8888 138.932 65.7894 138.568 65.7894 138.142C65.7894 137.767 65.8633 137.463 66.011 137.23C66.1587 136.994 66.3562 136.81 66.6033 136.676C66.8505 136.543 67.1232 136.443 67.4215 136.378C67.7227 136.31 68.0252 136.256 68.3292 136.216C68.7269 136.165 69.0494 136.126 69.2965 136.101C69.5465 136.072 69.7283 136.026 69.842 135.96C69.9585 135.895 70.0167 135.781 70.0167 135.619V135.585C70.0167 135.165 69.9016 134.838 69.6715 134.605C69.4442 134.372 69.0991 134.256 68.636 134.256C68.1559 134.256 67.7795 134.361 67.5067 134.571C67.234 134.781 67.0423 135.006 66.9315 135.244L65.9769 134.903C66.1474 134.506 66.3746 134.196 66.6587 133.974C66.9457 133.75 67.2582 133.594 67.5962 133.506C67.9371 133.415 68.2724 133.369 68.6019 133.369C68.8121 133.369 69.0536 133.395 69.3263 133.446C69.6019 133.494 69.8675 133.595 70.1232 133.749C70.3817 133.902 70.5962 134.134 70.7667 134.443C70.9371 134.753 71.0224 135.168 71.0224 135.688V140H70.0167V139.114H69.9656C69.8974 139.256 69.7837 139.408 69.6246 139.57C69.4656 139.732 69.2539 139.869 68.9897 139.983C68.7255 140.097 68.4031 140.153 68.0224 140.153ZM68.1758 139.25C68.5735 139.25 68.9087 139.172 69.1815 139.016C69.457 138.859 69.6644 138.658 69.8036 138.411C69.9457 138.163 70.0167 137.903 70.0167 137.631V136.71C69.9741 136.761 69.8803 136.808 69.7354 136.851C69.5934 136.891 69.4286 136.926 69.2411 136.957C69.0565 136.986 68.8761 137.011 68.6999 137.034C68.5266 137.054 68.386 137.071 68.2781 137.085C68.0167 137.119 67.7724 137.175 67.5451 137.251C67.3207 137.325 67.1388 137.437 66.9996 137.588C66.8633 137.736 66.7951 137.937 66.7951 138.193C66.7951 138.543 66.9244 138.807 67.1829 138.986C67.4442 139.162 67.7752 139.25 68.1758 139.25ZM73.608 133.455L75.1761 136.131L76.7443 133.455H77.9034L75.7898 136.727L77.9034 140H76.7443L75.1761 137.46L73.608 140H72.4489L74.5284 136.727L72.4489 133.455H73.608ZM85.543 140H82.8498V131.273H85.6623C86.5089 131.273 87.2333 131.447 87.8356 131.797C88.4379 132.143 88.8995 132.642 89.2205 133.293C89.5415 133.94 89.7021 134.716 89.7021 135.619C89.7021 136.528 89.5401 137.311 89.2163 137.967C88.8924 138.621 88.4208 139.124 87.8015 139.476C87.1822 139.825 86.4293 140 85.543 140ZM83.9066 139.062H85.4748C86.1964 139.062 86.7944 138.923 87.2688 138.645C87.7433 138.366 88.0969 137.97 88.3299 137.456C88.5629 136.942 88.6793 136.33 88.6793 135.619C88.6793 134.915 88.5643 134.308 88.3342 133.8C88.104 133.288 87.7603 132.896 87.3029 132.624C86.8455 132.348 86.2759 132.21 85.5941 132.21H83.9066V139.062ZM94.168 140H91.4748V131.273H94.2873C95.1339 131.273 95.8583 131.447 96.4606 131.797C97.0629 132.143 97.5245 132.642 97.8455 133.293C98.1665 133.94 98.3271 134.716 98.3271 135.619C98.3271 136.528 98.1651 137.311 97.8413 137.967C97.5174 138.621 97.0458 139.124 96.4265 139.476C95.8072 139.825 95.0543 140 94.168 140ZM92.5316 139.062H94.0998C94.8214 139.062 95.4194 138.923 95.8938 138.645C96.3683 138.366 96.7219 137.97 96.9549 137.456C97.1879 136.942 97.3043 136.33 97.3043 135.619C97.3043 134.915 97.1893 134.308 96.9592 133.8C96.729 133.288 96.3853 132.896 95.9279 132.624C95.4705 132.348 94.9009 132.21 94.2191 132.21H92.5316V139.062Z" fill="#3A3A3A"/>
<path d="M59.1335 156.818V167H57.9006V158.111H57.8409L55.3551 159.761V158.509L57.9006 156.818H59.1335ZM61.8232 164.912V163.898L66.2976 156.818H67.0334V158.389H66.5362L63.1555 163.739V163.818H69.1811V164.912H61.8232ZM66.6158 167V164.604V164.131V156.818H67.7891V167H66.6158ZM74.226 167.139C73.6427 167.139 73.1174 167.023 72.65 166.791C72.1827 166.559 71.8082 166.241 71.5265 165.837C71.2447 165.432 71.0906 164.972 71.0641 164.455H72.2573C72.3037 164.915 72.5125 165.296 72.8837 165.598C73.2582 165.896 73.7057 166.045 74.226 166.045C74.6436 166.045 75.0149 165.948 75.3397 165.752C75.6678 165.557 75.9247 165.288 76.1103 164.947C76.2992 164.602 76.3936 164.213 76.3936 163.778C76.3936 163.334 76.2959 162.938 76.1003 162.59C75.9081 162.239 75.6429 161.962 75.3049 161.76C74.9668 161.558 74.5807 161.455 74.1465 161.452C73.8349 161.448 73.5151 161.496 73.187 161.596C72.8588 161.692 72.5887 161.816 72.3766 161.969L71.2232 161.83L71.8397 156.818H77.1294V157.912H72.8738L72.5158 160.915H72.5755C72.7843 160.749 73.0461 160.612 73.361 160.502C73.6758 160.393 74.004 160.338 74.3453 160.338C74.9685 160.338 75.5236 160.487 76.0108 160.786C76.5014 161.08 76.8858 161.485 77.1642 161.999C77.446 162.512 77.5868 163.099 77.5868 163.759C77.5868 164.408 77.441 164.988 77.1493 165.499C76.861 166.006 76.4632 166.407 75.9561 166.702C75.449 166.993 74.8723 167.139 74.226 167.139ZM79.5618 167V166.105L82.9226 162.426C83.317 161.995 83.6418 161.621 83.897 161.303C84.1522 160.981 84.3411 160.679 84.4638 160.398C84.5897 160.113 84.6527 159.814 84.6527 159.503C84.6527 159.145 84.5665 158.835 84.3942 158.573C84.2251 158.311 83.9931 158.109 83.6982 157.967C83.4032 157.824 83.0717 157.753 82.7038 157.753C82.3127 157.753 81.9714 157.834 81.6797 157.996C81.3913 158.156 81.1676 158.379 81.0085 158.668C80.8527 158.956 80.7749 159.294 80.7749 159.682H79.6016C79.6016 159.085 79.7391 158.562 80.0142 158.111C80.2893 157.66 80.6638 157.309 81.1378 157.057C81.6151 156.805 82.1503 156.679 82.7436 156.679C83.3402 156.679 83.8688 156.805 84.3295 157.057C84.7902 157.309 85.1515 157.648 85.4134 158.076C85.6752 158.504 85.8061 158.979 85.8061 159.503C85.8061 159.877 85.7382 160.244 85.6023 160.602C85.4697 160.956 85.2377 161.352 84.9062 161.79C84.5781 162.224 84.1224 162.754 83.5391 163.381L81.2521 165.827V165.906H85.9851V167H79.5618ZM88.9134 167.08C88.6681 167.08 88.4576 166.992 88.282 166.816C88.1063 166.64 88.0185 166.43 88.0185 166.185C88.0185 165.939 88.1063 165.729 88.282 165.553C88.4576 165.378 88.6681 165.29 88.9134 165.29C89.1586 165.29 89.3691 165.378 89.5447 165.553C89.7204 165.729 89.8082 165.939 89.8082 166.185C89.8082 166.347 89.7668 166.496 89.6839 166.632C89.6044 166.768 89.4967 166.877 89.3608 166.96C89.2282 167.04 89.0791 167.08 88.9134 167.08ZM94.8706 167.139C94.2872 167.139 93.7619 167.023 93.2946 166.791C92.8272 166.559 92.4527 166.241 92.171 165.837C91.8893 165.432 91.7351 164.972 91.7086 164.455H92.9018C92.9482 164.915 93.157 165.296 93.5282 165.598C93.9028 165.896 94.3502 166.045 94.8706 166.045C95.2882 166.045 95.6594 165.948 95.9842 165.752C96.3123 165.557 96.5692 165.288 96.7548 164.947C96.9437 164.602 97.0382 164.213 97.0382 163.778C97.0382 163.334 96.9404 162.938 96.7449 162.59C96.5526 162.239 96.2875 161.962 95.9494 161.76C95.6113 161.558 95.2252 161.455 94.791 161.452C94.4795 161.448 94.1596 161.496 93.8315 161.596C93.5034 161.692 93.2333 161.816 93.0211 161.969L91.8677 161.83L92.4842 156.818H97.774V157.912H93.5183L93.1603 160.915H93.22C93.4288 160.749 93.6906 160.612 94.0055 160.502C94.3204 160.393 94.6485 160.338 94.9899 160.338C95.613 160.338 96.1681 160.487 96.6554 160.786C97.1459 161.08 97.5304 161.485 97.8088 161.999C98.0905 162.512 98.2314 163.099 98.2314 163.759C98.2314 164.408 98.0855 164.988 97.7939 165.499C97.5055 166.006 97.1078 166.407 96.6007 166.702C96.0936 166.993 95.5169 167.139 94.8706 167.139Z" fill="#EA5555"/>
<path d="M163 0V300H165V0H163Z" fill="#F3F3F3" mask="url(#path-7-inside-1_1820_17268)"/>
<path d="M207.979 114V112.886L211.425 109.317C211.793 108.929 212.096 108.589 212.335 108.298C212.576 108.003 212.757 107.723 212.876 107.457C212.996 107.192 213.055 106.911 213.055 106.612C213.055 106.274 212.976 105.982 212.817 105.737C212.658 105.489 212.441 105.298 212.165 105.165C211.89 105.03 211.58 104.962 211.236 104.962C210.871 104.962 210.553 105.036 210.281 105.185C210.009 105.335 209.801 105.545 209.655 105.817C209.509 106.089 209.436 106.407 209.436 106.771H207.969C207.969 106.152 208.112 105.61 208.397 105.146C208.682 104.682 209.073 104.322 209.57 104.067C210.067 103.808 210.633 103.679 211.266 103.679C211.905 103.679 212.469 103.807 212.956 104.062C213.446 104.314 213.829 104.658 214.104 105.096C214.379 105.53 214.517 106.021 214.517 106.567C214.517 106.945 214.446 107.315 214.303 107.676C214.164 108.037 213.92 108.44 213.572 108.884C213.224 109.325 212.741 109.86 212.121 110.49L210.097 112.608V112.683H214.681V114H207.979ZM220.11 114.169C219.325 114.166 218.653 113.959 218.097 113.548C217.54 113.137 217.114 112.538 216.819 111.753C216.524 110.967 216.376 110.021 216.376 108.914C216.376 107.81 216.524 106.867 216.819 106.085C217.117 105.303 217.545 104.706 218.102 104.295C218.662 103.884 219.331 103.679 220.11 103.679C220.889 103.679 221.557 103.886 222.114 104.3C222.67 104.711 223.096 105.308 223.391 106.09C223.69 106.869 223.839 107.81 223.839 108.914C223.839 110.024 223.691 110.972 223.396 111.758C223.101 112.54 222.675 113.138 222.119 113.553C221.562 113.964 220.892 114.169 220.11 114.169ZM220.11 112.842C220.799 112.842 221.338 112.505 221.726 111.832C222.117 111.16 222.312 110.187 222.312 108.914C222.312 108.069 222.223 107.355 222.044 106.771C221.868 106.185 221.615 105.741 221.283 105.439C220.955 105.134 220.564 104.982 220.11 104.982C219.424 104.982 218.885 105.32 218.494 105.996C218.103 106.672 217.906 107.645 217.903 108.914C217.903 109.763 217.991 110.48 218.166 111.067C218.345 111.65 218.599 112.093 218.927 112.394C219.255 112.692 219.649 112.842 220.11 112.842ZM225.602 114V112.886L229.048 109.317C229.416 108.929 229.719 108.589 229.958 108.298C230.2 108.003 230.38 107.723 230.499 107.457C230.619 107.192 230.678 106.911 230.678 106.612C230.678 106.274 230.599 105.982 230.44 105.737C230.281 105.489 230.064 105.298 229.789 105.165C229.513 105.03 229.204 104.962 228.859 104.962C228.494 104.962 228.176 105.036 227.904 105.185C227.633 105.335 227.424 105.545 227.278 105.817C227.132 106.089 227.059 106.407 227.059 106.771H225.593C225.593 106.152 225.735 105.61 226.02 105.146C226.305 104.682 226.696 104.322 227.193 104.067C227.691 103.808 228.256 103.679 228.889 103.679C229.528 103.679 230.092 103.807 230.579 104.062C231.07 104.314 231.452 104.658 231.727 105.096C232.003 105.53 232.14 106.021 232.14 106.567C232.14 106.945 232.069 107.315 231.926 107.676C231.787 108.037 231.544 108.44 231.195 108.884C230.847 109.325 230.364 109.86 229.744 110.49L227.72 112.608V112.683H232.304V114H225.602ZM237.733 114.169C236.948 114.166 236.276 113.959 235.72 113.548C235.163 113.137 234.737 112.538 234.442 111.753C234.147 110.967 233.999 110.021 233.999 108.914C233.999 107.81 234.147 106.867 234.442 106.085C234.74 105.303 235.168 104.706 235.725 104.295C236.285 103.884 236.954 103.679 237.733 103.679C238.512 103.679 239.18 103.886 239.737 104.3C240.294 104.711 240.719 105.308 241.014 106.09C241.313 106.869 241.462 107.81 241.462 108.914C241.462 110.024 241.314 110.972 241.019 111.758C240.724 112.54 240.298 113.138 239.742 113.553C239.185 113.964 238.515 114.169 237.733 114.169ZM237.733 112.842C238.423 112.842 238.961 112.505 239.349 111.832C239.74 111.16 239.936 110.187 239.936 108.914C239.936 108.069 239.846 107.355 239.667 106.771C239.491 106.185 239.238 105.741 238.906 105.439C238.578 105.134 238.187 104.982 237.733 104.982C237.047 104.982 236.508 105.32 236.117 105.996C235.726 106.672 235.529 107.645 235.526 108.914C235.526 109.763 235.614 110.48 235.789 111.067C235.968 111.65 236.222 112.093 236.55 112.394C236.878 112.692 237.272 112.842 237.733 112.842Z" fill="#808080"/>
<line x1="253" y1="111.5" x2="399" y2="111.5" stroke="#F3F3F3"/>
<path d="M470.421 104.273H471.734V110.46C471.734 111.02 471.623 111.499 471.401 111.896C471.183 112.294 470.874 112.598 470.477 112.808C470.079 113.016 469.613 113.119 469.079 113.119C468.587 113.119 468.146 113.03 467.754 112.851C467.364 112.672 467.056 112.412 466.829 112.071C466.604 111.727 466.492 111.31 466.492 110.818H467.8C467.8 111.06 467.856 111.268 467.967 111.445C468.08 111.621 468.235 111.759 468.431 111.858C468.63 111.955 468.857 112.003 469.113 112.003C469.391 112.003 469.627 111.945 469.82 111.828C470.016 111.709 470.165 111.534 470.268 111.304C470.37 111.074 470.421 110.793 470.421 110.46V104.273ZM477.694 110.286V106.455H478.973V113H477.72V111.866H477.652C477.501 112.216 477.26 112.507 476.927 112.74C476.598 112.97 476.187 113.085 475.696 113.085C475.275 113.085 474.903 112.993 474.579 112.808C474.258 112.621 474.005 112.344 473.821 111.977C473.639 111.611 473.548 111.158 473.548 110.618V106.455H474.822V110.464C474.822 110.911 474.946 111.266 475.193 111.53C475.44 111.794 475.761 111.926 476.156 111.926C476.395 111.926 476.632 111.866 476.868 111.747C477.106 111.628 477.304 111.447 477.46 111.206C477.619 110.964 477.697 110.658 477.694 110.286ZM481.959 109.114V113H480.685V106.455H481.908V107.52H481.989C482.139 107.173 482.375 106.895 482.696 106.685C483.02 106.474 483.428 106.369 483.919 106.369C484.365 106.369 484.756 106.463 485.091 106.651C485.426 106.835 485.686 107.111 485.871 107.477C486.055 107.844 486.148 108.297 486.148 108.837V113H484.874V108.99C484.874 108.516 484.75 108.145 484.503 107.878C484.256 107.608 483.916 107.473 483.484 107.473C483.189 107.473 482.926 107.537 482.696 107.665C482.469 107.793 482.288 107.98 482.155 108.227C482.024 108.472 481.959 108.767 481.959 109.114Z" fill="#808080"/>
<path d="M490.95 108.636C490.95 107.562 491.089 106.575 491.368 105.675C491.649 104.771 492.05 103.94 492.57 103.182H493.456C493.251 103.463 493.06 103.81 492.881 104.222C492.705 104.631 492.55 105.081 492.416 105.572C492.283 106.061 492.178 106.567 492.101 107.089C492.027 107.612 491.99 108.128 491.99 108.636C491.99 109.312 492.055 109.999 492.186 110.695C492.317 111.391 492.493 112.037 492.714 112.634C492.936 113.23 493.183 113.716 493.456 114.091H492.57C492.05 113.332 491.649 112.503 491.368 111.602C491.089 110.699 490.95 109.71 490.95 108.636ZM497.65 113.119C497.15 113.119 496.7 113.02 496.299 112.821C495.899 112.622 495.578 112.349 495.336 112.003C495.095 111.656 494.963 111.261 494.94 110.818H495.963C496.002 111.213 496.181 111.54 496.5 111.798C496.821 112.054 497.204 112.182 497.65 112.182C498.008 112.182 498.326 112.098 498.605 111.93C498.886 111.763 499.106 111.533 499.265 111.24C499.427 110.945 499.508 110.611 499.508 110.239C499.508 109.858 499.424 109.518 499.257 109.22C499.092 108.919 498.865 108.682 498.575 108.509C498.285 108.335 497.954 108.247 497.582 108.244C497.315 108.241 497.041 108.283 496.76 108.368C496.478 108.45 496.247 108.557 496.065 108.688L495.076 108.568L495.605 104.273H500.139V105.21H496.491L496.184 107.784H496.235C496.414 107.642 496.639 107.524 496.909 107.43C497.179 107.337 497.46 107.29 497.752 107.29C498.287 107.29 498.762 107.418 499.18 107.673C499.6 107.926 499.93 108.273 500.169 108.713C500.41 109.153 500.531 109.656 500.531 110.222C500.531 110.778 500.406 111.276 500.156 111.713C499.909 112.148 499.568 112.491 499.133 112.744C498.699 112.994 498.204 113.119 497.65 113.119ZM505.121 113.119C504.763 113.114 504.406 113.045 504.048 112.915C503.69 112.784 503.363 112.564 503.067 112.254C502.772 111.942 502.535 111.52 502.356 110.989C502.177 110.455 502.087 109.784 502.087 108.977C502.087 108.205 502.16 107.52 502.305 106.923C502.45 106.324 502.66 105.82 502.935 105.411C503.211 104.999 503.543 104.686 503.933 104.473C504.325 104.26 504.766 104.153 505.258 104.153C505.746 104.153 506.181 104.251 506.562 104.447C506.945 104.641 507.258 104.911 507.499 105.257C507.741 105.604 507.897 106.003 507.968 106.455H506.928C506.832 106.062 506.644 105.737 506.366 105.479C506.087 105.22 505.718 105.091 505.258 105.091C504.582 105.091 504.049 105.385 503.66 105.973C503.273 106.561 503.079 107.386 503.076 108.449H503.144C503.303 108.207 503.492 108.001 503.711 107.831C503.933 107.658 504.177 107.524 504.444 107.43C504.711 107.337 504.994 107.29 505.292 107.29C505.792 107.29 506.249 107.415 506.664 107.665C507.079 107.912 507.411 108.254 507.661 108.692C507.911 109.126 508.036 109.625 508.036 110.188C508.036 110.727 507.915 111.222 507.674 111.67C507.433 112.116 507.093 112.472 506.656 112.736C506.221 112.997 505.71 113.125 505.121 113.119ZM505.121 112.182C505.479 112.182 505.8 112.092 506.085 111.913C506.371 111.734 506.597 111.494 506.762 111.193C506.93 110.892 507.013 110.557 507.013 110.188C507.013 109.827 506.933 109.499 506.771 109.203C506.612 108.905 506.391 108.668 506.11 108.491C505.832 108.315 505.513 108.227 505.156 108.227C504.886 108.227 504.634 108.281 504.401 108.389C504.168 108.494 503.964 108.639 503.788 108.824C503.614 109.009 503.478 109.22 503.379 109.459C503.279 109.695 503.229 109.943 503.229 110.205C503.229 110.551 503.31 110.875 503.472 111.176C503.637 111.477 503.862 111.72 504.146 111.905C504.433 112.089 504.758 112.182 505.121 112.182ZM512.78 104.273V113H511.723V105.381H511.672L509.542 106.795V105.722L511.723 104.273H512.78ZM515.29 113V112.233L518.171 109.08C518.509 108.71 518.787 108.389 519.006 108.116C519.225 107.841 519.387 107.582 519.492 107.341C519.6 107.097 519.654 106.841 519.654 106.574C519.654 106.267 519.58 106.001 519.432 105.777C519.287 105.553 519.088 105.379 518.836 105.257C518.583 105.135 518.299 105.074 517.983 105.074C517.648 105.074 517.355 105.143 517.105 105.283C516.858 105.419 516.667 105.611 516.53 105.858C516.397 106.105 516.33 106.395 516.33 106.727H515.324C515.324 106.216 515.442 105.767 515.678 105.381C515.914 104.994 516.235 104.693 516.641 104.477C517.05 104.261 517.509 104.153 518.017 104.153C518.529 104.153 518.982 104.261 519.377 104.477C519.772 104.693 520.081 104.984 520.306 105.351C520.53 105.717 520.642 106.125 520.642 106.574C520.642 106.895 520.584 107.209 520.468 107.516C520.354 107.82 520.155 108.159 519.871 108.534C519.59 108.906 519.199 109.361 518.699 109.898L516.739 111.994V112.062H520.796V113H515.29ZM524.721 108.636C524.721 109.71 524.58 110.699 524.299 111.602C524.02 112.503 523.621 113.332 523.101 114.091H522.215C522.419 113.81 522.61 113.463 522.786 113.051C522.965 112.642 523.121 112.193 523.255 111.705C523.388 111.213 523.492 110.706 523.566 110.183C523.642 109.658 523.681 109.142 523.681 108.636C523.681 107.96 523.615 107.274 523.485 106.578C523.354 105.882 523.178 105.236 522.956 104.639C522.735 104.043 522.488 103.557 522.215 103.182H523.101C523.621 103.94 524.02 104.771 524.299 105.675C524.58 106.575 524.721 107.562 524.721 108.636Z" fill="#808080"/>
<path d="M405.881 113V105.727H408.423C408.93 105.727 409.348 105.815 409.677 105.99C410.006 106.163 410.251 106.396 410.412 106.69C410.573 106.981 410.653 107.304 410.653 107.659C410.653 107.972 410.598 108.23 410.487 108.433C410.378 108.637 410.233 108.798 410.053 108.916C409.876 109.035 409.683 109.122 409.474 109.179V109.25C409.697 109.264 409.921 109.342 410.146 109.484C410.371 109.626 410.559 109.83 410.71 110.095C410.862 110.36 410.938 110.685 410.938 111.068C410.938 111.433 410.855 111.761 410.689 112.052C410.523 112.343 410.262 112.574 409.904 112.744C409.547 112.915 409.081 113 408.509 113H405.881ZM406.761 112.219H408.509C409.084 112.219 409.492 112.107 409.734 111.885C409.978 111.66 410.099 111.388 410.099 111.068C410.099 110.822 410.037 110.595 409.911 110.386C409.786 110.176 409.607 110.008 409.375 109.882C409.143 109.754 408.868 109.69 408.551 109.69H406.761V112.219ZM406.761 108.923H408.395C408.66 108.923 408.899 108.871 409.112 108.767C409.328 108.663 409.498 108.516 409.624 108.327C409.751 108.137 409.815 107.915 409.815 107.659C409.815 107.339 409.704 107.068 409.482 106.846C409.259 106.621 408.906 106.509 408.423 106.509H406.761V108.923ZM414.558 113.114C414.032 113.114 413.579 112.998 413.198 112.766C412.819 112.531 412.527 112.205 412.321 111.786C412.117 111.364 412.015 110.874 412.015 110.315C412.015 109.757 412.117 109.264 412.321 108.838C412.527 108.41 412.813 108.076 413.18 107.837C413.549 107.595 413.98 107.474 414.473 107.474C414.757 107.474 415.037 107.522 415.314 107.616C415.591 107.711 415.843 107.865 416.071 108.078C416.298 108.289 416.479 108.568 416.614 108.916C416.749 109.264 416.816 109.693 416.816 110.202V110.557H412.612V109.832H415.964C415.964 109.525 415.903 109.25 415.779 109.009C415.659 108.767 415.486 108.576 415.261 108.437C415.038 108.297 414.776 108.227 414.473 108.227C414.139 108.227 413.85 108.31 413.606 108.476C413.365 108.639 413.179 108.852 413.049 109.115C412.918 109.378 412.853 109.66 412.853 109.96V110.443C412.853 110.855 412.924 111.204 413.066 111.491C413.211 111.775 413.411 111.991 413.667 112.141C413.922 112.287 414.219 112.361 414.558 112.361C414.778 112.361 414.977 112.33 415.154 112.268C415.334 112.205 415.489 112.11 415.62 111.984C415.75 111.857 415.85 111.698 415.922 111.509L416.731 111.736C416.646 112.01 416.503 112.252 416.301 112.46C416.1 112.666 415.852 112.827 415.556 112.943C415.26 113.057 414.927 113.114 414.558 113.114ZM421.955 108.767L421.202 108.98C421.155 108.855 421.085 108.733 420.993 108.614C420.903 108.494 420.779 108.394 420.623 108.316C420.467 108.238 420.267 108.199 420.023 108.199C419.689 108.199 419.411 108.276 419.189 108.43C418.968 108.581 418.858 108.774 418.858 109.009C418.858 109.217 418.934 109.381 419.086 109.502C419.237 109.623 419.474 109.723 419.796 109.804L420.605 110.003C421.093 110.121 421.457 110.302 421.696 110.546C421.935 110.788 422.054 111.099 422.054 111.48C422.054 111.793 421.964 112.072 421.784 112.318C421.607 112.564 421.358 112.759 421.039 112.901C420.719 113.043 420.347 113.114 419.924 113.114C419.367 113.114 418.907 112.993 418.542 112.751C418.178 112.51 417.947 112.157 417.85 111.693L418.645 111.494C418.721 111.788 418.864 112.008 419.075 112.155C419.288 112.302 419.566 112.375 419.909 112.375C420.3 112.375 420.61 112.292 420.84 112.126C421.072 111.958 421.188 111.757 421.188 111.523C421.188 111.333 421.122 111.175 420.989 111.047C420.856 110.917 420.653 110.82 420.378 110.756L419.469 110.543C418.97 110.424 418.603 110.241 418.368 109.992C418.136 109.741 418.02 109.428 418.02 109.051C418.02 108.743 418.107 108.471 418.279 108.234C418.455 107.998 418.693 107.812 418.993 107.677C419.296 107.542 419.64 107.474 420.023 107.474C420.563 107.474 420.987 107.593 421.294 107.83C421.605 108.066 421.825 108.379 421.955 108.767ZM425.688 107.545V108.256H422.861V107.545H425.688ZM423.685 106.239H424.523V111.438C424.523 111.674 424.558 111.852 424.626 111.97C424.697 112.086 424.787 112.164 424.896 112.205C425.007 112.242 425.125 112.261 425.248 112.261C425.34 112.261 425.416 112.257 425.475 112.247C425.534 112.235 425.581 112.226 425.617 112.219L425.787 112.972C425.731 112.993 425.651 113.014 425.55 113.036C425.448 113.059 425.319 113.071 425.162 113.071C424.926 113.071 424.694 113.02 424.466 112.918C424.242 112.817 424.055 112.661 423.905 112.453C423.759 112.245 423.685 111.982 423.685 111.665V106.239ZM429.875 105.727H430.926L433.398 111.764H433.483L435.954 105.727H437.006V113H436.182V107.474H436.111L433.838 113H433.042L430.77 107.474H430.699V113H429.875V105.727ZM440.874 113.114C440.381 113.114 439.949 112.996 439.577 112.762C439.208 112.528 438.919 112.2 438.711 111.778C438.505 111.357 438.402 110.865 438.402 110.301C438.402 109.733 438.505 109.237 438.711 108.813C438.919 108.389 439.208 108.06 439.577 107.826C439.949 107.592 440.381 107.474 440.874 107.474C441.366 107.474 441.797 107.592 442.166 107.826C442.538 108.06 442.827 108.389 443.033 108.813C443.241 109.237 443.345 109.733 443.345 110.301C443.345 110.865 443.241 111.357 443.033 111.778C442.827 112.2 442.538 112.528 442.166 112.762C441.797 112.996 441.366 113.114 440.874 113.114ZM440.874 112.361C441.248 112.361 441.555 112.265 441.797 112.073C442.038 111.881 442.217 111.629 442.333 111.317C442.449 111.004 442.507 110.666 442.507 110.301C442.507 109.937 442.449 109.597 442.333 109.282C442.217 108.967 442.038 108.713 441.797 108.518C441.555 108.324 441.248 108.227 440.874 108.227C440.5 108.227 440.192 108.324 439.95 108.518C439.709 108.713 439.53 108.967 439.414 109.282C439.298 109.597 439.24 109.937 439.24 110.301C439.24 110.666 439.298 111.004 439.414 111.317C439.53 111.629 439.709 111.881 439.95 112.073C440.192 112.265 440.5 112.361 440.874 112.361ZM445.463 109.719V113H444.624V107.545H445.434V108.398H445.505C445.633 108.121 445.827 107.898 446.088 107.73C446.348 107.56 446.684 107.474 447.096 107.474C447.465 107.474 447.789 107.55 448.066 107.702C448.343 107.851 448.558 108.078 448.712 108.384C448.866 108.687 448.943 109.07 448.943 109.534V113H448.105V109.591C448.105 109.162 447.993 108.829 447.771 108.589C447.548 108.348 447.243 108.227 446.855 108.227C446.587 108.227 446.348 108.285 446.137 108.401C445.929 108.517 445.764 108.687 445.644 108.909C445.523 109.132 445.463 109.402 445.463 109.719ZM452.846 107.545V108.256H450.02V107.545H452.846ZM450.843 106.239H451.681V111.438C451.681 111.674 451.716 111.852 451.784 111.97C451.855 112.086 451.945 112.164 452.054 112.205C452.166 112.242 452.283 112.261 452.406 112.261C452.498 112.261 452.574 112.257 452.633 112.247C452.692 112.235 452.74 112.226 452.775 112.219L452.946 112.972C452.889 112.993 452.81 113.014 452.708 113.036C452.606 113.059 452.477 113.071 452.321 113.071C452.084 113.071 451.852 113.02 451.625 112.918C451.4 112.817 451.213 112.661 451.064 112.453C450.917 112.245 450.843 111.982 450.843 111.665V106.239ZM455.062 109.719V113H454.224V105.727H455.062V108.398H455.133C455.261 108.116 455.453 107.892 455.708 107.727C455.967 107.558 456.31 107.474 456.738 107.474C457.11 107.474 457.435 107.549 457.715 107.698C457.994 107.845 458.211 108.071 458.365 108.376C458.521 108.679 458.599 109.065 458.599 109.534V113H457.761V109.591C457.761 109.158 457.649 108.823 457.424 108.586C457.201 108.347 456.892 108.227 456.497 108.227C456.222 108.227 455.976 108.285 455.758 108.401C455.543 108.517 455.372 108.687 455.247 108.909C455.124 109.132 455.062 109.402 455.062 109.719Z" fill="#808080"/>
<path d="M207 133.089C207 130.831 208.831 129 211.089 129H302.911C305.169 129 307 130.831 307 133.089V159.911C307 162.169 305.169 164 302.911 164H211.089C208.831 164 207 162.169 207 159.911V133.089Z" fill="#F1FAF5"/>
<path d="M250.451 140.818H251.684V148.097C251.684 148.746 251.565 149.298 251.326 149.752C251.087 150.206 250.751 150.551 250.317 150.786C249.883 151.022 249.371 151.139 248.781 151.139C248.224 151.139 247.728 151.038 247.294 150.836C246.86 150.63 246.518 150.339 246.27 149.961C246.021 149.583 245.897 149.134 245.897 148.614H247.11C247.11 148.902 247.181 149.154 247.324 149.369C247.47 149.581 247.669 149.747 247.92 149.866C248.172 149.986 248.459 150.045 248.781 150.045C249.135 150.045 249.437 149.971 249.685 149.822C249.934 149.673 250.123 149.454 250.252 149.165C250.385 148.874 250.451 148.518 250.451 148.097V140.818ZM256.243 151.179C255.759 151.179 255.32 151.088 254.925 150.906C254.531 150.72 254.218 150.453 253.986 150.105C253.754 149.754 253.638 149.33 253.638 148.832C253.638 148.395 253.724 148.04 253.896 147.768C254.069 147.493 254.299 147.278 254.587 147.122C254.876 146.966 255.194 146.85 255.542 146.774C255.893 146.695 256.246 146.632 256.601 146.585C257.065 146.526 257.441 146.481 257.729 146.451C258.021 146.418 258.233 146.363 258.366 146.287C258.502 146.211 258.57 146.078 258.57 145.889V145.849C258.57 145.359 258.435 144.978 258.167 144.706C257.902 144.434 257.499 144.298 256.959 144.298C256.399 144.298 255.96 144.421 255.641 144.666C255.323 144.911 255.099 145.173 254.97 145.452L253.857 145.054C254.055 144.59 254.321 144.229 254.652 143.97C254.987 143.708 255.351 143.526 255.746 143.423C256.143 143.317 256.535 143.264 256.919 143.264C257.164 143.264 257.446 143.294 257.764 143.354C258.086 143.41 258.396 143.528 258.694 143.707C258.996 143.886 259.246 144.156 259.445 144.517C259.643 144.878 259.743 145.362 259.743 145.969V151H258.57V149.966H258.51C258.43 150.132 258.298 150.309 258.112 150.498C257.927 150.687 257.68 150.848 257.371 150.98C257.063 151.113 256.687 151.179 256.243 151.179ZM256.422 150.125C256.886 150.125 257.277 150.034 257.595 149.852C257.917 149.669 258.159 149.434 258.321 149.146C258.487 148.857 258.57 148.554 258.57 148.236V147.162C258.52 147.222 258.411 147.276 258.241 147.326C258.076 147.372 257.884 147.414 257.665 147.45C257.449 147.483 257.239 147.513 257.033 147.54C256.831 147.563 256.667 147.583 256.541 147.599C256.236 147.639 255.951 147.704 255.686 147.793C255.424 147.879 255.212 148.01 255.05 148.186C254.891 148.358 254.811 148.594 254.811 148.892C254.811 149.3 254.962 149.608 255.263 149.817C255.568 150.022 255.955 150.125 256.422 150.125ZM263.058 146.406V151H261.884V143.364H263.018V144.557H263.117C263.296 144.169 263.568 143.857 263.933 143.622C264.297 143.384 264.768 143.264 265.345 143.264C265.862 143.264 266.314 143.37 266.702 143.582C267.09 143.791 267.391 144.109 267.607 144.537C267.822 144.961 267.93 145.498 267.93 146.148V151H266.757V146.227C266.757 145.627 266.601 145.16 266.289 144.825C265.978 144.487 265.55 144.318 265.007 144.318C264.632 144.318 264.297 144.399 264.002 144.562C263.711 144.724 263.48 144.961 263.311 145.273C263.142 145.584 263.058 145.962 263.058 146.406Z" fill="#808080"/>
<path d="M315 133.089C315 130.831 316.831 129 319.089 129H410.911C413.169 129 415 130.831 415 133.089V159.911C415 162.169 413.169 164 410.911 164H319.089C316.831 164 315 162.169 315 159.911V133.089Z" fill="#FDEEEE"/>
<path d="M354.233 151V140.818H360.338V141.912H355.466V145.352H359.881V146.446H355.466V151H354.233ZM364.932 151.159C364.196 151.159 363.561 150.997 363.028 150.672C362.497 150.344 362.088 149.886 361.8 149.3C361.515 148.71 361.372 148.024 361.372 147.241C361.372 146.459 361.515 145.77 361.8 145.173C362.088 144.573 362.489 144.106 363.003 143.771C363.52 143.433 364.123 143.264 364.812 143.264C365.21 143.264 365.603 143.33 365.991 143.463C366.379 143.596 366.732 143.811 367.05 144.109C367.368 144.404 367.621 144.795 367.81 145.283C367.999 145.77 368.094 146.37 368.094 147.082V147.58H362.207V146.565H366.901C366.901 146.134 366.814 145.75 366.642 145.412C366.473 145.074 366.231 144.807 365.916 144.612C365.605 144.416 365.237 144.318 364.812 144.318C364.345 144.318 363.941 144.434 363.599 144.666C363.261 144.895 363.001 145.193 362.819 145.561C362.637 145.929 362.545 146.323 362.545 146.744V147.42C362.545 147.997 362.645 148.486 362.844 148.887C363.046 149.285 363.326 149.588 363.684 149.797C364.042 150.002 364.458 150.105 364.932 150.105C365.24 150.105 365.518 150.062 365.767 149.976C366.019 149.886 366.236 149.754 366.418 149.578C366.601 149.399 366.741 149.177 366.841 148.912L367.974 149.23C367.855 149.615 367.655 149.953 367.373 150.244C367.091 150.533 366.743 150.758 366.329 150.92C365.915 151.08 365.449 151.159 364.932 151.159ZM370.038 151V140.818H371.211V144.577H371.31C371.397 144.444 371.516 144.275 371.668 144.07C371.824 143.861 372.046 143.675 372.335 143.513C372.626 143.347 373.021 143.264 373.518 143.264C374.161 143.264 374.728 143.425 375.218 143.746C375.709 144.068 376.091 144.524 376.366 145.114C376.642 145.704 376.779 146.4 376.779 147.202C376.779 148.01 376.642 148.711 376.366 149.305C376.091 149.895 375.71 150.352 375.223 150.677C374.736 150.998 374.174 151.159 373.538 151.159C373.047 151.159 372.654 151.078 372.359 150.915C372.064 150.75 371.837 150.562 371.678 150.354C371.519 150.142 371.397 149.966 371.31 149.827H371.171V151H370.038ZM371.191 147.182C371.191 147.759 371.276 148.267 371.445 148.708C371.614 149.146 371.861 149.489 372.185 149.737C372.51 149.982 372.908 150.105 373.379 150.105C373.869 150.105 374.278 149.976 374.607 149.717C374.938 149.455 375.187 149.104 375.352 148.663C375.521 148.219 375.606 147.725 375.606 147.182C375.606 146.645 375.523 146.161 375.357 145.73C375.195 145.296 374.948 144.953 374.616 144.701C374.288 144.446 373.876 144.318 373.379 144.318C372.901 144.318 372.5 144.439 372.175 144.681C371.851 144.92 371.605 145.254 371.44 145.685C371.274 146.113 371.191 146.612 371.191 147.182Z" fill="#808080"/>
<path d="M423 133.089C423 130.831 424.831 129 427.089 129H518.911C521.169 129 523 130.831 523 133.089V159.911C523 162.169 521.169 164 518.911 164H427.089C424.831 164 423 162.169 423 159.911V133.089Z" fill="#F1FAF5"/>
<path d="M461.68 140.818H463.152L466.612 149.27H466.731L470.192 140.818H471.663V151H470.51V143.264H470.41L467.229 151H466.115L462.933 143.264H462.834V151H461.68V140.818ZM476.223 151.179C475.739 151.179 475.3 151.088 474.906 150.906C474.511 150.72 474.198 150.453 473.966 150.105C473.734 149.754 473.618 149.33 473.618 148.832C473.618 148.395 473.704 148.04 473.877 147.768C474.049 147.493 474.279 147.278 474.568 147.122C474.856 146.966 475.174 146.85 475.522 146.774C475.874 146.695 476.227 146.632 476.581 146.585C477.045 146.526 477.422 146.481 477.71 146.451C478.002 146.418 478.214 146.363 478.346 146.287C478.482 146.211 478.55 146.078 478.55 145.889V145.849C478.55 145.359 478.416 144.978 478.147 144.706C477.882 144.434 477.48 144.298 476.939 144.298C476.379 144.298 475.94 144.421 475.622 144.666C475.304 144.911 475.08 145.173 474.951 145.452L473.837 145.054C474.036 144.59 474.301 144.229 474.632 143.97C474.967 143.708 475.332 143.526 475.726 143.423C476.124 143.317 476.515 143.264 476.9 143.264C477.145 143.264 477.426 143.294 477.745 143.354C478.066 143.41 478.376 143.528 478.674 143.707C478.976 143.886 479.226 144.156 479.425 144.517C479.624 144.878 479.723 145.362 479.723 145.969V151H478.55V149.966H478.49C478.411 150.132 478.278 150.309 478.093 150.498C477.907 150.687 477.66 150.848 477.352 150.98C477.044 151.113 476.667 151.179 476.223 151.179ZM476.402 150.125C476.866 150.125 477.257 150.034 477.576 149.852C477.897 149.669 478.139 149.434 478.301 149.146C478.467 148.857 478.55 148.554 478.55 148.236V147.162C478.5 147.222 478.391 147.276 478.222 147.326C478.056 147.372 477.864 147.414 477.645 147.45C477.43 147.483 477.219 147.513 477.014 147.54C476.812 147.563 476.648 147.583 476.522 147.599C476.217 147.639 475.932 147.704 475.667 147.793C475.405 147.879 475.193 148.01 475.03 148.186C474.871 148.358 474.792 148.594 474.792 148.892C474.792 149.3 474.942 149.608 475.244 149.817C475.549 150.022 475.935 150.125 476.402 150.125ZM481.865 151V143.364H482.998V144.517H483.078C483.217 144.139 483.469 143.833 483.834 143.597C484.198 143.362 484.609 143.244 485.067 143.244C485.153 143.244 485.26 143.246 485.39 143.249C485.519 143.253 485.617 143.258 485.683 143.264V144.457C485.643 144.447 485.552 144.433 485.41 144.413C485.27 144.389 485.123 144.378 484.967 144.378C484.596 144.378 484.265 144.456 483.973 144.612C483.684 144.764 483.456 144.976 483.287 145.248C483.121 145.516 483.038 145.823 483.038 146.168V151H481.865Z" fill="#808080"/>
<path d="M207 176.089C207 173.831 208.831 172 211.089 172H302.911C305.169 172 307 173.831 307 176.089V202.911C307 205.169 305.169 207 302.911 207H211.089C208.831 207 207 205.169 207 202.911V176.089Z" fill="#FDEEEE"/>
<path d="M247.449 194H246.157L249.895 183.818H251.168L254.907 194H253.614L250.572 185.429H250.492L247.449 194ZM247.927 190.023H253.137V191.116H247.927V190.023ZM256.334 196.864V186.364H257.467V187.577H257.606C257.693 187.444 257.812 187.275 257.964 187.07C258.12 186.861 258.342 186.675 258.631 186.513C258.922 186.347 259.317 186.264 259.814 186.264C260.457 186.264 261.023 186.425 261.514 186.746C262.005 187.068 262.387 187.524 262.662 188.114C262.938 188.704 263.075 189.4 263.075 190.202C263.075 191.01 262.938 191.711 262.662 192.305C262.387 192.895 262.006 193.352 261.519 193.677C261.032 193.998 260.47 194.159 259.834 194.159C259.343 194.159 258.95 194.078 258.655 193.915C258.36 193.75 258.133 193.562 257.974 193.354C257.815 193.142 257.693 192.966 257.606 192.827H257.507V196.864H256.334ZM257.487 190.182C257.487 190.759 257.572 191.267 257.741 191.708C257.91 192.146 258.157 192.489 258.481 192.737C258.806 192.982 259.204 193.105 259.675 193.105C260.165 193.105 260.574 192.976 260.903 192.717C261.234 192.455 261.483 192.104 261.648 191.663C261.817 191.219 261.902 190.725 261.902 190.182C261.902 189.645 261.819 189.161 261.653 188.73C261.491 188.296 261.244 187.953 260.912 187.701C260.584 187.446 260.172 187.318 259.675 187.318C259.197 187.318 258.796 187.439 258.471 187.681C258.147 187.92 257.901 188.254 257.736 188.685C257.57 189.113 257.487 189.612 257.487 190.182ZM264.865 194V186.364H265.998V187.517H266.078C266.217 187.139 266.469 186.833 266.834 186.597C267.198 186.362 267.609 186.244 268.067 186.244C268.153 186.244 268.26 186.246 268.39 186.249C268.519 186.253 268.617 186.258 268.683 186.264V187.457C268.643 187.447 268.552 187.433 268.41 187.413C268.27 187.389 268.123 187.378 267.967 187.378C267.596 187.378 267.265 187.456 266.973 187.612C266.684 187.764 266.456 187.976 266.287 188.248C266.121 188.516 266.038 188.823 266.038 189.168V194H264.865Z" fill="#808080"/>
<path d="M315 176.089C315 173.831 316.831 172 319.089 172H410.911C413.169 172 415 173.831 415 176.089V202.911C415 205.169 413.169 207 410.911 207H319.089C316.831 207 315 205.169 315 202.911V176.089Z" fill="#F1FAF5"/>
<path d="M352.37 183.818H353.841L357.301 192.27H357.421L360.881 183.818H362.353V194H361.199V186.264H361.1L357.918 194H356.804L353.623 186.264H353.523V194H352.37V183.818ZM366.913 194.179C366.429 194.179 365.99 194.088 365.595 193.906C365.201 193.72 364.888 193.453 364.656 193.105C364.424 192.754 364.308 192.33 364.308 191.832C364.308 191.395 364.394 191.04 364.566 190.768C364.739 190.493 364.969 190.278 365.257 190.122C365.546 189.966 365.864 189.85 366.212 189.774C366.563 189.695 366.916 189.632 367.271 189.585C367.735 189.526 368.111 189.481 368.399 189.451C368.691 189.418 368.903 189.363 369.036 189.287C369.172 189.211 369.24 189.078 369.24 188.889V188.849C369.24 188.359 369.105 187.978 368.837 187.706C368.572 187.434 368.169 187.298 367.629 187.298C367.069 187.298 366.629 187.421 366.311 187.666C365.993 187.911 365.769 188.173 365.64 188.452L364.526 188.054C364.725 187.59 364.99 187.229 365.322 186.97C365.657 186.708 366.021 186.526 366.416 186.423C366.813 186.317 367.204 186.264 367.589 186.264C367.834 186.264 368.116 186.294 368.434 186.354C368.756 186.41 369.066 186.528 369.364 186.707C369.665 186.886 369.916 187.156 370.115 187.517C370.313 187.878 370.413 188.362 370.413 188.969V194H369.24V192.966H369.18C369.1 193.132 368.968 193.309 368.782 193.498C368.597 193.687 368.35 193.848 368.041 193.98C367.733 194.113 367.357 194.179 366.913 194.179ZM367.092 193.125C367.556 193.125 367.947 193.034 368.265 192.852C368.587 192.669 368.829 192.434 368.991 192.146C369.157 191.857 369.24 191.554 369.24 191.236V190.162C369.19 190.222 369.08 190.276 368.911 190.326C368.746 190.372 368.553 190.414 368.335 190.45C368.119 190.483 367.909 190.513 367.703 190.54C367.501 190.563 367.337 190.583 367.211 190.599C366.906 190.639 366.621 190.704 366.356 190.793C366.094 190.879 365.882 191.01 365.72 191.186C365.561 191.358 365.481 191.594 365.481 191.892C365.481 192.3 365.632 192.608 365.933 192.817C366.238 193.022 366.624 193.125 367.092 193.125ZM373.037 196.864C372.838 196.864 372.66 196.847 372.505 196.814C372.349 196.784 372.241 196.754 372.181 196.724L372.48 195.69C372.765 195.763 373.017 195.79 373.235 195.77C373.454 195.75 373.648 195.652 373.817 195.477C373.989 195.304 374.147 195.024 374.289 194.636L374.508 194.04L371.684 186.364H372.957L375.065 192.449H375.145L377.252 186.364H378.525L375.284 195.114C375.138 195.508 374.957 195.835 374.742 196.093C374.526 196.355 374.276 196.549 373.991 196.675C373.709 196.801 373.391 196.864 373.037 196.864Z" fill="#808080"/>
<path d="M423 176.089C423 173.831 424.831 172 427.089 172H518.911C521.169 172 523 173.831 523 176.089V202.911C523 205.169 521.169 207 518.911 207H427.089C424.831 207 423 205.169 423 202.911V176.089Z" fill="#F1FAF5"/>
<path d="M466.205 183.818H467.438V191.097C467.438 191.746 467.319 192.298 467.08 192.752C466.841 193.206 466.505 193.551 466.071 193.786C465.636 194.022 465.124 194.139 464.534 194.139C463.978 194.139 463.482 194.038 463.048 193.836C462.614 193.63 462.272 193.339 462.024 192.961C461.775 192.583 461.651 192.134 461.651 191.614H462.864C462.864 191.902 462.935 192.154 463.078 192.369C463.224 192.581 463.422 192.747 463.674 192.866C463.926 192.986 464.213 193.045 464.534 193.045C464.889 193.045 465.191 192.971 465.439 192.822C465.688 192.673 465.877 192.454 466.006 192.165C466.139 191.874 466.205 191.518 466.205 191.097V183.818ZM474.562 190.878V186.364H475.735V194H474.562V192.707H474.483C474.304 193.095 474.025 193.425 473.647 193.697C473.27 193.965 472.792 194.099 472.216 194.099C471.738 194.099 471.314 193.995 470.943 193.786C470.572 193.574 470.28 193.256 470.068 192.832C469.856 192.404 469.75 191.866 469.75 191.216V186.364H470.923V191.136C470.923 191.693 471.079 192.137 471.39 192.469C471.705 192.8 472.106 192.966 472.593 192.966C472.885 192.966 473.182 192.891 473.483 192.742C473.788 192.593 474.043 192.364 474.249 192.056C474.458 191.748 474.562 191.355 474.562 190.878ZM479.058 189.406V194H477.884V186.364H479.018V187.557H479.117C479.296 187.169 479.568 186.857 479.933 186.622C480.297 186.384 480.768 186.264 481.345 186.264C481.862 186.264 482.314 186.37 482.702 186.582C483.09 186.791 483.391 187.109 483.607 187.537C483.822 187.961 483.93 188.498 483.93 189.148V194H482.757V189.227C482.757 188.627 482.601 188.16 482.289 187.825C481.978 187.487 481.55 187.318 481.007 187.318C480.632 187.318 480.297 187.399 480.002 187.562C479.711 187.724 479.48 187.961 479.311 188.273C479.142 188.584 479.058 188.962 479.058 189.406Z" fill="#808080"/>
<path d="M207 219.089C207 216.831 208.831 215 211.089 215H302.911C305.169 215 307 216.831 307 219.089V245.911C307 248.169 305.169 250 302.911 250H211.089C208.831 250 207 248.169 207 245.911V219.089Z" fill="#F1FAF5"/>
<path d="M253.072 226.818H254.305V234.097C254.305 234.746 254.186 235.298 253.947 235.752C253.708 236.206 253.372 236.551 252.938 236.786C252.504 237.022 251.992 237.139 251.402 237.139C250.845 237.139 250.349 237.038 249.915 236.836C249.481 236.63 249.14 236.339 248.891 235.961C248.642 235.583 248.518 235.134 248.518 234.614H249.731C249.731 234.902 249.802 235.154 249.945 235.369C250.091 235.581 250.29 235.747 250.542 235.866C250.793 235.986 251.08 236.045 251.402 236.045C251.756 236.045 252.058 235.971 252.306 235.822C252.555 235.673 252.744 235.454 252.873 235.165C253.006 234.874 253.072 234.518 253.072 234.097V226.818ZM261.429 233.878V229.364H262.603V237H261.429V235.707H261.35C261.171 236.095 260.892 236.425 260.515 236.697C260.137 236.965 259.659 237.099 259.083 237.099C258.605 237.099 258.181 236.995 257.81 236.786C257.439 236.574 257.147 236.256 256.935 235.832C256.723 235.404 256.617 234.866 256.617 234.216V229.364H257.79V234.136C257.79 234.693 257.946 235.137 258.257 235.469C258.572 235.8 258.973 235.966 259.461 235.966C259.752 235.966 260.049 235.891 260.35 235.742C260.655 235.593 260.911 235.364 261.116 235.056C261.325 234.748 261.429 234.355 261.429 233.878ZM265.925 226.818V237H264.752V226.818H265.925Z" fill="#808080"/>
<path d="M315 219.089C315 216.831 316.831 215 319.089 215H410.911C413.169 215 415 216.831 415 219.089V245.911C415 248.169 413.169 250 410.911 250H319.089C316.831 250 315 248.169 315 245.911V219.089Z" fill="#FDEEEE"/>
<path d="M354.024 237H352.731L356.47 226.818H357.742L361.481 237H360.188L357.146 228.429H357.066L354.024 237ZM354.501 233.023H359.711V234.116H354.501V233.023ZM367.72 233.878V229.364H368.894V237H367.72V235.707H367.641C367.462 236.095 367.183 236.425 366.806 236.697C366.428 236.965 365.95 237.099 365.374 237.099C364.896 237.099 364.472 236.995 364.101 236.786C363.73 236.574 363.438 236.256 363.226 235.832C363.014 235.404 362.908 234.866 362.908 234.216V229.364H364.081V234.136C364.081 234.693 364.237 235.137 364.548 235.469C364.863 235.8 365.264 235.966 365.752 235.966C366.043 235.966 366.34 235.891 366.642 235.742C366.946 235.593 367.202 235.364 367.407 235.056C367.616 234.748 367.72 234.355 367.72 233.878ZM374.125 240.023C373.558 240.023 373.071 239.95 372.663 239.804C372.256 239.661 371.916 239.473 371.644 239.237C371.376 239.005 371.162 238.757 371.003 238.491L371.938 237.835C372.044 237.974 372.178 238.134 372.34 238.312C372.503 238.495 372.725 238.652 373.006 238.785C373.291 238.921 373.664 238.989 374.125 238.989C374.741 238.989 375.25 238.839 375.651 238.541C376.052 238.243 376.253 237.776 376.253 237.139V235.588H376.153C376.067 235.727 375.945 235.9 375.786 236.105C375.63 236.307 375.404 236.488 375.109 236.647C374.818 236.803 374.423 236.881 373.926 236.881C373.31 236.881 372.756 236.735 372.266 236.443C371.778 236.152 371.392 235.727 371.107 235.17C370.826 234.614 370.685 233.937 370.685 233.142C370.685 232.36 370.822 231.679 371.097 231.099C371.372 230.515 371.755 230.065 372.246 229.746C372.736 229.425 373.303 229.264 373.946 229.264C374.443 229.264 374.838 229.347 375.129 229.513C375.424 229.675 375.65 229.861 375.805 230.07C375.964 230.275 376.087 230.444 376.173 230.577H376.293V229.364H377.426V237.219C377.426 237.875 377.277 238.409 376.979 238.82C376.684 239.234 376.286 239.537 375.786 239.729C375.288 239.925 374.735 240.023 374.125 240.023ZM374.085 235.827C374.556 235.827 374.954 235.719 375.278 235.504C375.603 235.288 375.85 234.978 376.019 234.574C376.188 234.17 376.273 233.686 376.273 233.122C376.273 232.572 376.19 232.086 376.024 231.665C375.858 231.245 375.613 230.915 375.288 230.676C374.964 230.437 374.563 230.318 374.085 230.318C373.588 230.318 373.174 230.444 372.842 230.696C372.514 230.948 372.267 231.286 372.102 231.71C371.939 232.134 371.858 232.605 371.858 233.122C371.858 233.652 371.941 234.121 372.107 234.529C372.276 234.933 372.524 235.252 372.852 235.484C373.184 235.712 373.595 235.827 374.085 235.827Z" fill="#808080"/>
<path d="M423 219.089C423 216.831 424.831 215 427.089 215H518.911C521.169 215 523 216.831 523 219.089V245.911C523 248.169 521.169 250 518.911 250H427.089C424.831 250 423 248.169 423 245.911V219.089Z" fill="#F1FAF5"/>
<path d="M467.194 229.364C467.134 228.86 466.892 228.469 466.468 228.19C466.044 227.912 465.523 227.773 464.907 227.773C464.456 227.773 464.062 227.846 463.724 227.991C463.389 228.137 463.127 228.338 462.938 228.593C462.752 228.848 462.66 229.138 462.66 229.463C462.66 229.735 462.724 229.969 462.854 230.164C462.986 230.356 463.155 230.517 463.361 230.646C463.566 230.772 463.782 230.877 464.007 230.96C464.232 231.039 464.439 231.104 464.628 231.153L465.662 231.432C465.928 231.501 466.223 231.598 466.547 231.72C466.876 231.843 467.189 232.01 467.487 232.222C467.789 232.431 468.037 232.7 468.233 233.028C468.428 233.356 468.526 233.759 468.526 234.236C468.526 234.786 468.382 235.283 468.094 235.727C467.809 236.171 467.391 236.524 466.841 236.786C466.294 237.048 465.629 237.179 464.847 237.179C464.118 237.179 463.487 237.061 462.953 236.826C462.423 236.591 462.005 236.263 461.7 235.842C461.398 235.421 461.228 234.932 461.188 234.375H462.461C462.494 234.759 462.623 235.078 462.849 235.33C463.077 235.578 463.366 235.764 463.714 235.886C464.065 236.006 464.443 236.065 464.847 236.065C465.318 236.065 465.74 235.989 466.115 235.837C466.489 235.681 466.786 235.465 467.005 235.19C467.224 234.912 467.333 234.587 467.333 234.216C467.333 233.878 467.238 233.603 467.05 233.391C466.861 233.179 466.612 233.006 466.304 232.874C465.996 232.741 465.662 232.625 465.305 232.526L464.052 232.168C463.256 231.939 462.626 231.612 462.162 231.188C461.698 230.764 461.466 230.209 461.466 229.523C461.466 228.953 461.621 228.455 461.929 228.031C462.24 227.604 462.658 227.272 463.182 227.037C463.709 226.798 464.297 226.679 464.947 226.679C465.603 226.679 466.186 226.797 466.697 227.032C467.207 227.264 467.611 227.582 467.91 227.987C468.211 228.391 468.37 228.85 468.387 229.364H467.194ZM473.596 237.159C472.86 237.159 472.225 236.997 471.692 236.672C471.161 236.344 470.752 235.886 470.464 235.3C470.179 234.71 470.036 234.024 470.036 233.241C470.036 232.459 470.179 231.77 470.464 231.173C470.752 230.573 471.153 230.106 471.667 229.771C472.184 229.433 472.787 229.264 473.477 229.264C473.874 229.264 474.267 229.33 474.655 229.463C475.043 229.596 475.396 229.811 475.714 230.109C476.032 230.404 476.286 230.795 476.474 231.283C476.663 231.77 476.758 232.37 476.758 233.082V233.58H470.871V232.565H475.565C475.565 232.134 475.478 231.75 475.306 231.412C475.137 231.074 474.895 230.807 474.58 230.612C474.269 230.416 473.901 230.318 473.477 230.318C473.009 230.318 472.605 230.434 472.263 230.666C471.925 230.895 471.665 231.193 471.483 231.561C471.301 231.929 471.21 232.323 471.21 232.744V233.42C471.21 233.997 471.309 234.486 471.508 234.887C471.71 235.285 471.99 235.588 472.348 235.797C472.706 236.002 473.122 236.105 473.596 236.105C473.904 236.105 474.183 236.062 474.431 235.976C474.683 235.886 474.9 235.754 475.082 235.578C475.265 235.399 475.406 235.177 475.505 234.912L476.638 235.23C476.519 235.615 476.319 235.953 476.037 236.244C475.755 236.533 475.407 236.758 474.993 236.92C474.579 237.08 474.113 237.159 473.596 237.159ZM478.543 239.864V229.364H479.676V230.577H479.815C479.902 230.444 480.021 230.275 480.173 230.07C480.329 229.861 480.551 229.675 480.839 229.513C481.131 229.347 481.526 229.264 482.023 229.264C482.666 229.264 483.232 229.425 483.723 229.746C484.214 230.068 484.596 230.524 484.871 231.114C485.147 231.704 485.284 232.4 485.284 233.202C485.284 234.01 485.147 234.711 484.871 235.305C484.596 235.895 484.215 236.352 483.728 236.677C483.241 236.998 482.679 237.159 482.043 237.159C481.552 237.159 481.159 237.078 480.864 236.915C480.569 236.75 480.342 236.562 480.183 236.354C480.024 236.142 479.902 235.966 479.815 235.827H479.716V239.864H478.543ZM479.696 233.182C479.696 233.759 479.781 234.267 479.95 234.708C480.119 235.146 480.366 235.489 480.69 235.737C481.015 235.982 481.413 236.105 481.884 236.105C482.374 236.105 482.783 235.976 483.112 235.717C483.443 235.455 483.692 235.104 483.857 234.663C484.026 234.219 484.111 233.725 484.111 233.182C484.111 232.645 484.028 232.161 483.862 231.73C483.7 231.296 483.453 230.953 483.121 230.701C482.793 230.446 482.381 230.318 481.884 230.318C481.406 230.318 481.005 230.439 480.68 230.681C480.356 230.92 480.11 231.254 479.945 231.685C479.779 232.113 479.696 232.612 479.696 233.182Z" fill="#808080"/>
</g>
<defs>
<clipPath id="clip0_1820_17268">
<rect width="580" height="300" rx="4" fill="white"/>
</clipPath>
</defs>
</svg>
