<?xml version="1.0" encoding="utf-8"?>
<!-- Generator: Adobe Illustrator 25.0.1, SVG Export Plug-In . SVG Version: 6.00 Build 0)  -->
<svg version="1.0" id="Layer_1" xmlns="http://www.w3.org/2000/svg" xmlns:xlink="http://www.w3.org/1999/xlink" x="0px" y="0px"
	 viewBox="0 0 880.8 542.3" style="enable-background:new 0 0 880.8 542.3;" xml:space="preserve">
<style type="text/css">
	.st0{fill:#1C2951;}
	.st1{fill:#F94A29;}
	.st2{fill:none;}
</style>
<path class="st0" d="M196.8,298.5l17.5,15c-3.4,4.7-7.4,8.8-12,12.3c-5.7,4.5-12.1,8.1-18.9,10.7c-7.5,2.9-15.5,4.4-23.6,4.3
	c-12.3,0.2-24.4-2.9-35-9c-10-5.8-18.2-14.2-23.8-24.4c-5.9-10.7-8.8-22.8-8.6-35.1c-0.1-9.2,1.6-18.3,4.9-26.9
	c3.2-8.3,8-15.8,14.1-22.2c6-6.4,13.3-11.5,21.4-15c8.8-3.7,18.2-5.6,27.7-5.5c11.4-0.4,22.6,2.2,32.6,7.6
	c8.2,4.8,15.4,11.2,21,18.9l-17.7,15.6c-3.9-5.8-8.9-10.7-14.7-14.6c-6.4-3.9-13.8-5.8-21.2-5.5c-8-0.2-15.8,2-22.4,6.4
	c-6.3,4.4-11.3,10.4-14.5,17.4c-3.4,7.3-5.2,15.3-5.1,23.4c-0.1,7.9,1.7,15.7,5.1,22.8c3.2,6.6,8,12.3,14.1,16.4
	c6.4,4.1,13.8,6.2,21.4,6c6.4,0.3,12.8-0.9,18.7-3.3c4.2-1.9,8.1-4.5,11.4-7.8L196.8,298.5"/>
<path class="st0" d="M221.1,291.1c-0.1-8.6,2.1-17.1,6.3-24.6c4.2-7.4,10.3-13.6,17.7-17.9c16.3-8.8,36-8.8,52.3,0
	c7.4,4.3,13.4,10.5,17.6,17.9c13.1,24.5,3.8,55-20.7,68.1c-23.7,12.7-53.3,4.4-67-18.7c-4.2-7.5-6.4-16-6.3-24.6L221.1,291.1z
	 M271,320.6c5.3,0.2,10.5-1.4,14.7-4.5c3.9-2.9,6.9-6.8,8.8-11.3c1.9-4.2,2.9-8.8,2.9-13.5c0-4.6-1.1-9.2-2.9-13.5
	c-1.9-4.5-5-8.4-8.8-11.3c-8.9-6-20.6-6-29.5,0c-3.8,2.9-6.8,6.7-8.6,11.1c-1.9,4.2-2.9,8.8-3,13.5c0.1,4.7,1.1,9.4,3,13.6
	c1.9,4.5,5,8.4,8.8,11.3c4.3,3.1,9.5,4.7,14.7,4.5"/>
<path class="st0" d="M326,205.9h23.4v24.6H326V205.9z M326,244.9h23.4v92.6H326V244.9z"/>
<path class="st0" d="M358.6,337.5v-92.4H381l0.6,10.5c3.1-3.2,6.6-5.9,10.4-8.2c5.4-3.1,11.5-4.6,17.7-4.3
	c9.9-0.6,19.6,3.1,26.5,10.3c6.5,7.8,9.8,17.8,9.2,27.9v56.1h-23.5v-56c0.3-5-1.5-10-4.9-13.6c-1.6-1.6-3.6-2.9-5.8-3.7
	c-2.2-0.8-4.5-1.2-6.8-1.1c-6.1-0.2-12,2.4-16.1,7c-4.2,4.8-6.5,11-6.3,17.4v50.1H358.6z"/>
<path class="st1" d="M734.3,267l41.3-61h-39.1l-21.4,34.1l-22-34.1h-43.3l2,2.7l-1.4-0.6c-10.2-3.8-21.1-5.7-32-5.6
	c-12.6-0.2-25,2.9-36,9.2c-7.8,4.5-14.6,10.6-19.8,17.9c-5.8-7.2-13.2-12.8-21.6-16.4c-11.6-4.8-24-7.2-36.5-7h-50.9v131.4h50.7
	c12.6,0.2,25-2.2,36.5-7.2c8.4-3.6,15.8-9.2,21.6-16.2c5.4,7.4,12.3,13.5,20.2,17.9c10.9,6,23.3,9,35.8,8.8
	c11.8,0.2,23.5-2.3,34.2-7.4l-2.8,4.1h38.5l25.7-40.4l26.5,40.4h44L734.3,267z M529.8,297c-7.2,6.8-16.9,10.4-26.7,9.8h-14.3v-70.2
	h14.4c10.1-0.9,20.2,2.7,27.5,9.8c6.1,7,9.2,16.1,8.9,25.4C539.8,281.1,536.3,290.2,529.8,297L529.8,297z M670.7,306.5L654,291
	c-3.9,5-8.7,9.3-14.1,12.7c-5.8,3-12.4,4.4-18.9,4.1c-6.5,0.2-12.9-1.5-18.5-4.7c-5.2-3.1-9.5-7.6-12.2-13.1
	c-2.9-5.9-4.4-12.4-4.3-18.9c-0.1-6.4,1.3-12.8,4.1-18.5c2.7-5.4,6.9-9.9,12-13.1c5.8-3.4,12.4-5.1,19.1-4.9
	c6.2-0.1,12.3,1.4,17.7,4.5c5.2,3.1,9.8,7.2,13.4,12.1l17.5-17.4l25.5,36.5L670.7,306.5z"/>
<rect x="71.8" y="182.3" class="st2" width="737.2" height="177.7"/>
</svg>
