<svg width="580" height="300" viewBox="0 0 580 300" fill="none" xmlns="http://www.w3.org/2000/svg">
<rect width="580" height="300" rx="4" fill="white"/>
<g clip-path="url(#clip0_1820_17383)">
<rect x="16.5" y="24.5" width="266" height="187" rx="3.5" fill="white" stroke="#F3F3F3"/>
</g>
<path d="M18.4274 89.4306C18.1129 88.9184 17.4428 88.7582 16.9306 89.0726C16.4184 89.3871 16.2582 90.0572 16.5726 90.5694L18.4274 89.4306ZM16.5726 90.5694C31.0869 114.209 44.1522 132.944 56.0486 146.829C67.9309 160.698 78.7179 169.814 88.6955 174.099C98.7486 178.417 107.978 177.824 116.527 172.318C124.992 166.867 132.694 156.663 139.975 141.984L138.025 141.016C130.806 155.571 123.321 165.355 115.348 170.488C107.46 175.568 99.0014 176.157 89.5545 172.1C80.0321 168.01 69.5066 159.192 57.7014 145.413C45.9103 131.65 32.9131 113.023 18.4274 89.4306L16.5726 90.5694ZM139.975 141.984C147.209 127.399 153.878 116.622 160.238 109.411C166.605 102.192 172.545 98.6781 178.317 98.3225C184.075 97.9677 189.979 100.738 196.325 106.824C202.67 112.908 209.328 122.187 216.561 134.55L218.439 133.45C211.172 121.028 204.393 111.545 197.831 105.253C191.271 98.9617 184.8 95.7424 178.183 96.1502C171.58 96.5571 165.145 100.558 158.606 107.972C152.06 115.393 145.291 126.367 138.025 141.016L139.975 141.984ZM216.561 134.55C231.043 159.303 240.652 178.49 246.639 191.312C249.632 197.722 251.721 202.544 253.062 205.679C253.73 207.24 254.22 208.402 254.541 209.124C254.696 209.474 254.832 209.766 254.937 209.954C254.964 210.003 255.001 210.065 255.044 210.128C255.066 210.158 255.171 210.314 255.353 210.44C255.442 210.501 255.693 210.657 256.051 210.635C256.488 210.608 256.774 210.344 256.913 210.124C257.029 209.941 257.061 209.769 257.072 209.701C257.086 209.616 257.088 209.544 257.088 209.5H254.912C254.912 209.477 254.913 209.423 254.924 209.353C254.933 209.299 254.962 209.138 255.073 208.962C255.207 208.75 255.487 208.49 255.917 208.463C256.268 208.441 256.511 208.594 256.591 208.649C256.688 208.717 256.75 208.784 256.773 208.811C256.802 208.844 256.821 208.87 256.828 208.881C256.843 208.902 256.846 208.909 256.836 208.89C256.787 208.804 256.691 208.602 256.53 208.24C256.217 207.537 255.739 206.404 255.063 204.823C253.717 201.675 251.618 196.83 248.611 190.391C242.598 177.513 232.957 158.266 218.439 133.45L216.561 134.55Z" fill="#F07777" fill-opacity="0.3"/>
<path d="M18.3743 71.352C18.0164 70.8692 17.3349 70.7679 16.852 71.1257C16.3692 71.4836 16.2679 72.1651 16.6257 72.648L18.3743 71.352ZM16.6257 72.648C42.0297 106.923 59.5827 134.484 72.2849 155.337L74.1437 154.204C61.4173 133.313 43.8275 105.694 18.3743 71.352L16.6257 72.648ZM72.2849 155.337C75.5016 160.617 78.7734 164.483 82.1245 166.837C85.505 169.211 88.9978 170.063 92.5366 169.224C96.0284 168.397 99.3932 165.964 102.65 162.133C105.914 158.294 109.14 152.97 112.341 146.199L110.373 145.269C107.217 151.946 104.086 157.084 100.992 160.723C97.8925 164.369 94.9001 166.428 92.0349 167.106C89.2165 167.774 86.3521 167.146 83.3755 165.056C80.3695 162.944 77.2841 159.36 74.1437 154.204L72.2849 155.337ZM112.341 146.199C115.498 139.52 118.636 134.243 121.744 130.342C124.858 126.434 127.893 123.969 130.828 122.81C133.721 121.668 136.589 121.765 139.505 123.123C142.461 124.499 145.51 127.195 148.631 131.334L150.369 130.023C147.133 125.732 143.825 122.733 140.424 121.15C136.982 119.547 133.493 119.418 130.029 120.786C126.607 122.137 123.285 124.916 120.042 128.986C116.793 133.063 113.573 138.5 110.373 145.269L112.341 146.199ZM148.631 131.334C155.053 139.849 161.607 145.034 168.326 146.588C175.116 148.159 181.817 145.969 188.354 140.325L186.932 138.678C180.754 144.011 174.741 145.838 168.817 144.468C162.822 143.081 156.661 138.366 150.369 130.023L148.631 131.334ZM188.354 140.325C194.5 135.019 200.456 133.587 206.35 135.68C212.361 137.814 218.552 143.691 224.867 153.627L226.704 152.459C220.305 142.391 213.782 136.009 207.078 133.629C200.258 131.207 193.5 133.007 186.932 138.678L188.354 140.325ZM224.867 153.627C237.623 173.696 250.435 188.046 263.328 196.58L264.529 194.765C251.993 186.468 239.377 172.398 226.704 152.459L224.867 153.627ZM263.328 196.58C266.607 198.751 269.65 199.675 272.359 198.838C275.072 198.001 277.046 195.522 278.493 191.879C281.385 184.604 282.588 171.64 282.588 153.043H280.412C280.412 171.682 279.187 184.241 276.471 191.076C275.115 194.488 273.491 196.211 271.717 196.759C269.939 197.308 267.608 196.803 264.529 194.765L263.328 196.58Z" fill="#00C452" fill-opacity="0.3"/>
<path d="M63.0227 40C62.929 39.7131 62.8054 39.456 62.652 39.2287C62.5014 38.9986 62.321 38.8026 62.1108 38.6406C61.9034 38.4787 61.6676 38.3551 61.4034 38.2699C61.1392 38.1847 60.8494 38.142 60.5341 38.142C60.017 38.142 59.5469 38.2756 59.1236 38.5426C58.7003 38.8097 58.3636 39.2031 58.1136 39.723C57.8636 40.2429 57.7386 40.8807 57.7386 41.6364C57.7386 42.392 57.8651 43.0298 58.1179 43.5497C58.3707 44.0696 58.7131 44.4631 59.1449 44.7301C59.5767 44.9972 60.0625 45.1307 60.6023 45.1307C61.1023 45.1307 61.5426 45.0241 61.9233 44.8111C62.3068 44.5952 62.6051 44.2912 62.8182 43.8991C63.0341 43.5043 63.142 43.0398 63.142 42.5057L63.4659 42.5739H60.8409V41.6364H64.1648V42.5739C64.1648 43.2926 64.0114 43.9176 63.7045 44.4489C63.4006 44.9801 62.9801 45.392 62.4432 45.6847C61.9091 45.9744 61.2955 46.1193 60.6023 46.1193C59.8295 46.1193 59.1506 45.9375 58.5653 45.5739C57.983 45.2102 57.5284 44.6932 57.2017 44.0227C56.8778 43.3523 56.7159 42.5568 56.7159 41.6364C56.7159 40.946 56.8082 40.3253 56.9929 39.7741C57.1804 39.2202 57.4446 38.7486 57.7855 38.3594C58.1264 37.9702 58.5298 37.6719 58.9957 37.4645C59.4616 37.2571 59.9744 37.1534 60.5341 37.1534C60.9943 37.1534 61.4233 37.223 61.821 37.3622C62.2216 37.4986 62.5781 37.6932 62.8906 37.946C63.206 38.196 63.4688 38.4957 63.679 38.8452C63.8892 39.1918 64.0341 39.5767 64.1136 40H63.0227ZM68.5827 46.1364C67.9521 46.1364 67.408 45.9972 66.9506 45.7188C66.4961 45.4375 66.1452 45.0455 65.8981 44.5426C65.6538 44.0369 65.5316 43.4489 65.5316 42.7784C65.5316 42.108 65.6538 41.517 65.8981 41.0057C66.1452 40.4915 66.489 40.0909 66.9293 39.804C67.3725 39.5142 67.8896 39.3693 68.4805 39.3693C68.8214 39.3693 69.158 39.4261 69.4904 39.5398C69.8228 39.6534 70.1254 39.8381 70.3981 40.0938C70.6708 40.3466 70.8881 40.6818 71.0501 41.0994C71.212 41.517 71.293 42.0312 71.293 42.642V43.0682H66.2475V42.1989H70.2702C70.2702 41.8295 70.1964 41.5 70.0487 41.2102C69.9038 40.9205 69.6964 40.6918 69.4265 40.5241C69.1594 40.3565 68.8441 40.2727 68.4805 40.2727C68.0799 40.2727 67.7333 40.3722 67.4407 40.571C67.1509 40.767 66.9279 41.0227 66.7717 41.3381C66.6154 41.6534 66.5373 41.9915 66.5373 42.3523V42.9318C66.5373 43.4261 66.6225 43.8452 66.793 44.1889C66.9663 44.5298 67.2063 44.7898 67.5131 44.9688C67.82 45.1449 68.1765 45.233 68.5827 45.233C68.8469 45.233 69.0856 45.196 69.2987 45.1222C69.5146 45.0455 69.7006 44.9318 69.8569 44.7812C70.0131 44.6278 70.1339 44.4375 70.2191 44.2102L71.1907 44.483C71.0884 44.8125 70.9165 45.1023 70.6751 45.3523C70.4336 45.5994 70.1353 45.7926 69.7802 45.9318C69.4251 46.0682 69.0259 46.1364 68.5827 46.1364ZM73.8285 42.0625V46H72.8228V39.4545H73.7944V40.4773H73.8796C74.033 40.1449 74.266 39.8778 74.5785 39.6761C74.891 39.4716 75.2944 39.3693 75.7887 39.3693C76.2319 39.3693 76.6197 39.4602 76.9521 39.642C77.2844 39.821 77.543 40.0938 77.7276 40.4602C77.9123 40.8239 78.0046 41.2841 78.0046 41.8409V46H76.9989V41.9091C76.9989 41.3949 76.8654 40.9943 76.5984 40.7074C76.3313 40.4176 75.9648 40.2727 75.4989 40.2727C75.1779 40.2727 74.891 40.3423 74.6381 40.4815C74.3881 40.6207 74.1907 40.8239 74.0458 41.0909C73.9009 41.358 73.8285 41.6818 73.8285 42.0625ZM82.5866 46.1364C81.956 46.1364 81.4119 45.9972 80.9545 45.7188C80.5 45.4375 80.1491 45.0455 79.902 44.5426C79.6577 44.0369 79.5355 43.4489 79.5355 42.7784C79.5355 42.108 79.6577 41.517 79.902 41.0057C80.1491 40.4915 80.4929 40.0909 80.9332 39.804C81.3764 39.5142 81.8935 39.3693 82.4844 39.3693C82.8253 39.3693 83.1619 39.4261 83.4943 39.5398C83.8267 39.6534 84.1293 39.8381 84.402 40.0938C84.6747 40.3466 84.892 40.6818 85.054 41.0994C85.2159 41.517 85.2969 42.0312 85.2969 42.642V43.0682H80.2514V42.1989H84.2741C84.2741 41.8295 84.2003 41.5 84.0526 41.2102C83.9077 40.9205 83.7003 40.6918 83.4304 40.5241C83.1634 40.3565 82.848 40.2727 82.4844 40.2727C82.0838 40.2727 81.7372 40.3722 81.4446 40.571C81.1548 40.767 80.9318 41.0227 80.7756 41.3381C80.6193 41.6534 80.5412 41.9915 80.5412 42.3523V42.9318C80.5412 43.4261 80.6264 43.8452 80.7969 44.1889C80.9702 44.5298 81.2102 44.7898 81.517 44.9688C81.8239 45.1449 82.1804 45.233 82.5866 45.233C82.8509 45.233 83.0895 45.196 83.3026 45.1222C83.5185 45.0455 83.7045 44.9318 83.8608 44.7812C84.017 44.6278 84.1378 44.4375 84.223 44.2102L85.1946 44.483C85.0923 44.8125 84.9205 45.1023 84.679 45.3523C84.4375 45.5994 84.1392 45.7926 83.7841 45.9318C83.429 46.0682 83.0298 46.1364 82.5866 46.1364ZM86.8267 46V39.4545H87.7983V40.4432H87.8665C87.9858 40.1193 88.2017 39.8565 88.5142 39.6548C88.8267 39.4531 89.179 39.3523 89.571 39.3523C89.6449 39.3523 89.7372 39.3537 89.848 39.3565C89.9588 39.3594 90.0426 39.3636 90.0994 39.3693V40.392C90.0653 40.3835 89.9872 40.3707 89.8651 40.3537C89.7457 40.3338 89.6193 40.3239 89.4858 40.3239C89.1676 40.3239 88.8835 40.3906 88.6335 40.5241C88.3864 40.6548 88.1903 40.8366 88.0455 41.0696C87.9034 41.2997 87.8324 41.5625 87.8324 41.858V46H86.8267ZM93.2177 46.1534C92.8029 46.1534 92.4265 46.0753 92.0884 45.919C91.7504 45.7599 91.4819 45.5312 91.283 45.233C91.0842 44.9318 90.9847 44.5682 90.9847 44.142C90.9847 43.767 91.0586 43.4631 91.2063 43.2301C91.354 42.9943 91.5515 42.8097 91.7987 42.6761C92.0458 42.5426 92.3185 42.4432 92.6168 42.3778C92.918 42.3097 93.2205 42.2557 93.5245 42.2159C93.9222 42.1648 94.2447 42.1264 94.4918 42.1009C94.7418 42.0724 94.9237 42.0256 95.0373 41.9602C95.1538 41.8949 95.212 41.7812 95.212 41.6193V41.5852C95.212 41.1648 95.0969 40.8381 94.8668 40.6051C94.6396 40.3722 94.2944 40.2557 93.8313 40.2557C93.3512 40.2557 92.9748 40.3608 92.7021 40.571C92.4293 40.7812 92.2376 41.0057 92.1268 41.2443L91.1722 40.9034C91.3427 40.5057 91.57 40.196 91.854 39.9744C92.141 39.75 92.4535 39.5937 92.7915 39.5057C93.1325 39.4148 93.4677 39.3693 93.7972 39.3693C94.0075 39.3693 94.2489 39.3949 94.5217 39.446C94.7972 39.4943 95.0629 39.5952 95.3185 39.7486C95.5771 39.902 95.7915 40.1335 95.962 40.4432C96.1325 40.7528 96.2177 41.1676 96.2177 41.6875V46H95.212V45.1136H95.1609C95.0927 45.2557 94.979 45.4077 94.82 45.5696C94.6609 45.7315 94.4492 45.8693 94.185 45.983C93.9208 46.0966 93.5984 46.1534 93.2177 46.1534ZM93.3711 45.25C93.7688 45.25 94.104 45.1719 94.3768 45.0156C94.6523 44.8594 94.8597 44.6577 94.9989 44.4105C95.141 44.1634 95.212 43.9034 95.212 43.6307V42.7102C95.1694 42.7614 95.0756 42.8082 94.9308 42.8509C94.7887 42.8906 94.6239 42.9261 94.4364 42.9574C94.2518 42.9858 94.0714 43.0114 93.8952 43.0341C93.7219 43.054 93.5813 43.071 93.4734 43.0852C93.212 43.1193 92.9677 43.1747 92.7404 43.2514C92.516 43.3253 92.3342 43.4375 92.195 43.5881C92.0586 43.7358 91.9904 43.9375 91.9904 44.1932C91.9904 44.5426 92.1197 44.8068 92.3782 44.9858C92.6396 45.1619 92.9705 45.25 93.3711 45.25ZM100.9 39.4545V40.3068H97.5078V39.4545H100.9ZM98.4964 37.8864H99.5021V44.125C99.5021 44.4091 99.5433 44.6222 99.6257 44.7642C99.7109 44.9034 99.8189 44.9972 99.9496 45.0455C100.083 45.0909 100.224 45.1136 100.371 45.1136C100.482 45.1136 100.573 45.108 100.644 45.0966C100.715 45.0824 100.772 45.071 100.815 45.0625L101.019 45.9659C100.951 45.9915 100.856 46.017 100.734 46.0426C100.612 46.071 100.457 46.0852 100.269 46.0852C99.9851 46.0852 99.7067 46.0241 99.4339 45.902C99.1641 45.7798 98.9396 45.5938 98.7607 45.3438C98.5845 45.0938 98.4964 44.7784 98.4964 44.3977V37.8864ZM105.087 46.1364C104.456 46.1364 103.912 45.9972 103.455 45.7188C103 45.4375 102.649 45.0455 102.402 44.5426C102.158 44.0369 102.036 43.4489 102.036 42.7784C102.036 42.108 102.158 41.517 102.402 41.0057C102.649 40.4915 102.993 40.0909 103.433 39.804C103.876 39.5142 104.393 39.3693 104.984 39.3693C105.325 39.3693 105.662 39.4261 105.994 39.5398C106.327 39.6534 106.629 39.8381 106.902 40.0938C107.175 40.3466 107.392 40.6818 107.554 41.0994C107.716 41.517 107.797 42.0312 107.797 42.642V43.0682H102.751V42.1989H106.774C106.774 41.8295 106.7 41.5 106.553 41.2102C106.408 40.9205 106.2 40.6918 105.93 40.5241C105.663 40.3565 105.348 40.2727 104.984 40.2727C104.584 40.2727 104.237 40.3722 103.945 40.571C103.655 40.767 103.432 41.0227 103.276 41.3381C103.119 41.6534 103.041 41.9915 103.041 42.3523V42.9318C103.041 43.4261 103.126 43.8452 103.297 44.1889C103.47 44.5298 103.71 44.7898 104.017 44.9688C104.324 45.1449 104.68 45.233 105.087 45.233C105.351 45.233 105.589 45.196 105.803 45.1222C106.018 45.0455 106.205 44.9318 106.361 44.7812C106.517 44.6278 106.638 44.4375 106.723 44.2102L107.695 44.483C107.592 44.8125 107.42 45.1023 107.179 45.3523C106.938 45.5994 106.639 45.7926 106.284 45.9318C105.929 46.0682 105.53 46.1364 105.087 46.1364ZM113.963 40.9205L113.06 41.1761C113.003 41.0256 112.919 40.8793 112.808 40.7372C112.7 40.5923 112.553 40.473 112.365 40.3793C112.178 40.2855 111.938 40.2386 111.645 40.2386C111.244 40.2386 110.911 40.331 110.643 40.5156C110.379 40.6974 110.247 40.929 110.247 41.2102C110.247 41.4602 110.338 41.6577 110.52 41.8026C110.702 41.9474 110.986 42.0682 111.372 42.1648L112.344 42.4034C112.929 42.5455 113.365 42.7628 113.652 43.0554C113.939 43.3452 114.082 43.7187 114.082 44.1761C114.082 44.5511 113.974 44.8864 113.759 45.1818C113.545 45.4773 113.247 45.7102 112.864 45.8807C112.48 46.0511 112.034 46.1364 111.526 46.1364C110.858 46.1364 110.305 45.9915 109.868 45.7017C109.43 45.4119 109.153 44.9886 109.037 44.4318L109.991 44.1932C110.082 44.5455 110.254 44.8097 110.507 44.9858C110.763 45.1619 111.097 45.25 111.509 45.25C111.977 45.25 112.349 45.1506 112.625 44.9517C112.903 44.75 113.043 44.5085 113.043 44.2273C113.043 44 112.963 43.8097 112.804 43.6562C112.645 43.5 112.401 43.3835 112.071 43.3068L110.98 43.0511C110.381 42.9091 109.94 42.6889 109.659 42.3906C109.381 42.0895 109.241 41.7131 109.241 41.2614C109.241 40.892 109.345 40.5653 109.553 40.2812C109.763 39.9972 110.048 39.7741 110.409 39.6122C110.773 39.4503 111.185 39.3693 111.645 39.3693C112.293 39.3693 112.801 39.5114 113.17 39.7955C113.543 40.0795 113.807 40.4545 113.963 40.9205ZM120.897 46.1534C120.483 46.1534 120.106 46.0753 119.768 45.919C119.43 45.7599 119.162 45.5312 118.963 45.233C118.764 44.9318 118.664 44.5682 118.664 44.142C118.664 43.767 118.738 43.4631 118.886 43.2301C119.034 42.9943 119.231 42.8097 119.478 42.6761C119.725 42.5426 119.998 42.4432 120.297 42.3778C120.598 42.3097 120.9 42.2557 121.204 42.2159C121.602 42.1648 121.924 42.1264 122.172 42.1009C122.422 42.0724 122.603 42.0256 122.717 41.9602C122.833 41.8949 122.892 41.7812 122.892 41.6193V41.5852C122.892 41.1648 122.777 40.8381 122.547 40.6051C122.319 40.3722 121.974 40.2557 121.511 40.2557C121.031 40.2557 120.654 40.3608 120.382 40.571C120.109 40.7812 119.917 41.0057 119.806 41.2443L118.852 40.9034C119.022 40.5057 119.25 40.196 119.534 39.9744C119.821 39.75 120.133 39.5937 120.471 39.5057C120.812 39.4148 121.147 39.3693 121.477 39.3693C121.687 39.3693 121.929 39.3949 122.201 39.446C122.477 39.4943 122.743 39.5952 122.998 39.7486C123.257 39.902 123.471 40.1335 123.642 40.4432C123.812 40.7528 123.897 41.1676 123.897 41.6875V46H122.892V45.1136H122.841C122.772 45.2557 122.659 45.4077 122.5 45.5696C122.341 45.7315 122.129 45.8693 121.865 45.983C121.6 46.0966 121.278 46.1534 120.897 46.1534ZM121.051 45.25C121.449 45.25 121.784 45.1719 122.056 45.0156C122.332 44.8594 122.539 44.6577 122.679 44.4105C122.821 44.1634 122.892 43.9034 122.892 43.6307V42.7102C122.849 42.7614 122.755 42.8082 122.61 42.8509C122.468 42.8906 122.304 42.9261 122.116 42.9574C121.931 42.9858 121.751 43.0114 121.575 43.0341C121.402 43.054 121.261 43.071 121.153 43.0852C120.892 43.1193 120.647 43.1747 120.42 43.2514C120.196 43.3253 120.014 43.4375 119.875 43.5881C119.738 43.7358 119.67 43.9375 119.67 44.1932C119.67 44.5426 119.799 44.8068 120.058 44.9858C120.319 45.1619 120.65 45.25 121.051 45.25ZM126.739 37.2727V46H125.733V37.2727H126.739ZM131.325 46.1364C130.694 46.1364 130.15 45.9972 129.693 45.7188C129.238 45.4375 128.887 45.0455 128.64 44.5426C128.396 44.0369 128.274 43.4489 128.274 42.7784C128.274 42.108 128.396 41.517 128.64 41.0057C128.887 40.4915 129.231 40.0909 129.672 39.804C130.115 39.5142 130.632 39.3693 131.223 39.3693C131.564 39.3693 131.9 39.4261 132.233 39.5398C132.565 39.6534 132.868 39.8381 133.14 40.0938C133.413 40.3466 133.63 40.6818 133.792 41.0994C133.954 41.517 134.035 42.0312 134.035 42.642V43.0682H128.99V42.1989H133.012C133.012 41.8295 132.939 41.5 132.791 41.2102C132.646 40.9205 132.439 40.6918 132.169 40.5241C131.902 40.3565 131.586 40.2727 131.223 40.2727C130.822 40.2727 130.475 40.3722 130.183 40.571C129.893 40.767 129.67 41.0227 129.514 41.3381C129.358 41.6534 129.279 41.9915 129.279 42.3523V42.9318C129.279 43.4261 129.365 43.8452 129.535 44.1889C129.708 44.5298 129.949 44.7898 130.255 44.9688C130.562 45.1449 130.919 45.233 131.325 45.233C131.589 45.233 131.828 45.196 132.041 45.1222C132.257 45.0455 132.443 44.9318 132.599 44.7812C132.755 44.6278 132.876 44.4375 132.961 44.2102L133.933 44.483C133.831 44.8125 133.659 45.1023 133.417 45.3523C133.176 45.5994 132.877 45.7926 132.522 45.9318C132.167 46.0682 131.768 46.1364 131.325 46.1364ZM135.565 46V39.4545H136.537V40.4432H136.605C136.724 40.1193 136.94 39.8565 137.252 39.6548C137.565 39.4531 137.917 39.3523 138.309 39.3523C138.383 39.3523 138.475 39.3537 138.586 39.3565C138.697 39.3594 138.781 39.3636 138.838 39.3693V40.392C138.804 40.3835 138.725 40.3707 138.603 40.3537C138.484 40.3338 138.358 40.3239 138.224 40.3239C137.906 40.3239 137.622 40.3906 137.372 40.5241C137.125 40.6548 136.929 40.8366 136.784 41.0696C136.642 41.2997 136.571 41.5625 136.571 41.858V46H135.565ZM143.287 39.4545V40.3068H139.895V39.4545H143.287ZM140.883 37.8864H141.889V44.125C141.889 44.4091 141.93 44.6222 142.012 44.7642C142.098 44.9034 142.206 44.9972 142.336 45.0455C142.47 45.0909 142.61 45.1136 142.758 45.1136C142.869 45.1136 142.96 45.108 143.031 45.0966C143.102 45.0824 143.159 45.071 143.201 45.0625L143.406 45.9659C143.338 45.9915 143.243 46.017 143.12 46.0426C142.998 46.071 142.843 46.0852 142.656 46.0852C142.372 46.0852 142.093 46.0241 141.821 45.902C141.551 45.7798 141.326 45.5938 141.147 45.3438C140.971 45.0938 140.883 44.7784 140.883 44.3977V37.8864Z" fill="#808080"/>
<path d="M33.3593 48H28.6797V40.6737H24V36H33.3383V48H33.3593ZM42.7187 48H37.3856L42.4025 36H47.7356L42.7187 48ZM37.3645 36C38.84 36 40.0416 37.2 40.0416 38.6737C40.0416 40.1474 38.84 41.3474 37.3645 41.3474C35.8889 41.3474 34.6874 40.1474 34.6874 38.6737C34.7084 37.2 35.8889 36 37.3645 36Z" fill="#3A3A3A"/>
<rect x="303.5" y="24.5" width="260" height="187" rx="3.5" fill="white" stroke="#F3F3F3"/>
<g filter="url(#filter0_b_1820_17383)">
<rect x="386" y="98" width="95" height="24" rx="4" fill="white"/>
<rect x="394" y="102" width="17" height="16" rx="1" fill="#00C452" fill-opacity="0.1"/>
<path d="M399.931 114V106.727H402.715C403.241 106.727 403.678 106.81 404.026 106.976C404.376 107.139 404.638 107.363 404.81 107.647C404.986 107.931 405.073 108.253 405.073 108.613C405.073 108.909 405.016 109.162 404.903 109.373C404.789 109.581 404.636 109.75 404.445 109.881C404.253 110.011 404.039 110.104 403.802 110.161V110.232C404.06 110.246 404.307 110.326 404.544 110.47C404.783 110.612 404.979 110.813 405.13 111.074C405.282 111.334 405.357 111.649 405.357 112.018C405.357 112.395 405.266 112.733 405.084 113.034C404.902 113.332 404.627 113.568 404.26 113.741C403.893 113.914 403.431 114 402.875 114H399.931ZM401.249 112.899H402.666C403.144 112.899 403.488 112.808 403.699 112.626C403.912 112.441 404.019 112.204 404.019 111.915C404.019 111.7 403.965 111.506 403.859 111.333C403.752 111.158 403.601 111.021 403.404 110.921C403.208 110.819 402.973 110.768 402.701 110.768H401.249V112.899ZM401.249 109.82H402.552C402.779 109.82 402.984 109.779 403.166 109.696C403.349 109.611 403.492 109.491 403.596 109.337C403.703 109.181 403.756 108.996 403.756 108.783C403.756 108.502 403.656 108.27 403.457 108.087C403.261 107.905 402.969 107.814 402.58 107.814H401.249V109.82Z" fill="#00C452"/>
<path d="M415.903 114V113.233L418.784 110.08C419.122 109.71 419.401 109.389 419.619 109.116C419.838 108.841 420 108.582 420.105 108.341C420.213 108.097 420.267 107.841 420.267 107.574C420.267 107.267 420.193 107.001 420.045 106.777C419.901 106.553 419.702 106.379 419.449 106.257C419.196 106.135 418.912 106.074 418.597 106.074C418.261 106.074 417.969 106.143 417.719 106.283C417.472 106.419 417.28 106.611 417.143 106.858C417.01 107.105 416.943 107.395 416.943 107.727H415.938C415.938 107.216 416.055 106.767 416.291 106.381C416.527 105.994 416.848 105.693 417.254 105.477C417.663 105.261 418.122 105.153 418.631 105.153C419.142 105.153 419.595 105.261 419.99 105.477C420.385 105.693 420.695 105.984 420.919 106.351C421.143 106.717 421.256 107.125 421.256 107.574C421.256 107.895 421.197 108.209 421.081 108.516C420.967 108.82 420.768 109.159 420.484 109.534C420.203 109.906 419.812 110.361 419.312 110.898L417.352 112.994V113.062H421.409V114H415.903ZM426.016 114.119C425.374 114.119 424.827 113.945 424.375 113.595C423.923 113.243 423.578 112.733 423.339 112.065C423.101 111.395 422.982 110.585 422.982 109.636C422.982 108.693 423.101 107.888 423.339 107.22C423.581 106.55 423.928 106.038 424.379 105.686C424.834 105.331 425.379 105.153 426.016 105.153C426.652 105.153 427.196 105.331 427.648 105.686C428.102 106.038 428.449 106.55 428.688 107.22C428.929 107.888 429.05 108.693 429.05 109.636C429.05 110.585 428.93 111.395 428.692 112.065C428.453 112.733 428.108 113.243 427.656 113.595C427.205 113.945 426.658 114.119 426.016 114.119ZM426.016 113.182C426.652 113.182 427.146 112.875 427.499 112.261C427.851 111.648 428.027 110.773 428.027 109.636C428.027 108.881 427.946 108.237 427.784 107.706C427.625 107.175 427.395 106.77 427.094 106.491C426.795 106.213 426.436 106.074 426.016 106.074C425.385 106.074 424.892 106.385 424.537 107.007C424.182 107.626 424.004 108.503 424.004 109.636C424.004 110.392 424.084 111.034 424.243 111.562C424.402 112.091 424.631 112.493 424.929 112.768C425.23 113.044 425.592 113.182 426.016 113.182ZM433.567 114.119C433.209 114.114 432.851 114.045 432.493 113.915C432.135 113.784 431.808 113.564 431.513 113.254C431.217 112.942 430.98 112.52 430.801 111.989C430.622 111.455 430.533 110.784 430.533 109.977C430.533 109.205 430.605 108.52 430.75 107.923C430.895 107.324 431.105 106.82 431.381 106.411C431.656 105.999 431.989 105.686 432.378 105.473C432.77 105.26 433.212 105.153 433.703 105.153C434.192 105.153 434.626 105.251 435.007 105.447C435.391 105.641 435.703 105.911 435.945 106.257C436.186 106.604 436.342 107.003 436.413 107.455H435.374C435.277 107.062 435.089 106.737 434.811 106.479C434.533 106.22 434.163 106.091 433.703 106.091C433.027 106.091 432.494 106.385 432.105 106.973C431.719 107.561 431.524 108.386 431.521 109.449H431.589C431.749 109.207 431.938 109.001 432.156 108.831C432.378 108.658 432.622 108.524 432.889 108.43C433.156 108.337 433.439 108.29 433.737 108.29C434.237 108.29 434.695 108.415 435.109 108.665C435.524 108.912 435.857 109.254 436.107 109.692C436.357 110.126 436.482 110.625 436.482 111.188C436.482 111.727 436.361 112.222 436.119 112.67C435.878 113.116 435.538 113.472 435.101 113.736C434.666 113.997 434.155 114.125 433.567 114.119ZM433.567 113.182C433.925 113.182 434.246 113.092 434.53 112.913C434.817 112.734 435.043 112.494 435.207 112.193C435.375 111.892 435.459 111.557 435.459 111.188C435.459 110.827 435.378 110.499 435.216 110.203C435.057 109.905 434.837 109.668 434.555 109.491C434.277 109.315 433.959 109.227 433.601 109.227C433.331 109.227 433.08 109.281 432.847 109.389C432.614 109.494 432.409 109.639 432.233 109.824C432.06 110.009 431.923 110.22 431.824 110.459C431.724 110.695 431.675 110.943 431.675 111.205C431.675 111.551 431.756 111.875 431.918 112.176C432.082 112.477 432.307 112.72 432.591 112.905C432.878 113.089 433.203 113.182 433.567 113.182ZM441.004 114.119C440.362 114.119 439.815 113.945 439.363 113.595C438.912 113.243 438.566 112.733 438.328 112.065C438.089 111.395 437.97 110.585 437.97 109.636C437.97 108.693 438.089 107.888 438.328 107.22C438.569 106.55 438.916 106.038 439.368 105.686C439.822 105.331 440.368 105.153 441.004 105.153C441.64 105.153 442.184 105.331 442.636 105.686C443.091 106.038 443.437 106.55 443.676 107.22C443.917 107.888 444.038 108.693 444.038 109.636C444.038 110.585 443.919 111.395 443.68 112.065C443.441 112.733 443.096 113.243 442.645 113.595C442.193 113.945 441.646 114.119 441.004 114.119ZM441.004 113.182C441.64 113.182 442.135 112.875 442.487 112.261C442.839 111.648 443.015 110.773 443.015 109.636C443.015 108.881 442.934 108.237 442.772 107.706C442.613 107.175 442.383 106.77 442.082 106.491C441.784 106.213 441.424 106.074 441.004 106.074C440.373 106.074 439.88 106.385 439.525 107.007C439.17 107.626 438.993 108.503 438.993 109.636C438.993 110.392 439.072 111.034 439.231 111.562C439.39 112.091 439.619 112.493 439.917 112.768C440.218 113.044 440.581 113.182 441.004 113.182ZM448.504 114.119C447.862 114.119 447.315 113.945 446.863 113.595C446.412 113.243 446.066 112.733 445.828 112.065C445.589 111.395 445.47 110.585 445.47 109.636C445.47 108.693 445.589 107.888 445.828 107.22C446.069 106.55 446.416 106.038 446.868 105.686C447.322 105.331 447.868 105.153 448.504 105.153C449.14 105.153 449.684 105.331 450.136 105.686C450.591 106.038 450.937 106.55 451.176 107.22C451.417 107.888 451.538 108.693 451.538 109.636C451.538 110.585 451.419 111.395 451.18 112.065C450.941 112.733 450.596 113.243 450.145 113.595C449.693 113.945 449.146 114.119 448.504 114.119ZM448.504 113.182C449.14 113.182 449.635 112.875 449.987 112.261C450.339 111.648 450.515 110.773 450.515 109.636C450.515 108.881 450.434 108.237 450.272 107.706C450.113 107.175 449.883 106.77 449.582 106.491C449.284 106.213 448.924 106.074 448.504 106.074C447.873 106.074 447.38 106.385 447.025 107.007C446.67 107.626 446.493 108.503 446.493 109.636C446.493 110.392 446.572 111.034 446.731 111.562C446.89 112.091 447.119 112.493 447.417 112.768C447.718 113.044 448.081 113.182 448.504 113.182Z" fill="#3A3A3A"/>
<path d="M465.08 108H464.023C463.96 107.696 463.851 107.429 463.695 107.199C463.541 106.969 463.354 106.776 463.132 106.619C462.913 106.46 462.67 106.341 462.403 106.261C462.136 106.182 461.858 106.142 461.568 106.142C461.04 106.142 460.561 106.276 460.132 106.543C459.706 106.81 459.366 107.203 459.114 107.723C458.864 108.243 458.739 108.881 458.739 109.636C458.739 110.392 458.864 111.03 459.114 111.55C459.366 112.07 459.706 112.463 460.132 112.73C460.561 112.997 461.04 113.131 461.568 113.131C461.858 113.131 462.136 113.091 462.403 113.011C462.67 112.932 462.913 112.814 463.132 112.658C463.354 112.499 463.541 112.304 463.695 112.074C463.851 111.841 463.96 111.574 464.023 111.273H465.08C465 111.719 464.855 112.118 464.645 112.47C464.435 112.822 464.173 113.122 463.861 113.369C463.548 113.614 463.197 113.8 462.808 113.928C462.422 114.055 462.009 114.119 461.568 114.119C460.824 114.119 460.162 113.938 459.582 113.574C459.003 113.21 458.547 112.693 458.214 112.023C457.882 111.352 457.716 110.557 457.716 109.636C457.716 108.716 457.882 107.92 458.214 107.25C458.547 106.58 459.003 106.062 459.582 105.699C460.162 105.335 460.824 105.153 461.568 105.153C462.009 105.153 462.422 105.217 462.808 105.345C463.197 105.473 463.548 105.661 463.861 105.908C464.173 106.152 464.435 106.45 464.645 106.803C464.855 107.152 465 107.551 465.08 108ZM466.787 114V105.273H472.054V106.21H467.844V109.159H471.782V110.097H467.844V113.062H472.123V114H466.787Z" fill="#3A3A3A"/>
<rect x="386.5" y="98.5" width="94" height="23" rx="3.5" stroke="#DCDCDC"/>
</g>
<g filter="url(#filter1_b_1820_17383)">
<rect x="387" y="138" width="93" height="24" rx="4" fill="white"/>
<rect x="395" y="142" width="17" height="16" rx="1" fill="#EA5555" fill-opacity="0.1"/>
<path d="M404.923 148.727C404.89 148.416 404.75 148.175 404.504 148.002C404.26 147.829 403.943 147.743 403.552 147.743C403.277 147.743 403.042 147.784 402.845 147.867C402.649 147.95 402.498 148.062 402.394 148.205C402.29 148.347 402.237 148.509 402.234 148.691C402.234 148.843 402.269 148.974 402.337 149.085C402.408 149.196 402.504 149.291 402.625 149.369C402.746 149.445 402.88 149.509 403.026 149.561C403.173 149.613 403.321 149.657 403.47 149.692L404.152 149.863C404.427 149.927 404.691 150.013 404.944 150.122C405.2 150.231 405.428 150.368 405.629 150.534C405.833 150.7 405.994 150.9 406.112 151.134C406.231 151.369 406.29 151.643 406.29 151.958C406.29 152.384 406.181 152.759 405.963 153.084C405.745 153.406 405.43 153.658 405.019 153.84C404.609 154.02 404.113 154.11 403.531 154.11C402.965 154.11 402.474 154.022 402.057 153.847C401.643 153.672 401.318 153.416 401.084 153.08C400.852 152.744 400.726 152.335 400.707 151.852H402.004C402.023 152.105 402.101 152.316 402.238 152.484C402.375 152.652 402.554 152.777 402.774 152.86C402.997 152.943 403.245 152.984 403.52 152.984C403.806 152.984 404.057 152.942 404.273 152.857C404.491 152.769 404.661 152.648 404.784 152.494C404.907 152.338 404.97 152.156 404.972 151.947C404.97 151.758 404.914 151.602 404.805 151.479C404.697 151.353 404.544 151.249 404.347 151.166C404.153 151.081 403.926 151.005 403.666 150.939L402.838 150.726C402.239 150.572 401.766 150.339 401.418 150.026C401.072 149.711 400.899 149.294 400.899 148.773C400.899 148.344 401.015 147.969 401.247 147.647C401.482 147.325 401.8 147.075 402.203 146.898C402.605 146.718 403.061 146.628 403.57 146.628C404.086 146.628 404.538 146.718 404.926 146.898C405.317 147.075 405.623 147.323 405.846 147.64C406.069 147.955 406.183 148.317 406.19 148.727H404.923Z" fill="#EA5555"/>
<path d="M416.903 154V153.233L419.784 150.08C420.122 149.71 420.401 149.389 420.619 149.116C420.838 148.841 421 148.582 421.105 148.341C421.213 148.097 421.267 147.841 421.267 147.574C421.267 147.267 421.193 147.001 421.045 146.777C420.901 146.553 420.702 146.379 420.449 146.257C420.196 146.135 419.912 146.074 419.597 146.074C419.261 146.074 418.969 146.143 418.719 146.283C418.472 146.419 418.28 146.611 418.143 146.858C418.01 147.105 417.943 147.395 417.943 147.727H416.938C416.938 147.216 417.055 146.767 417.291 146.381C417.527 145.994 417.848 145.693 418.254 145.477C418.663 145.261 419.122 145.153 419.631 145.153C420.142 145.153 420.595 145.261 420.99 145.477C421.385 145.693 421.695 145.984 421.919 146.351C422.143 146.717 422.256 147.125 422.256 147.574C422.256 147.895 422.197 148.209 422.081 148.516C421.967 148.82 421.768 149.159 421.484 149.534C421.203 149.906 420.812 150.361 420.312 150.898L418.352 152.994V153.062H422.409V154H416.903ZM427.237 145.273V154H426.18V146.381H426.129L423.999 147.795V146.722L426.18 145.273H427.237ZM432.645 154.119C432.287 154.114 431.929 154.045 431.571 153.915C431.213 153.784 430.886 153.564 430.591 153.254C430.295 152.942 430.058 152.52 429.879 151.989C429.7 151.455 429.611 150.784 429.611 149.977C429.611 149.205 429.683 148.52 429.828 147.923C429.973 147.324 430.183 146.82 430.459 146.411C430.734 145.999 431.067 145.686 431.456 145.473C431.848 145.26 432.29 145.153 432.781 145.153C433.27 145.153 433.705 145.251 434.085 145.447C434.469 145.641 434.781 145.911 435.023 146.257C435.264 146.604 435.42 147.003 435.491 147.455H434.452C434.355 147.062 434.168 146.737 433.889 146.479C433.611 146.22 433.241 146.091 432.781 146.091C432.105 146.091 431.572 146.385 431.183 146.973C430.797 147.561 430.602 148.386 430.599 149.449H430.668C430.827 149.207 431.016 149.001 431.234 148.831C431.456 148.658 431.7 148.524 431.967 148.43C432.234 148.337 432.517 148.29 432.815 148.29C433.315 148.29 433.773 148.415 434.188 148.665C434.602 148.912 434.935 149.254 435.185 149.692C435.435 150.126 435.56 150.625 435.56 151.188C435.56 151.727 435.439 152.222 435.197 152.67C434.956 153.116 434.616 153.472 434.179 153.736C433.744 153.997 433.233 154.125 432.645 154.119ZM432.645 153.182C433.003 153.182 433.324 153.092 433.608 152.913C433.895 152.734 434.121 152.494 434.286 152.193C434.453 151.892 434.537 151.557 434.537 151.188C434.537 150.827 434.456 150.499 434.294 150.203C434.135 149.905 433.915 149.668 433.634 149.491C433.355 149.315 433.037 149.227 432.679 149.227C432.409 149.227 432.158 149.281 431.925 149.389C431.692 149.494 431.487 149.639 431.311 149.824C431.138 150.009 431.001 150.22 430.902 150.459C430.803 150.695 430.753 150.943 430.753 151.205C430.753 151.551 430.834 151.875 430.996 152.176C431.161 152.477 431.385 152.72 431.669 152.905C431.956 153.089 432.281 153.182 432.645 153.182ZM440.082 154.119C439.44 154.119 438.893 153.945 438.441 153.595C437.99 153.243 437.645 152.733 437.406 152.065C437.167 151.395 437.048 150.585 437.048 149.636C437.048 148.693 437.167 147.888 437.406 147.22C437.647 146.55 437.994 146.038 438.446 145.686C438.9 145.331 439.446 145.153 440.082 145.153C440.718 145.153 441.262 145.331 441.714 145.686C442.169 146.038 442.515 146.55 442.754 147.22C442.995 147.888 443.116 148.693 443.116 149.636C443.116 150.585 442.997 151.395 442.758 152.065C442.52 152.733 442.174 153.243 441.723 153.595C441.271 153.945 440.724 154.119 440.082 154.119ZM440.082 153.182C440.718 153.182 441.213 152.875 441.565 152.261C441.917 151.648 442.093 150.773 442.093 149.636C442.093 148.881 442.012 148.237 441.85 147.706C441.691 147.175 441.461 146.77 441.16 146.491C440.862 146.213 440.502 146.074 440.082 146.074C439.451 146.074 438.958 146.385 438.603 147.007C438.248 147.626 438.071 148.503 438.071 149.636C438.071 150.392 438.15 151.034 438.309 151.562C438.468 152.091 438.697 152.493 438.995 152.768C439.297 153.044 439.659 153.182 440.082 153.182ZM447.582 154.119C446.94 154.119 446.393 153.945 445.941 153.595C445.49 153.243 445.145 152.733 444.906 152.065C444.667 151.395 444.548 150.585 444.548 149.636C444.548 148.693 444.667 147.888 444.906 147.22C445.147 146.55 445.494 146.038 445.946 145.686C446.4 145.331 446.946 145.153 447.582 145.153C448.218 145.153 448.762 145.331 449.214 145.686C449.669 146.038 450.015 146.55 450.254 147.22C450.495 147.888 450.616 148.693 450.616 149.636C450.616 150.585 450.497 151.395 450.258 152.065C450.02 152.733 449.674 153.243 449.223 153.595C448.771 153.945 448.224 154.119 447.582 154.119ZM447.582 153.182C448.218 153.182 448.713 152.875 449.065 152.261C449.417 151.648 449.593 150.773 449.593 149.636C449.593 148.881 449.512 148.237 449.35 147.706C449.191 147.175 448.961 146.77 448.66 146.491C448.362 146.213 448.002 146.074 447.582 146.074C446.951 146.074 446.458 146.385 446.103 147.007C445.748 147.626 445.571 148.503 445.571 149.636C445.571 150.392 445.65 151.034 445.809 151.562C445.968 152.091 446.197 152.493 446.495 152.768C446.797 153.044 447.159 153.182 447.582 153.182Z" fill="#3A3A3A"/>
<path d="M464.08 148H463.023C462.96 147.696 462.851 147.429 462.695 147.199C462.541 146.969 462.354 146.776 462.132 146.619C461.913 146.46 461.67 146.341 461.403 146.261C461.136 146.182 460.858 146.142 460.568 146.142C460.04 146.142 459.561 146.276 459.132 146.543C458.706 146.81 458.366 147.203 458.114 147.723C457.864 148.243 457.739 148.881 457.739 149.636C457.739 150.392 457.864 151.03 458.114 151.55C458.366 152.07 458.706 152.463 459.132 152.73C459.561 152.997 460.04 153.131 460.568 153.131C460.858 153.131 461.136 153.091 461.403 153.011C461.67 152.932 461.913 152.814 462.132 152.658C462.354 152.499 462.541 152.304 462.695 152.074C462.851 151.841 462.96 151.574 463.023 151.273H464.08C464 151.719 463.855 152.118 463.645 152.47C463.435 152.822 463.173 153.122 462.861 153.369C462.548 153.614 462.197 153.8 461.808 153.928C461.422 154.055 461.009 154.119 460.568 154.119C459.824 154.119 459.162 153.938 458.582 153.574C458.003 153.21 457.547 152.693 457.214 152.023C456.882 151.352 456.716 150.557 456.716 149.636C456.716 148.716 456.882 147.92 457.214 147.25C457.547 146.58 458.003 146.062 458.582 145.699C459.162 145.335 459.824 145.153 460.568 145.153C461.009 145.153 461.422 145.217 461.808 145.345C462.197 145.473 462.548 145.661 462.861 145.908C463.173 146.152 463.435 146.45 463.645 146.803C463.855 147.152 464 147.551 464.08 148ZM465.787 154V145.273H471.054V146.21H466.844V149.159H470.782V150.097H466.844V153.062H471.123V154H465.787Z" fill="#3A3A3A"/>
<rect x="387.5" y="138.5" width="92" height="23" rx="3.5" stroke="#DCDCDC"/>
</g>
<path d="M344.75 46H342.057V37.2727H344.869C345.716 37.2727 346.44 37.4474 347.043 37.7969C347.645 38.1435 348.107 38.642 348.428 39.2926C348.749 39.9403 348.909 40.7159 348.909 41.6193C348.909 42.5284 348.747 43.3111 348.423 43.9673C348.099 44.6207 347.628 45.1236 347.009 45.4759C346.389 45.8253 345.636 46 344.75 46ZM343.114 45.0625H344.682C345.403 45.0625 346.001 44.9233 346.476 44.6449C346.95 44.3665 347.304 43.9702 347.537 43.456C347.77 42.9418 347.886 42.3295 347.886 41.6193C347.886 40.9148 347.771 40.3082 347.541 39.7997C347.311 39.2884 346.967 38.8963 346.51 38.6236C346.053 38.348 345.483 38.2102 344.801 38.2102H343.114V45.0625ZM353.29 46.1364C352.659 46.1364 352.115 45.9972 351.658 45.7188C351.203 45.4375 350.852 45.0455 350.605 44.5426C350.361 44.0369 350.239 43.4489 350.239 42.7784C350.239 42.108 350.361 41.517 350.605 41.0057C350.852 40.4915 351.196 40.0909 351.636 39.804C352.08 39.5142 352.597 39.3693 353.188 39.3693C353.528 39.3693 353.865 39.4261 354.197 39.5398C354.53 39.6534 354.832 39.8381 355.105 40.0938C355.378 40.3466 355.595 40.6818 355.757 41.0994C355.919 41.517 356 42.0312 356 42.642V43.0682H350.955V42.1989H354.977C354.977 41.8295 354.903 41.5 354.756 41.2102C354.611 40.9205 354.403 40.6918 354.134 40.5241C353.866 40.3565 353.551 40.2727 353.188 40.2727C352.787 40.2727 352.44 40.3722 352.148 40.571C351.858 40.767 351.635 41.0227 351.479 41.3381C351.322 41.6534 351.244 41.9915 351.244 42.3523V42.9318C351.244 43.4261 351.33 43.8452 351.5 44.1889C351.673 44.5298 351.913 44.7898 352.22 44.9688C352.527 45.1449 352.884 45.233 353.29 45.233C353.554 45.233 353.793 45.196 354.006 45.1222C354.222 45.0455 354.408 44.9318 354.564 44.7812C354.72 44.6278 354.841 44.4375 354.926 44.2102L355.898 44.483C355.795 44.8125 355.624 45.1023 355.382 45.3523C355.141 45.5994 354.842 45.7926 354.487 45.9318C354.132 46.0682 353.733 46.1364 353.29 46.1364ZM357.53 48.4545V39.4545H358.501V40.4943H358.621C358.695 40.3807 358.797 40.2358 358.928 40.0597C359.061 39.8807 359.251 39.7216 359.499 39.5824C359.749 39.4403 360.087 39.3693 360.513 39.3693C361.064 39.3693 361.55 39.5071 361.97 39.7827C362.391 40.0582 362.719 40.4489 362.955 40.9545C363.19 41.4602 363.308 42.0568 363.308 42.7443C363.308 43.4375 363.19 44.0384 362.955 44.5469C362.719 45.0526 362.392 45.4446 361.974 45.723C361.557 45.9986 361.075 46.1364 360.53 46.1364C360.109 46.1364 359.773 46.0668 359.52 45.9276C359.267 45.7855 359.072 45.625 358.936 45.446C358.8 45.2642 358.695 45.1136 358.621 44.9943H358.536V48.4545H357.53ZM358.518 42.7273C358.518 43.2216 358.591 43.6577 358.736 44.0355C358.881 44.4105 359.092 44.7045 359.371 44.9176C359.649 45.1278 359.99 45.233 360.393 45.233C360.814 45.233 361.165 45.1222 361.446 44.9006C361.73 44.6761 361.943 44.375 362.085 43.9972C362.23 43.6165 362.303 43.1932 362.303 42.7273C362.303 42.267 362.232 41.8523 362.089 41.483C361.95 41.1108 361.739 40.8168 361.455 40.6009C361.173 40.3821 360.82 40.2727 360.393 40.2727C359.984 40.2727 359.641 40.3764 359.362 40.5838C359.084 40.7884 358.874 41.0753 358.732 41.4446C358.589 41.8111 358.518 42.2386 358.518 42.7273ZM365.848 37.2727V46H364.842V37.2727H365.848ZM370.349 46.1364C369.758 46.1364 369.24 45.9957 368.794 45.7145C368.35 45.4332 368.004 45.0398 367.754 44.5341C367.507 44.0284 367.383 43.4375 367.383 42.7614C367.383 42.0795 367.507 41.4844 367.754 40.9759C368.004 40.4673 368.35 40.0724 368.794 39.7912C369.24 39.5099 369.758 39.3693 370.349 39.3693C370.94 39.3693 371.457 39.5099 371.9 39.7912C372.346 40.0724 372.693 40.4673 372.94 40.9759C373.19 41.4844 373.315 42.0795 373.315 42.7614C373.315 43.4375 373.19 44.0284 372.94 44.5341C372.693 45.0398 372.346 45.4332 371.9 45.7145C371.457 45.9957 370.94 46.1364 370.349 46.1364ZM370.349 45.233C370.798 45.233 371.167 45.1179 371.457 44.8878C371.747 44.6577 371.961 44.3551 372.1 43.9801C372.24 43.6051 372.309 43.1989 372.309 42.7614C372.309 42.3239 372.24 41.9162 372.1 41.5384C371.961 41.1605 371.747 40.8551 371.457 40.6222C371.167 40.3892 370.798 40.2727 370.349 40.2727C369.9 40.2727 369.531 40.3892 369.241 40.6222C368.951 40.8551 368.737 41.1605 368.598 41.5384C368.458 41.9162 368.389 42.3239 368.389 42.7614C368.389 43.1989 368.458 43.6051 368.598 43.9801C368.737 44.3551 368.951 44.6577 369.241 44.8878C369.531 45.1179 369.9 45.233 370.349 45.233ZM375.263 48.4545C375.093 48.4545 374.941 48.4403 374.808 48.4119C374.674 48.3864 374.582 48.3608 374.531 48.3352L374.786 47.4489C375.031 47.5114 375.246 47.5341 375.434 47.517C375.621 47.5 375.788 47.4162 375.933 47.2656C376.08 47.1179 376.215 46.8778 376.337 46.5455L376.525 46.0341L374.104 39.4545H375.195L377.002 44.6705H377.07L378.877 39.4545H379.968L377.19 46.9545C377.065 47.2926 376.91 47.5724 376.725 47.794C376.54 48.0185 376.326 48.1847 376.082 48.2926C375.84 48.4006 375.567 48.4545 375.263 48.4545ZM385.932 40.9205L385.028 41.1761C384.972 41.0256 384.888 40.8793 384.777 40.7372C384.669 40.5923 384.521 40.473 384.334 40.3793C384.146 40.2855 383.906 40.2386 383.614 40.2386C383.213 40.2386 382.879 40.331 382.612 40.5156C382.348 40.6974 382.216 40.929 382.216 41.2102C382.216 41.4602 382.307 41.6577 382.489 41.8026C382.67 41.9474 382.955 42.0682 383.341 42.1648L384.312 42.4034C384.898 42.5455 385.334 42.7628 385.621 43.0554C385.908 43.3452 386.051 43.7187 386.051 44.1761C386.051 44.5511 385.943 44.8864 385.727 45.1818C385.514 45.4773 385.216 45.7102 384.832 45.8807C384.449 46.0511 384.003 46.1364 383.494 46.1364C382.827 46.1364 382.274 45.9915 381.837 45.7017C381.399 45.4119 381.122 44.9886 381.006 44.4318L381.96 44.1932C382.051 44.5455 382.223 44.8097 382.476 44.9858C382.732 45.1619 383.065 45.25 383.477 45.25C383.946 45.25 384.318 45.1506 384.594 44.9517C384.872 44.75 385.011 44.5085 385.011 44.2273C385.011 44 384.932 43.8097 384.773 43.6562C384.614 43.5 384.369 43.3835 384.04 43.3068L382.949 43.0511C382.349 42.9091 381.909 42.6889 381.628 42.3906C381.349 42.0895 381.21 41.7131 381.21 41.2614C381.21 40.892 381.314 40.5653 381.521 40.2812C381.732 39.9972 382.017 39.7741 382.378 39.6122C382.741 39.4503 383.153 39.3693 383.614 39.3693C384.261 39.3693 384.77 39.5114 385.139 39.7955C385.511 40.0795 385.776 40.4545 385.932 40.9205ZM393.787 39.4545V40.3068H390.395V39.4545H393.787ZM391.383 37.8864H392.389V44.125C392.389 44.4091 392.43 44.6222 392.512 44.7642C392.598 44.9034 392.706 44.9972 392.836 45.0455C392.97 45.0909 393.11 45.1136 393.258 45.1136C393.369 45.1136 393.46 45.108 393.531 45.0966C393.602 45.0824 393.659 45.071 393.701 45.0625L393.906 45.9659C393.838 45.9915 393.743 46.017 393.62 46.0426C393.498 46.071 393.343 46.0852 393.156 46.0852C392.872 46.0852 392.593 46.0241 392.321 45.902C392.051 45.7798 391.826 45.5938 391.647 45.3438C391.471 45.0938 391.383 44.7784 391.383 44.3977V37.8864ZM395.299 46V39.4545H396.271V40.4432H396.339C396.458 40.1193 396.674 39.8565 396.987 39.6548C397.299 39.4531 397.652 39.3523 398.044 39.3523C398.118 39.3523 398.21 39.3537 398.321 39.3565C398.431 39.3594 398.515 39.3636 398.572 39.3693V40.392C398.538 40.3835 398.46 40.3707 398.338 40.3537C398.218 40.3338 398.092 40.3239 397.958 40.3239C397.64 40.3239 397.356 40.3906 397.106 40.5241C396.859 40.6548 396.663 40.8366 396.518 41.0696C396.376 41.2997 396.305 41.5625 396.305 41.858V46H395.299ZM401.69 46.1534C401.276 46.1534 400.899 46.0753 400.561 45.919C400.223 45.7599 399.955 45.5312 399.756 45.233C399.557 44.9318 399.457 44.5682 399.457 44.142C399.457 43.767 399.531 43.4631 399.679 43.2301C399.827 42.9943 400.024 42.8097 400.271 42.6761C400.518 42.5426 400.791 42.4432 401.089 42.3778C401.391 42.3097 401.693 42.2557 401.997 42.2159C402.395 42.1648 402.717 42.1264 402.964 42.1009C403.214 42.0724 403.396 42.0256 403.51 41.9602C403.626 41.8949 403.685 41.7812 403.685 41.6193V41.5852C403.685 41.1648 403.57 40.8381 403.339 40.6051C403.112 40.3722 402.767 40.2557 402.304 40.2557C401.824 40.2557 401.447 40.3608 401.175 40.571C400.902 40.7812 400.71 41.0057 400.599 41.2443L399.645 40.9034C399.815 40.5057 400.043 40.196 400.327 39.9744C400.614 39.75 400.926 39.5937 401.264 39.5057C401.605 39.4148 401.94 39.3693 402.27 39.3693C402.48 39.3693 402.722 39.3949 402.994 39.446C403.27 39.4943 403.536 39.5952 403.791 39.7486C404.05 39.902 404.264 40.1335 404.435 40.4432C404.605 40.7528 404.69 41.1676 404.69 41.6875V46H403.685V45.1136H403.634C403.565 45.2557 403.452 45.4077 403.293 45.5696C403.134 45.7315 402.922 45.8693 402.658 45.983C402.393 46.0966 402.071 46.1534 401.69 46.1534ZM401.844 45.25C402.241 45.25 402.577 45.1719 402.849 45.0156C403.125 44.8594 403.332 44.6577 403.472 44.4105C403.614 44.1634 403.685 43.9034 403.685 43.6307V42.7102C403.642 42.7614 403.548 42.8082 403.403 42.8509C403.261 42.8906 403.097 42.9261 402.909 42.9574C402.724 42.9858 402.544 43.0114 402.368 43.0341C402.195 43.054 402.054 43.071 401.946 43.0852C401.685 43.1193 401.44 43.1747 401.213 43.2514C400.989 43.3253 400.807 43.4375 400.668 43.5881C400.531 43.7358 400.463 43.9375 400.463 44.1932C400.463 44.5426 400.592 44.8068 400.851 44.9858C401.112 45.1619 401.443 45.25 401.844 45.25ZM408.998 46.1364C408.452 46.1364 407.971 45.9986 407.553 45.723C407.135 45.4446 406.809 45.0526 406.573 44.5469C406.337 44.0384 406.219 43.4375 406.219 42.7443C406.219 42.0568 406.337 41.4602 406.573 40.9545C406.809 40.4489 407.137 40.0582 407.557 39.7827C407.978 39.5071 408.463 39.3693 409.015 39.3693C409.441 39.3693 409.777 39.4403 410.025 39.5824C410.275 39.7216 410.465 39.8807 410.596 40.0597C410.729 40.2358 410.833 40.3807 410.907 40.4943H410.992V37.2727H411.998V46H411.026V44.9943H410.907C410.833 45.1136 410.728 45.2642 410.591 45.446C410.455 45.625 410.26 45.7855 410.007 45.9276C409.755 46.0668 409.418 46.1364 408.998 46.1364ZM409.134 45.233C409.537 45.233 409.878 45.1278 410.157 44.9176C410.435 44.7045 410.647 44.4105 410.792 44.0355C410.936 43.6577 411.009 43.2216 411.009 42.7273C411.009 42.2386 410.938 41.8111 410.796 41.4446C410.654 41.0753 410.444 40.7884 410.165 40.5838C409.887 40.3764 409.543 40.2727 409.134 40.2727C408.708 40.2727 408.353 40.3821 408.069 40.6009C407.787 40.8168 407.576 41.1108 407.434 41.483C407.294 41.8523 407.225 42.267 407.225 42.7273C407.225 43.1932 407.296 43.6165 407.438 43.9972C407.583 44.375 407.796 44.6761 408.077 44.9006C408.361 45.1222 408.713 45.233 409.134 45.233ZM416.723 46.1364C416.093 46.1364 415.549 45.9972 415.091 45.7188C414.637 45.4375 414.286 45.0455 414.039 44.5426C413.794 44.0369 413.672 43.4489 413.672 42.7784C413.672 42.108 413.794 41.517 414.039 41.0057C414.286 40.4915 414.63 40.0909 415.07 39.804C415.513 39.5142 416.03 39.3693 416.621 39.3693C416.962 39.3693 417.299 39.4261 417.631 39.5398C417.963 39.6534 418.266 39.8381 418.539 40.0938C418.811 40.3466 419.029 40.6818 419.191 41.0994C419.353 41.517 419.434 42.0312 419.434 42.642V43.0682H414.388V42.1989H418.411C418.411 41.8295 418.337 41.5 418.189 41.2102C418.044 40.9205 417.837 40.6918 417.567 40.5241C417.3 40.3565 416.985 40.2727 416.621 40.2727C416.221 40.2727 415.874 40.3722 415.581 40.571C415.292 40.767 415.069 41.0227 414.912 41.3381C414.756 41.6534 414.678 41.9915 414.678 42.3523V42.9318C414.678 43.4261 414.763 43.8452 414.934 44.1889C415.107 44.5298 415.347 44.7898 415.654 44.9688C415.961 45.1449 416.317 45.233 416.723 45.233C416.988 45.233 417.226 45.196 417.439 45.1222C417.655 45.0455 417.841 44.9318 417.998 44.7812C418.154 44.6278 418.275 44.4375 418.36 44.2102L419.331 44.483C419.229 44.8125 419.057 45.1023 418.816 45.3523C418.574 45.5994 418.276 45.7926 417.921 45.9318C417.566 46.0682 417.167 46.1364 416.723 46.1364ZM425.6 40.9205L424.696 41.1761C424.64 41.0256 424.556 40.8793 424.445 40.7372C424.337 40.5923 424.189 40.473 424.002 40.3793C423.814 40.2855 423.574 40.2386 423.282 40.2386C422.881 40.2386 422.547 40.331 422.28 40.5156C422.016 40.6974 421.884 40.929 421.884 41.2102C421.884 41.4602 421.975 41.6577 422.157 41.8026C422.338 41.9474 422.623 42.0682 423.009 42.1648L423.98 42.4034C424.566 42.5455 425.002 42.7628 425.289 43.0554C425.576 43.3452 425.719 43.7187 425.719 44.1761C425.719 44.5511 425.611 44.8864 425.395 45.1818C425.182 45.4773 424.884 45.7102 424.5 45.8807C424.117 46.0511 423.671 46.1364 423.162 46.1364C422.495 46.1364 421.942 45.9915 421.505 45.7017C421.067 45.4119 420.79 44.9886 420.674 44.4318L421.628 44.1932C421.719 44.5455 421.891 44.8097 422.144 44.9858C422.4 45.1619 422.733 45.25 423.145 45.25C423.614 45.25 423.986 45.1506 424.262 44.9517C424.54 44.75 424.679 44.5085 424.679 44.2273C424.679 44 424.6 43.8097 424.441 43.6562C424.282 43.5 424.037 43.3835 423.708 43.3068L422.617 43.0511C422.017 42.9091 421.577 42.6889 421.296 42.3906C421.017 42.0895 420.878 41.7131 420.878 41.2614C420.878 40.892 420.982 40.5653 421.189 40.2812C421.4 39.9972 421.685 39.7741 422.046 39.6122C422.409 39.4503 422.821 39.3693 423.282 39.3693C423.929 39.3693 424.438 39.5114 424.807 39.7955C425.179 40.0795 425.444 40.4545 425.6 40.9205Z" fill="#808080"/>
<ellipse cx="322.96" cy="42" rx="6.54167" ry="10" fill="#375A9E"/>
<circle cx="323" cy="42" r="10" fill="#375A9E"/>
<path d="M323 32C317.477 32 313 36.4772 313 42C313 43.2895 313.244 44.522 313.689 45.6538L319.923 40.6538L324.346 45.6538L328.667 41.4167L331.083 38.9583L331.667 37C330.083 34 326.662 32 323 32Z" fill="#49ADBB"/>
<path fill-rule="evenodd" clip-rule="evenodd" d="M332.081 38.375L324.449 46.1994L319.89 40.9614L313.953 45.9705L313.581 45.5295L319.952 40.1541L324.431 45.3006L331.632 38.0134L332.081 38.375Z" fill="white"/>
<path fill-rule="evenodd" clip-rule="evenodd" d="M314.238 46.8241C313.813 46.0527 313.486 45.2192 313.275 44.3406C313.371 44.319 313.47 44.3076 313.572 44.3076C314.316 44.3076 314.919 44.9103 314.919 45.6538C314.919 46.1551 314.645 46.5924 314.238 46.8241Z" fill="white"/>
<path fill-rule="evenodd" clip-rule="evenodd" d="M331.671 37.0232C332.109 37.7865 332.45 38.6132 332.676 39.4862C332.473 39.6089 332.235 39.6795 331.981 39.6795C331.237 39.6795 330.635 39.0769 330.635 38.3334C330.635 37.6967 331.077 37.1633 331.671 37.0232Z" fill="white"/>
<ellipse cx="1.34615" cy="1.34615" rx="1.34615" ry="1.34615" transform="matrix(-1 0 0 1 321.266 39.3076)" fill="white"/>
<ellipse cx="1.34615" cy="1.34615" rx="1.34615" ry="1.34615" transform="matrix(-1 0 0 1 325.69 44.3076)" fill="white"/>
<path d="M129.057 112V103.273H132.108C132.716 103.273 133.217 103.378 133.612 103.588C134.007 103.795 134.301 104.075 134.494 104.428C134.688 104.777 134.784 105.165 134.784 105.591C134.784 105.966 134.717 106.276 134.584 106.52C134.453 106.764 134.28 106.957 134.064 107.099C133.851 107.241 133.619 107.347 133.369 107.415V107.5C133.636 107.517 133.905 107.611 134.175 107.781C134.445 107.952 134.67 108.196 134.852 108.514C135.034 108.832 135.125 109.222 135.125 109.682C135.125 110.119 135.026 110.513 134.827 110.862C134.628 111.212 134.314 111.489 133.885 111.693C133.456 111.898 132.898 112 132.21 112H129.057ZM130.114 111.062H132.21C132.901 111.062 133.391 110.929 133.68 110.662C133.973 110.392 134.119 110.065 134.119 109.682C134.119 109.386 134.044 109.114 133.893 108.864C133.743 108.611 133.528 108.409 133.25 108.259C132.972 108.105 132.642 108.028 132.261 108.028H130.114V111.062ZM130.114 107.108H132.074C132.392 107.108 132.679 107.045 132.935 106.92C133.193 106.795 133.398 106.619 133.548 106.392C133.702 106.165 133.778 105.898 133.778 105.591C133.778 105.207 133.645 104.882 133.378 104.615C133.111 104.345 132.688 104.21 132.108 104.21H130.114V107.108ZM140.85 109.324V105.455H141.856V112H140.85V110.892H140.782C140.629 111.224 140.39 111.507 140.066 111.74C139.742 111.97 139.333 112.085 138.839 112.085C138.43 112.085 138.066 111.996 137.748 111.817C137.43 111.635 137.18 111.362 136.998 110.999C136.816 110.632 136.725 110.17 136.725 109.614V105.455H137.731V109.545C137.731 110.023 137.864 110.403 138.131 110.688C138.401 110.972 138.745 111.114 139.163 111.114C139.413 111.114 139.667 111.05 139.925 110.922C140.187 110.794 140.406 110.598 140.582 110.334C140.761 110.07 140.85 109.733 140.85 109.324ZM144.346 114.455C144.175 114.455 144.023 114.44 143.89 114.412C143.756 114.386 143.664 114.361 143.613 114.335L143.868 113.449C144.113 113.511 144.328 113.534 144.516 113.517C144.703 113.5 144.87 113.416 145.015 113.266C145.162 113.118 145.297 112.878 145.419 112.545L145.607 112.034L143.186 105.455H144.277L146.084 110.67H146.152L147.959 105.455H149.05L146.272 112.955C146.147 113.293 145.992 113.572 145.807 113.794C145.623 114.018 145.408 114.185 145.164 114.293C144.922 114.401 144.65 114.455 144.346 114.455Z" fill="black"/>
<path d="M242.83 160.455C242.778 160.023 242.571 159.688 242.207 159.449C241.844 159.21 241.398 159.091 240.869 159.091C240.483 159.091 240.145 159.153 239.855 159.278C239.568 159.403 239.344 159.575 239.182 159.794C239.023 160.013 238.943 160.261 238.943 160.54C238.943 160.773 238.999 160.973 239.109 161.141C239.223 161.305 239.368 161.443 239.544 161.554C239.72 161.662 239.905 161.751 240.098 161.822C240.291 161.891 240.469 161.946 240.631 161.989L241.517 162.227C241.744 162.287 241.997 162.369 242.276 162.474C242.557 162.58 242.825 162.723 243.081 162.905C243.339 163.084 243.553 163.314 243.72 163.595C243.888 163.876 243.972 164.222 243.972 164.631C243.972 165.102 243.848 165.528 243.601 165.909C243.357 166.29 242.999 166.592 242.527 166.817C242.058 167.041 241.489 167.153 240.818 167.153C240.193 167.153 239.652 167.053 239.195 166.851C238.74 166.649 238.382 166.368 238.121 166.007C237.862 165.646 237.716 165.227 237.682 164.75H238.773C238.801 165.08 238.912 165.352 239.105 165.568C239.301 165.781 239.548 165.94 239.847 166.045C240.148 166.148 240.472 166.199 240.818 166.199C241.222 166.199 241.584 166.134 241.905 166.003C242.226 165.869 242.48 165.685 242.668 165.449C242.855 165.21 242.949 164.932 242.949 164.614C242.949 164.324 242.868 164.088 242.706 163.906C242.544 163.724 242.331 163.577 242.067 163.463C241.803 163.349 241.517 163.25 241.21 163.165L240.136 162.858C239.455 162.662 238.915 162.382 238.517 162.018C238.119 161.655 237.92 161.179 237.92 160.591C237.92 160.102 238.053 159.676 238.317 159.312C238.584 158.946 238.942 158.662 239.391 158.46C239.842 158.256 240.347 158.153 240.903 158.153C241.466 158.153 241.966 158.254 242.403 158.456C242.841 158.655 243.188 158.928 243.443 159.274C243.702 159.621 243.838 160.014 243.852 160.455H242.83ZM248.317 167.136C247.686 167.136 247.142 166.997 246.685 166.719C246.23 166.438 245.88 166.045 245.632 165.543C245.388 165.037 245.266 164.449 245.266 163.778C245.266 163.108 245.388 162.517 245.632 162.006C245.88 161.491 246.223 161.091 246.664 160.804C247.107 160.514 247.624 160.369 248.215 160.369C248.556 160.369 248.892 160.426 249.225 160.54C249.557 160.653 249.86 160.838 250.132 161.094C250.405 161.347 250.623 161.682 250.784 162.099C250.946 162.517 251.027 163.031 251.027 163.642V164.068H245.982V163.199H250.005C250.005 162.83 249.931 162.5 249.783 162.21C249.638 161.92 249.431 161.692 249.161 161.524C248.894 161.357 248.578 161.273 248.215 161.273C247.814 161.273 247.468 161.372 247.175 161.571C246.885 161.767 246.662 162.023 246.506 162.338C246.35 162.653 246.272 162.991 246.272 163.352V163.932C246.272 164.426 246.357 164.845 246.527 165.189C246.701 165.53 246.941 165.79 247.248 165.969C247.554 166.145 247.911 166.233 248.317 166.233C248.581 166.233 248.82 166.196 249.033 166.122C249.249 166.045 249.435 165.932 249.591 165.781C249.748 165.628 249.868 165.437 249.953 165.21L250.925 165.483C250.823 165.812 250.651 166.102 250.409 166.352C250.168 166.599 249.87 166.793 249.515 166.932C249.159 167.068 248.76 167.136 248.317 167.136ZM253.563 158.273V167H252.557V158.273H253.563ZM256.411 158.273V167H255.405V158.273H256.411Z" fill="black"/>
<defs>
<filter id="filter0_b_1820_17383" x="382" y="94" width="103" height="32" filterUnits="userSpaceOnUse" color-interpolation-filters="sRGB">
<feFlood flood-opacity="0" result="BackgroundImageFix"/>
<feGaussianBlur in="BackgroundImageFix" stdDeviation="2"/>
<feComposite in2="SourceAlpha" operator="in" result="effect1_backgroundBlur_1820_17383"/>
<feBlend mode="normal" in="SourceGraphic" in2="effect1_backgroundBlur_1820_17383" result="shape"/>
</filter>
<filter id="filter1_b_1820_17383" x="383" y="134" width="101" height="32" filterUnits="userSpaceOnUse" color-interpolation-filters="sRGB">
<feFlood flood-opacity="0" result="BackgroundImageFix"/>
<feGaussianBlur in="BackgroundImageFix" stdDeviation="2"/>
<feComposite in2="SourceAlpha" operator="in" result="effect1_backgroundBlur_1820_17383"/>
<feBlend mode="normal" in="SourceGraphic" in2="effect1_backgroundBlur_1820_17383" result="shape"/>
</filter>
<clipPath id="clip0_1820_17383">
<rect width="267" height="188" fill="white" transform="translate(16 24)"/>
</clipPath>
</defs>
</svg>
