<svg width="580" height="300" viewBox="0 0 580 300" fill="none" xmlns="http://www.w3.org/2000/svg">
<g clip-path="url(#clip0_1820_17314)">
<rect width="580" height="300" rx="4" fill="#F8F8F8"/>
<rect x="164" width="416" height="300" rx="6" fill="white"/>
<path d="M204.691 113.639C203.942 113.639 203.304 113.435 202.777 113.028C202.25 112.617 201.848 112.022 201.569 111.243C201.291 110.461 201.152 109.516 201.152 108.409C201.152 107.309 201.291 106.369 201.569 105.59C201.851 104.808 202.255 104.211 202.782 103.8C203.313 103.386 203.949 103.179 204.691 103.179C205.434 103.179 206.069 103.386 206.596 103.8C207.126 104.211 207.53 104.808 207.809 105.59C208.09 106.369 208.231 107.309 208.231 108.409C208.231 109.516 208.092 110.461 207.814 111.243C207.535 112.022 207.132 112.617 206.605 113.028C206.078 113.435 205.44 113.639 204.691 113.639ZM204.691 112.545C205.434 112.545 206.011 112.187 206.422 111.472C206.833 110.756 207.038 109.735 207.038 108.409C207.038 107.527 206.944 106.777 206.755 106.157C206.569 105.537 206.301 105.065 205.949 104.74C205.601 104.415 205.182 104.253 204.691 104.253C203.956 104.253 203.381 104.616 202.966 105.342C202.552 106.064 202.345 107.087 202.345 108.409C202.345 109.291 202.438 110.04 202.623 110.656C202.809 111.273 203.076 111.742 203.424 112.063C203.775 112.385 204.198 112.545 204.691 112.545ZM213.362 103.179C213.779 103.182 214.197 103.262 214.615 103.418C215.032 103.573 215.413 103.832 215.758 104.193C216.103 104.551 216.38 105.04 216.588 105.66C216.797 106.28 216.902 107.057 216.902 107.991C216.902 108.896 216.815 109.7 216.643 110.403C216.474 111.102 216.229 111.692 215.907 112.173C215.589 112.653 215.201 113.018 214.744 113.266C214.29 113.515 213.776 113.639 213.203 113.639C212.633 113.639 212.124 113.527 211.676 113.301C211.232 113.072 210.868 112.756 210.583 112.352C210.301 111.944 210.12 111.472 210.041 110.935H211.254C211.363 111.402 211.58 111.788 211.905 112.093C212.233 112.395 212.666 112.545 213.203 112.545C213.988 112.545 214.608 112.202 215.062 111.516C215.52 110.83 215.748 109.861 215.748 108.608H215.669C215.483 108.886 215.263 109.127 215.007 109.329C214.752 109.531 214.469 109.687 214.157 109.796C213.846 109.906 213.514 109.96 213.163 109.96C212.58 109.96 212.044 109.816 211.557 109.528C211.073 109.236 210.685 108.837 210.394 108.33C210.105 107.819 209.961 107.236 209.961 106.58C209.961 105.956 210.1 105.386 210.379 104.869C210.661 104.349 211.055 103.935 211.562 103.626C212.073 103.318 212.672 103.169 213.362 103.179ZM213.362 104.273C212.944 104.273 212.568 104.377 212.233 104.586C211.902 104.791 211.638 105.07 211.443 105.421C211.251 105.769 211.154 106.155 211.154 106.58C211.154 107.004 211.247 107.39 211.433 107.738C211.622 108.083 211.879 108.358 212.203 108.563C212.532 108.765 212.904 108.866 213.322 108.866C213.637 108.866 213.93 108.805 214.202 108.683C214.474 108.557 214.711 108.386 214.913 108.17C215.118 107.952 215.279 107.705 215.395 107.43C215.511 107.151 215.569 106.861 215.569 106.56C215.569 106.162 215.473 105.789 215.281 105.441C215.092 105.093 214.83 104.811 214.495 104.596C214.164 104.38 213.786 104.273 213.362 104.273ZM219.732 112.197C219.486 112.197 219.276 112.11 219.1 111.934C218.925 111.758 218.837 111.548 218.837 111.303C218.837 111.057 218.925 110.847 219.1 110.671C219.276 110.496 219.486 110.408 219.732 110.408C219.977 110.408 220.187 110.496 220.363 110.671C220.539 110.847 220.627 111.057 220.627 111.303C220.627 111.465 220.585 111.614 220.502 111.75C220.423 111.886 220.315 111.995 220.179 112.078C220.047 112.158 219.897 112.197 219.732 112.197ZM219.732 107.047C219.486 107.047 219.276 106.959 219.1 106.783C218.925 106.608 218.837 106.397 218.837 106.152C218.837 105.907 218.925 105.696 219.1 105.521C219.276 105.345 219.486 105.257 219.732 105.257C219.977 105.257 220.187 105.345 220.363 105.521C220.539 105.696 220.627 105.907 220.627 106.152C220.627 106.314 220.585 106.464 220.502 106.599C220.423 106.735 220.315 106.845 220.179 106.928C220.047 107.007 219.897 107.047 219.732 107.047ZM226.292 103.318V113.5H225.059V104.611H224.999L222.513 106.261V105.009L225.059 103.318H226.292ZM232.402 113.639C231.818 113.639 231.293 113.523 230.826 113.291C230.358 113.059 229.984 112.741 229.702 112.337C229.421 111.932 229.266 111.472 229.24 110.955H230.433C230.479 111.415 230.688 111.796 231.059 112.098C231.434 112.396 231.881 112.545 232.402 112.545C232.819 112.545 233.191 112.448 233.515 112.252C233.844 112.057 234.1 111.788 234.286 111.447C234.475 111.102 234.569 110.713 234.569 110.278C234.569 109.834 234.472 109.438 234.276 109.09C234.084 108.739 233.819 108.462 233.481 108.26C233.143 108.058 232.756 107.955 232.322 107.952C232.011 107.948 231.691 107.996 231.363 108.096C231.035 108.192 230.765 108.316 230.552 108.469L229.399 108.33L230.015 103.318H235.305V104.412H231.05L230.692 107.415H230.751C230.96 107.249 231.222 107.112 231.537 107.002C231.852 106.893 232.18 106.838 232.521 106.838C233.144 106.838 233.699 106.987 234.187 107.286C234.677 107.58 235.062 107.985 235.34 108.499C235.622 109.012 235.763 109.599 235.763 110.259C235.763 110.908 235.617 111.488 235.325 111.999C235.037 112.506 234.639 112.907 234.132 113.202C233.625 113.493 233.048 113.639 232.402 113.639Z" fill="#3A3A3A"/>
<path d="M252.416 108C344.58 108 396.252 108 488.416 108" stroke="url(#paint0_linear_1820_17314)" stroke-width="5.07" stroke-linecap="round"/>
<path d="M508.615 113.639C507.866 113.639 507.228 113.435 506.701 113.028C506.174 112.617 505.771 112.022 505.493 111.243C505.215 110.461 505.075 109.516 505.075 108.409C505.075 107.309 505.215 106.369 505.493 105.59C505.775 104.808 506.179 104.211 506.706 103.8C507.236 103.386 507.873 103.179 508.615 103.179C509.358 103.179 509.992 103.386 510.519 103.8C511.05 104.211 511.454 104.808 511.732 105.59C512.014 106.369 512.155 107.309 512.155 108.409C512.155 109.516 512.016 110.461 511.737 111.243C511.459 112.022 511.056 112.617 510.529 113.028C510.002 113.435 509.364 113.639 508.615 113.639ZM508.615 112.545C509.358 112.545 509.934 112.187 510.345 111.472C510.756 110.756 510.962 109.735 510.962 108.409C510.962 107.527 510.867 106.777 510.678 106.157C510.493 105.537 510.224 105.065 509.873 104.74C509.525 104.415 509.106 104.253 508.615 104.253C507.879 104.253 507.304 104.616 506.89 105.342C506.476 106.064 506.269 107.087 506.269 108.409C506.269 109.291 506.361 110.04 506.547 110.656C506.733 111.273 506.999 111.742 507.347 112.063C507.699 112.385 508.121 112.545 508.615 112.545ZM517.484 113.639C516.828 113.639 516.243 113.527 515.729 113.301C515.219 113.076 514.813 112.763 514.511 112.362C514.213 111.957 514.051 111.488 514.024 110.955H515.277C515.304 111.283 515.416 111.566 515.615 111.805C515.814 112.04 516.074 112.222 516.396 112.352C516.717 112.481 517.073 112.545 517.465 112.545C517.902 112.545 518.29 112.469 518.628 112.317C518.966 112.164 519.231 111.952 519.423 111.68C519.616 111.409 519.712 111.094 519.712 110.736C519.712 110.361 519.619 110.031 519.433 109.746C519.248 109.458 518.976 109.233 518.618 109.07C518.26 108.908 517.822 108.827 517.305 108.827H516.49V107.733H517.305C517.71 107.733 518.064 107.66 518.369 107.514C518.678 107.368 518.918 107.163 519.09 106.898C519.266 106.633 519.354 106.321 519.354 105.963C519.354 105.618 519.278 105.318 519.125 105.063C518.973 104.808 518.757 104.609 518.479 104.467C518.204 104.324 517.879 104.253 517.504 104.253C517.153 104.253 516.822 104.317 516.51 104.447C516.202 104.573 515.95 104.757 515.754 104.999C515.559 105.237 515.453 105.526 515.436 105.864H514.243C514.263 105.33 514.424 104.863 514.725 104.462C515.027 104.057 515.421 103.742 515.908 103.517C516.399 103.292 516.938 103.179 517.524 103.179C518.154 103.179 518.694 103.307 519.145 103.562C519.596 103.814 519.942 104.147 520.184 104.561C520.426 104.975 520.547 105.423 520.547 105.903C520.547 106.477 520.396 106.966 520.095 107.37C519.796 107.774 519.39 108.054 518.876 108.21V108.29C519.519 108.396 520.022 108.669 520.383 109.11C520.744 109.548 520.925 110.089 520.925 110.736C520.925 111.289 520.774 111.786 520.472 112.227C520.174 112.665 519.766 113.009 519.249 113.261C518.732 113.513 518.144 113.639 517.484 113.639ZM523.833 112.197C523.588 112.197 523.377 112.11 523.202 111.934C523.026 111.758 522.938 111.548 522.938 111.303C522.938 111.057 523.026 110.847 523.202 110.671C523.377 110.496 523.588 110.408 523.833 110.408C524.078 110.408 524.289 110.496 524.465 110.671C524.64 110.847 524.728 111.057 524.728 111.303C524.728 111.465 524.687 111.614 524.604 111.75C524.524 111.886 524.416 111.995 524.281 112.078C524.148 112.158 523.999 112.197 523.833 112.197ZM523.833 107.047C523.588 107.047 523.377 106.959 523.202 106.783C523.026 106.608 522.938 106.397 522.938 106.152C522.938 105.907 523.026 105.696 523.202 105.521C523.377 105.345 523.588 105.257 523.833 105.257C524.078 105.257 524.289 105.345 524.465 105.521C524.64 105.696 524.728 105.907 524.728 106.152C524.728 106.314 524.687 106.464 524.604 106.599C524.524 106.735 524.416 106.845 524.281 106.928C524.148 107.007 523.999 107.047 523.833 107.047ZM530.254 113.639C529.598 113.639 529.013 113.527 528.499 113.301C527.989 113.076 527.583 112.763 527.281 112.362C526.983 111.957 526.82 111.488 526.794 110.955H528.047C528.073 111.283 528.186 111.566 528.385 111.805C528.584 112.04 528.844 112.222 529.165 112.352C529.487 112.481 529.843 112.545 530.234 112.545C530.672 112.545 531.059 112.469 531.397 112.317C531.735 112.164 532.001 111.952 532.193 111.68C532.385 111.409 532.481 111.094 532.481 110.736C532.481 110.361 532.388 110.031 532.203 109.746C532.017 109.458 531.745 109.233 531.387 109.07C531.03 108.908 530.592 108.827 530.075 108.827H529.26V107.733H530.075C530.479 107.733 530.834 107.66 531.139 107.514C531.447 107.368 531.687 107.163 531.86 106.898C532.035 106.633 532.123 106.321 532.123 105.963C532.123 105.618 532.047 105.318 531.895 105.063C531.742 104.808 531.527 104.609 531.248 104.467C530.973 104.324 530.648 104.253 530.274 104.253C529.923 104.253 529.591 104.317 529.28 104.447C528.971 104.573 528.719 104.757 528.524 104.999C528.328 105.237 528.222 105.526 528.206 105.864H527.012C527.032 105.33 527.193 104.863 527.495 104.462C527.796 104.057 528.191 103.742 528.678 103.517C529.168 103.292 529.707 103.179 530.294 103.179C530.923 103.179 531.464 103.307 531.914 103.562C532.365 103.814 532.712 104.147 532.954 104.561C533.195 104.975 533.316 105.423 533.316 105.903C533.316 106.477 533.166 106.966 532.864 107.37C532.566 107.774 532.16 108.054 531.646 108.21V108.29C532.289 108.396 532.791 108.669 533.152 109.11C533.514 109.548 533.694 110.089 533.694 110.736C533.694 111.289 533.543 111.786 533.242 112.227C532.944 112.665 532.536 113.009 532.019 113.261C531.502 113.513 530.914 113.639 530.254 113.639ZM539.049 113.639C538.3 113.639 537.662 113.435 537.135 113.028C536.608 112.617 536.205 112.022 535.927 111.243C535.648 110.461 535.509 109.516 535.509 108.409C535.509 107.309 535.648 106.369 535.927 105.59C536.208 104.808 536.613 104.211 537.14 103.8C537.67 103.386 538.306 103.179 539.049 103.179C539.791 103.179 540.426 103.386 540.953 103.8C541.483 104.211 541.887 104.808 542.166 105.59C542.448 106.369 542.588 107.309 542.588 108.409C542.588 109.516 542.449 110.461 542.171 111.243C541.892 112.022 541.49 112.617 540.963 113.028C540.436 113.435 539.798 113.639 539.049 113.639ZM539.049 112.545C539.791 112.545 540.368 112.187 540.779 111.472C541.19 110.756 541.395 109.735 541.395 108.409C541.395 107.527 541.301 106.777 541.112 106.157C540.926 105.537 540.658 105.065 540.307 104.74C539.959 104.415 539.539 104.253 539.049 104.253C538.313 104.253 537.738 104.616 537.324 105.342C536.909 106.064 536.702 107.087 536.702 108.409C536.702 109.291 536.795 110.04 536.981 110.656C537.166 111.273 537.433 111.742 537.781 112.063C538.132 112.385 538.555 112.545 539.049 112.545Z" fill="#3A3A3A"/>
<rect x="184.5" y="86.5" width="374.832" height="43" rx="1.5" stroke="#F3F3F3"/>
<g opacity="0.2">
<path d="M205.903 47V46.233L208.784 43.0795C209.122 42.7102 209.401 42.3892 209.619 42.1165C209.838 41.8409 210 41.5824 210.105 41.3409C210.213 41.0966 210.267 40.8409 210.267 40.5739C210.267 40.267 210.193 40.0014 210.045 39.777C209.901 39.5526 209.702 39.3793 209.449 39.2571C209.196 39.1349 208.912 39.0739 208.597 39.0739C208.261 39.0739 207.969 39.1435 207.719 39.2827C207.472 39.419 207.28 39.6108 207.143 39.858C207.01 40.1051 206.943 40.3949 206.943 40.7273H205.938C205.938 40.2159 206.055 39.767 206.291 39.3807C206.527 38.9943 206.848 38.6932 207.254 38.4773C207.663 38.2614 208.122 38.1534 208.631 38.1534C209.142 38.1534 209.595 38.2614 209.99 38.4773C210.385 38.6932 210.695 38.9844 210.919 39.3509C211.143 39.7173 211.256 40.125 211.256 40.5739C211.256 40.8949 211.197 41.2088 211.081 41.5156C210.967 41.8196 210.768 42.1591 210.484 42.5341C210.203 42.9062 209.812 43.3608 209.312 43.8977L207.352 45.9943V46.0625H211.409V47H205.903ZM216.016 47.1193C215.374 47.1193 214.827 46.9446 214.375 46.5952C213.923 46.2429 213.578 45.733 213.339 45.0653C213.101 44.3949 212.982 43.5852 212.982 42.6364C212.982 41.6932 213.101 40.8878 213.339 40.2202C213.581 39.5497 213.928 39.0384 214.379 38.6861C214.834 38.331 215.379 38.1534 216.016 38.1534C216.652 38.1534 217.196 38.331 217.648 38.6861C218.102 39.0384 218.449 39.5497 218.688 40.2202C218.929 40.8878 219.05 41.6932 219.05 42.6364C219.05 43.5852 218.93 44.3949 218.692 45.0653C218.453 45.733 218.108 46.2429 217.656 46.5952C217.205 46.9446 216.658 47.1193 216.016 47.1193ZM216.016 46.1818C216.652 46.1818 217.146 45.875 217.499 45.2614C217.851 44.6477 218.027 43.7727 218.027 42.6364C218.027 41.8807 217.946 41.2372 217.784 40.706C217.625 40.1747 217.395 39.7699 217.094 39.4915C216.795 39.2131 216.436 39.0739 216.016 39.0739C215.385 39.0739 214.892 39.3849 214.537 40.0071C214.182 40.6264 214.004 41.5028 214.004 42.6364C214.004 43.392 214.084 44.0341 214.243 44.5625C214.402 45.0909 214.631 45.4929 214.929 45.7685C215.23 46.044 215.592 46.1818 216.016 46.1818ZM223.737 38.2727V47H222.68V39.3807H222.629L220.499 40.7955V39.7216L222.68 38.2727H223.737ZM229.043 47.1193C228.457 47.1193 227.94 47.0156 227.491 46.8082C227.045 46.598 226.697 46.3097 226.447 45.9432C226.197 45.5739 226.074 45.1534 226.077 44.6818C226.074 44.3125 226.146 43.9716 226.294 43.6591C226.442 43.3437 226.643 43.081 226.899 42.8707C227.158 42.6577 227.446 42.5227 227.764 42.4659V42.4148C227.347 42.3068 227.014 42.0724 226.767 41.7116C226.52 41.348 226.398 40.9347 226.401 40.4716C226.398 40.0284 226.51 39.6321 226.737 39.2827C226.964 38.9332 227.277 38.6577 227.675 38.456C228.075 38.2543 228.531 38.1534 229.043 38.1534C229.548 38.1534 230 38.2543 230.398 38.456C230.795 38.6577 231.108 38.9332 231.335 39.2827C231.565 39.6321 231.682 40.0284 231.685 40.4716C231.682 40.9347 231.555 41.348 231.305 41.7116C231.058 42.0724 230.73 42.3068 230.321 42.4148V42.4659C230.636 42.5227 230.92 42.6577 231.173 42.8707C231.426 43.081 231.628 43.3437 231.778 43.6591C231.929 43.9716 232.006 44.3125 232.009 44.6818C232.006 45.1534 231.878 45.5739 231.625 45.9432C231.375 46.3097 231.027 46.598 230.581 46.8082C230.138 47.0156 229.625 47.1193 229.043 47.1193ZM229.043 46.1818C229.438 46.1818 229.778 46.1179 230.065 45.9901C230.352 45.8622 230.574 45.6818 230.73 45.4489C230.886 45.2159 230.966 44.9432 230.969 44.6307C230.966 44.3011 230.881 44.0099 230.713 43.7571C230.545 43.5043 230.317 43.3054 230.027 43.1605C229.74 43.0156 229.412 42.9432 229.043 42.9432C228.67 42.9432 228.338 43.0156 228.045 43.1605C227.756 43.3054 227.527 43.5043 227.359 43.7571C227.195 44.0099 227.114 44.3011 227.116 44.6307C227.114 44.9432 227.189 45.2159 227.342 45.4489C227.499 45.6818 227.722 45.8622 228.011 45.9901C228.301 46.1179 228.645 46.1818 229.043 46.1818ZM229.043 42.0398C229.355 42.0398 229.632 41.9773 229.874 41.8523C230.118 41.7273 230.31 41.5526 230.449 41.3281C230.588 41.1037 230.659 40.8409 230.662 40.5398C230.659 40.2443 230.589 39.9872 230.453 39.7685C230.317 39.5469 230.128 39.3764 229.886 39.2571C229.645 39.1349 229.364 39.0739 229.043 39.0739C228.716 39.0739 228.43 39.1349 228.186 39.2571C227.942 39.3764 227.753 39.5469 227.619 39.7685C227.486 39.9872 227.42 40.2443 227.423 40.5398C227.42 40.8409 227.487 41.1037 227.624 41.3281C227.763 41.5526 227.955 41.7273 228.199 41.8523C228.443 41.9773 228.724 42.0398 229.043 42.0398Z" fill="#808080"/>
<rect x="183.5" y="29.5" width="71" height="27" rx="13.5" stroke="#808080"/>
</g>
<g opacity="0.2">
<path d="M281.903 47V46.233L284.784 43.0795C285.122 42.7102 285.401 42.3892 285.619 42.1165C285.838 41.8409 286 41.5824 286.105 41.3409C286.213 41.0966 286.267 40.8409 286.267 40.5739C286.267 40.267 286.193 40.0014 286.045 39.777C285.901 39.5526 285.702 39.3793 285.449 39.2571C285.196 39.1349 284.912 39.0739 284.597 39.0739C284.261 39.0739 283.969 39.1435 283.719 39.2827C283.472 39.419 283.28 39.6108 283.143 39.858C283.01 40.1051 282.943 40.3949 282.943 40.7273H281.938C281.938 40.2159 282.055 39.767 282.291 39.3807C282.527 38.9943 282.848 38.6932 283.254 38.4773C283.663 38.2614 284.122 38.1534 284.631 38.1534C285.142 38.1534 285.595 38.2614 285.99 38.4773C286.385 38.6932 286.695 38.9844 286.919 39.3509C287.143 39.7173 287.256 40.125 287.256 40.5739C287.256 40.8949 287.197 41.2088 287.081 41.5156C286.967 41.8196 286.768 42.1591 286.484 42.5341C286.203 42.9062 285.812 43.3608 285.312 43.8977L283.352 45.9943V46.0625H287.409V47H281.903ZM292.016 47.1193C291.374 47.1193 290.827 46.9446 290.375 46.5952C289.923 46.2429 289.578 45.733 289.339 45.0653C289.101 44.3949 288.982 43.5852 288.982 42.6364C288.982 41.6932 289.101 40.8878 289.339 40.2202C289.581 39.5497 289.928 39.0384 290.379 38.6861C290.834 38.331 291.379 38.1534 292.016 38.1534C292.652 38.1534 293.196 38.331 293.648 38.6861C294.102 39.0384 294.449 39.5497 294.688 40.2202C294.929 40.8878 295.05 41.6932 295.05 42.6364C295.05 43.5852 294.93 44.3949 294.692 45.0653C294.453 45.733 294.108 46.2429 293.656 46.5952C293.205 46.9446 292.658 47.1193 292.016 47.1193ZM292.016 46.1818C292.652 46.1818 293.146 45.875 293.499 45.2614C293.851 44.6477 294.027 43.7727 294.027 42.6364C294.027 41.8807 293.946 41.2372 293.784 40.706C293.625 40.1747 293.395 39.7699 293.094 39.4915C292.795 39.2131 292.436 39.0739 292.016 39.0739C291.385 39.0739 290.892 39.3849 290.537 40.0071C290.182 40.6264 290.004 41.5028 290.004 42.6364C290.004 43.392 290.084 44.0341 290.243 44.5625C290.402 45.0909 290.631 45.4929 290.929 45.7685C291.23 46.044 291.592 46.1818 292.016 46.1818ZM299.737 38.2727V47H298.68V39.3807H298.629L296.499 40.7955V39.7216L298.68 38.2727H299.737ZM305.026 38.1534C305.384 38.1562 305.741 38.2244 306.099 38.358C306.457 38.4915 306.784 38.7131 307.08 39.0227C307.375 39.3295 307.612 39.7486 307.791 40.2798C307.97 40.8111 308.06 41.4773 308.06 42.2784C308.06 43.054 307.986 43.7429 307.838 44.3452C307.693 44.9446 307.483 45.4503 307.207 45.8622C306.935 46.2741 306.602 46.5866 306.21 46.7997C305.821 47.0128 305.381 47.1193 304.889 47.1193C304.401 47.1193 303.964 47.0227 303.581 46.8295C303.2 46.6335 302.888 46.3622 302.643 46.0156C302.402 45.6662 302.247 45.2614 302.179 44.8011H303.219C303.312 45.2017 303.499 45.5327 303.777 45.794C304.058 46.0526 304.429 46.1818 304.889 46.1818C305.563 46.1818 306.094 45.8878 306.483 45.2997C306.875 44.7116 307.071 43.8807 307.071 42.8068H307.003C306.844 43.0455 306.655 43.2514 306.436 43.4247C306.217 43.598 305.974 43.7315 305.707 43.8253C305.44 43.919 305.156 43.9659 304.855 43.9659C304.355 43.9659 303.896 43.8423 303.479 43.5952C303.064 43.3452 302.732 43.0028 302.482 42.5682C302.234 42.1307 302.111 41.6307 302.111 41.0682C302.111 40.5341 302.23 40.0455 302.469 39.6023C302.71 39.1562 303.048 38.8011 303.483 38.5369C303.92 38.2727 304.435 38.1449 305.026 38.1534ZM305.026 39.0909C304.668 39.0909 304.345 39.1804 304.058 39.3594C303.774 39.5355 303.548 39.7741 303.381 40.0753C303.216 40.3736 303.134 40.7045 303.134 41.0682C303.134 41.4318 303.213 41.7628 303.372 42.0611C303.534 42.3565 303.754 42.5923 304.033 42.7685C304.314 42.9418 304.634 43.0284 304.991 43.0284C305.261 43.0284 305.513 42.9759 305.746 42.8707C305.979 42.7628 306.182 42.6165 306.355 42.4318C306.531 42.2443 306.669 42.0327 306.768 41.7969C306.868 41.5582 306.918 41.3097 306.918 41.0511C306.918 40.7102 306.835 40.3906 306.67 40.0923C306.509 39.794 306.284 39.5526 305.997 39.3679C305.713 39.1832 305.389 39.0909 305.026 39.0909Z" fill="#808080"/>
<rect x="259.5" y="29.5" width="71" height="27" rx="13.5" stroke="#808080"/>
</g>
<path d="M357.903 47V46.233L360.784 43.0795C361.122 42.7102 361.401 42.3892 361.619 42.1165C361.838 41.8409 362 41.5824 362.105 41.3409C362.213 41.0966 362.267 40.8409 362.267 40.5739C362.267 40.267 362.193 40.0014 362.045 39.777C361.901 39.5526 361.702 39.3793 361.449 39.2571C361.196 39.1349 360.912 39.0739 360.597 39.0739C360.261 39.0739 359.969 39.1435 359.719 39.2827C359.472 39.419 359.28 39.6108 359.143 39.858C359.01 40.1051 358.943 40.3949 358.943 40.7273H357.938C357.938 40.2159 358.055 39.767 358.291 39.3807C358.527 38.9943 358.848 38.6932 359.254 38.4773C359.663 38.2614 360.122 38.1534 360.631 38.1534C361.142 38.1534 361.595 38.2614 361.99 38.4773C362.385 38.6932 362.695 38.9844 362.919 39.3509C363.143 39.7173 363.256 40.125 363.256 40.5739C363.256 40.8949 363.197 41.2088 363.081 41.5156C362.967 41.8196 362.768 42.1591 362.484 42.5341C362.203 42.9062 361.812 43.3608 361.312 43.8977L359.352 45.9943V46.0625H363.409V47H357.903ZM368.016 47.1193C367.374 47.1193 366.827 46.9446 366.375 46.5952C365.923 46.2429 365.578 45.733 365.339 45.0653C365.101 44.3949 364.982 43.5852 364.982 42.6364C364.982 41.6932 365.101 40.8878 365.339 40.2202C365.581 39.5497 365.928 39.0384 366.379 38.6861C366.834 38.331 367.379 38.1534 368.016 38.1534C368.652 38.1534 369.196 38.331 369.648 38.6861C370.102 39.0384 370.449 39.5497 370.688 40.2202C370.929 40.8878 371.05 41.6932 371.05 42.6364C371.05 43.5852 370.93 44.3949 370.692 45.0653C370.453 45.733 370.108 46.2429 369.656 46.5952C369.205 46.9446 368.658 47.1193 368.016 47.1193ZM368.016 46.1818C368.652 46.1818 369.146 45.875 369.499 45.2614C369.851 44.6477 370.027 43.7727 370.027 42.6364C370.027 41.8807 369.946 41.2372 369.784 40.706C369.625 40.1747 369.395 39.7699 369.094 39.4915C368.795 39.2131 368.436 39.0739 368.016 39.0739C367.385 39.0739 366.892 39.3849 366.537 40.0071C366.182 40.6264 366.004 41.5028 366.004 42.6364C366.004 43.392 366.084 44.0341 366.243 44.5625C366.402 45.0909 366.631 45.4929 366.929 45.7685C367.23 46.044 367.592 46.1818 368.016 46.1818ZM372.669 47V46.233L375.55 43.0795C375.888 42.7102 376.166 42.3892 376.385 42.1165C376.604 41.8409 376.766 41.5824 376.871 41.3409C376.979 41.0966 377.033 40.8409 377.033 40.5739C377.033 40.267 376.959 40.0014 376.811 39.777C376.666 39.5526 376.467 39.3793 376.214 39.2571C375.962 39.1349 375.678 39.0739 375.362 39.0739C375.027 39.0739 374.734 39.1435 374.484 39.2827C374.237 39.419 374.045 39.6108 373.909 39.858C373.776 40.1051 373.709 40.3949 373.709 40.7273H372.703C372.703 40.2159 372.821 39.767 373.057 39.3807C373.293 38.9943 373.614 38.6932 374.02 38.4773C374.429 38.2614 374.888 38.1534 375.396 38.1534C375.908 38.1534 376.361 38.2614 376.756 38.4773C377.151 38.6932 377.46 38.9844 377.685 39.3509C377.909 39.7173 378.021 40.125 378.021 40.5739C378.021 40.8949 377.963 41.2088 377.847 41.5156C377.733 41.8196 377.534 42.1591 377.25 42.5341C376.969 42.9062 376.578 43.3608 376.078 43.8977L374.118 45.9943V46.0625H378.175V47H372.669ZM382.781 47.1193C382.139 47.1193 381.592 46.9446 381.141 46.5952C380.689 46.2429 380.344 45.733 380.105 45.0653C379.866 44.3949 379.747 43.5852 379.747 42.6364C379.747 41.6932 379.866 40.8878 380.105 40.2202C380.347 39.5497 380.693 39.0384 381.145 38.6861C381.599 38.331 382.145 38.1534 382.781 38.1534C383.418 38.1534 383.962 38.331 384.413 38.6861C384.868 39.0384 385.214 39.5497 385.453 40.2202C385.695 40.8878 385.815 41.6932 385.815 42.6364C385.815 43.5852 385.696 44.3949 385.457 45.0653C385.219 45.733 384.874 46.2429 384.422 46.5952C383.97 46.9446 383.423 47.1193 382.781 47.1193ZM382.781 46.1818C383.418 46.1818 383.912 45.875 384.264 45.2614C384.616 44.6477 384.793 43.7727 384.793 42.6364C384.793 41.8807 384.712 41.2372 384.55 40.706C384.391 40.1747 384.161 39.7699 383.859 39.4915C383.561 39.2131 383.202 39.0739 382.781 39.0739C382.151 39.0739 381.658 39.3849 381.303 40.0071C380.947 40.6264 380.77 41.5028 380.77 42.6364C380.77 43.392 380.849 44.0341 381.009 44.5625C381.168 45.0909 381.396 45.4929 381.695 45.7685C381.996 46.044 382.358 46.1818 382.781 46.1818Z" fill="#808080"/>
<rect x="335.5" y="29.5" width="73" height="27" rx="13.5" stroke="#808080"/>
<g opacity="0.2">
<path d="M435.903 47V46.233L438.784 43.0795C439.122 42.7102 439.401 42.3892 439.619 42.1165C439.838 41.8409 440 41.5824 440.105 41.3409C440.213 41.0966 440.267 40.8409 440.267 40.5739C440.267 40.267 440.193 40.0014 440.045 39.777C439.901 39.5526 439.702 39.3793 439.449 39.2571C439.196 39.1349 438.912 39.0739 438.597 39.0739C438.261 39.0739 437.969 39.1435 437.719 39.2827C437.472 39.419 437.28 39.6108 437.143 39.858C437.01 40.1051 436.943 40.3949 436.943 40.7273H435.938C435.938 40.2159 436.055 39.767 436.291 39.3807C436.527 38.9943 436.848 38.6932 437.254 38.4773C437.663 38.2614 438.122 38.1534 438.631 38.1534C439.142 38.1534 439.595 38.2614 439.99 38.4773C440.385 38.6932 440.695 38.9844 440.919 39.3509C441.143 39.7173 441.256 40.125 441.256 40.5739C441.256 40.8949 441.197 41.2088 441.081 41.5156C440.967 41.8196 440.768 42.1591 440.484 42.5341C440.203 42.9062 439.812 43.3608 439.312 43.8977L437.352 45.9943V46.0625H441.409V47H435.903ZM446.016 47.1193C445.374 47.1193 444.827 46.9446 444.375 46.5952C443.923 46.2429 443.578 45.733 443.339 45.0653C443.101 44.3949 442.982 43.5852 442.982 42.6364C442.982 41.6932 443.101 40.8878 443.339 40.2202C443.581 39.5497 443.928 39.0384 444.379 38.6861C444.834 38.331 445.379 38.1534 446.016 38.1534C446.652 38.1534 447.196 38.331 447.648 38.6861C448.102 39.0384 448.449 39.5497 448.688 40.2202C448.929 40.8878 449.05 41.6932 449.05 42.6364C449.05 43.5852 448.93 44.3949 448.692 45.0653C448.453 45.733 448.108 46.2429 447.656 46.5952C447.205 46.9446 446.658 47.1193 446.016 47.1193ZM446.016 46.1818C446.652 46.1818 447.146 45.875 447.499 45.2614C447.851 44.6477 448.027 43.7727 448.027 42.6364C448.027 41.8807 447.946 41.2372 447.784 40.706C447.625 40.1747 447.395 39.7699 447.094 39.4915C446.795 39.2131 446.436 39.0739 446.016 39.0739C445.385 39.0739 444.892 39.3849 444.537 40.0071C444.182 40.6264 444.004 41.5028 444.004 42.6364C444.004 43.392 444.084 44.0341 444.243 44.5625C444.402 45.0909 444.631 45.4929 444.929 45.7685C445.23 46.044 445.592 46.1818 446.016 46.1818ZM450.669 47V46.233L453.55 43.0795C453.888 42.7102 454.166 42.3892 454.385 42.1165C454.604 41.8409 454.766 41.5824 454.871 41.3409C454.979 41.0966 455.033 40.8409 455.033 40.5739C455.033 40.267 454.959 40.0014 454.811 39.777C454.666 39.5526 454.467 39.3793 454.214 39.2571C453.962 39.1349 453.678 39.0739 453.362 39.0739C453.027 39.0739 452.734 39.1435 452.484 39.2827C452.237 39.419 452.045 39.6108 451.909 39.858C451.776 40.1051 451.709 40.3949 451.709 40.7273H450.703C450.703 40.2159 450.821 39.767 451.057 39.3807C451.293 38.9943 451.614 38.6932 452.02 38.4773C452.429 38.2614 452.888 38.1534 453.396 38.1534C453.908 38.1534 454.361 38.2614 454.756 38.4773C455.151 38.6932 455.46 38.9844 455.685 39.3509C455.909 39.7173 456.021 40.125 456.021 40.5739C456.021 40.8949 455.963 41.2088 455.847 41.5156C455.733 41.8196 455.534 42.1591 455.25 42.5341C454.969 42.9062 454.578 43.3608 454.078 43.8977L452.118 45.9943V46.0625H456.175V47H450.669ZM461.003 38.2727V47H459.946V39.3807H459.895L457.764 40.7955V39.7216L459.946 38.2727H461.003Z" fill="#808080"/>
<rect x="413.5" y="29.5" width="71" height="27" rx="13.5" stroke="#808080"/>
</g>
<g opacity="0.2">
<path d="M511.903 47V46.233L514.784 43.0795C515.122 42.7102 515.401 42.3892 515.619 42.1165C515.838 41.8409 516 41.5824 516.105 41.3409C516.213 41.0966 516.267 40.8409 516.267 40.5739C516.267 40.267 516.193 40.0014 516.045 39.777C515.901 39.5526 515.702 39.3793 515.449 39.2571C515.196 39.1349 514.912 39.0739 514.597 39.0739C514.261 39.0739 513.969 39.1435 513.719 39.2827C513.472 39.419 513.28 39.6108 513.143 39.858C513.01 40.1051 512.943 40.3949 512.943 40.7273H511.938C511.938 40.2159 512.055 39.767 512.291 39.3807C512.527 38.9943 512.848 38.6932 513.254 38.4773C513.663 38.2614 514.122 38.1534 514.631 38.1534C515.142 38.1534 515.595 38.2614 515.99 38.4773C516.385 38.6932 516.695 38.9844 516.919 39.3509C517.143 39.7173 517.256 40.125 517.256 40.5739C517.256 40.8949 517.197 41.2088 517.081 41.5156C516.967 41.8196 516.768 42.1591 516.484 42.5341C516.203 42.9062 515.812 43.3608 515.312 43.8977L513.352 45.9943V46.0625H517.409V47H511.903ZM522.016 47.1193C521.374 47.1193 520.827 46.9446 520.375 46.5952C519.923 46.2429 519.578 45.733 519.339 45.0653C519.101 44.3949 518.982 43.5852 518.982 42.6364C518.982 41.6932 519.101 40.8878 519.339 40.2202C519.581 39.5497 519.928 39.0384 520.379 38.6861C520.834 38.331 521.379 38.1534 522.016 38.1534C522.652 38.1534 523.196 38.331 523.648 38.6861C524.102 39.0384 524.449 39.5497 524.688 40.2202C524.929 40.8878 525.05 41.6932 525.05 42.6364C525.05 43.5852 524.93 44.3949 524.692 45.0653C524.453 45.733 524.108 46.2429 523.656 46.5952C523.205 46.9446 522.658 47.1193 522.016 47.1193ZM522.016 46.1818C522.652 46.1818 523.146 45.875 523.499 45.2614C523.851 44.6477 524.027 43.7727 524.027 42.6364C524.027 41.8807 523.946 41.2372 523.784 40.706C523.625 40.1747 523.395 39.7699 523.094 39.4915C522.795 39.2131 522.436 39.0739 522.016 39.0739C521.385 39.0739 520.892 39.3849 520.537 40.0071C520.182 40.6264 520.004 41.5028 520.004 42.6364C520.004 43.392 520.084 44.0341 520.243 44.5625C520.402 45.0909 520.631 45.4929 520.929 45.7685C521.23 46.044 521.592 46.1818 522.016 46.1818ZM526.669 47V46.233L529.55 43.0795C529.888 42.7102 530.166 42.3892 530.385 42.1165C530.604 41.8409 530.766 41.5824 530.871 41.3409C530.979 41.0966 531.033 40.8409 531.033 40.5739C531.033 40.267 530.959 40.0014 530.811 39.777C530.666 39.5526 530.467 39.3793 530.214 39.2571C529.962 39.1349 529.678 39.0739 529.362 39.0739C529.027 39.0739 528.734 39.1435 528.484 39.2827C528.237 39.419 528.045 39.6108 527.909 39.858C527.776 40.1051 527.709 40.3949 527.709 40.7273H526.703C526.703 40.2159 526.821 39.767 527.057 39.3807C527.293 38.9943 527.614 38.6932 528.02 38.4773C528.429 38.2614 528.888 38.1534 529.396 38.1534C529.908 38.1534 530.361 38.2614 530.756 38.4773C531.151 38.6932 531.46 38.9844 531.685 39.3509C531.909 39.7173 532.021 40.125 532.021 40.5739C532.021 40.8949 531.963 41.2088 531.847 41.5156C531.733 41.8196 531.534 42.1591 531.25 42.5341C530.969 42.9062 530.578 43.3608 530.078 43.8977L528.118 45.9943V46.0625H532.175V47H526.669ZM533.935 47V46.233L536.815 43.0795C537.153 42.7102 537.432 42.3892 537.651 42.1165C537.869 41.8409 538.031 41.5824 538.136 41.3409C538.244 41.0966 538.298 40.8409 538.298 40.5739C538.298 40.267 538.224 40.0014 538.077 39.777C537.932 39.5526 537.733 39.3793 537.48 39.2571C537.227 39.1349 536.943 39.0739 536.628 39.0739C536.293 39.0739 536 39.1435 535.75 39.2827C535.503 39.419 535.311 39.6108 535.175 39.858C535.041 40.1051 534.974 40.3949 534.974 40.7273H533.969C533.969 40.2159 534.087 39.767 534.322 39.3807C534.558 38.9943 534.879 38.6932 535.286 38.4773C535.695 38.2614 536.153 38.1534 536.662 38.1534C537.173 38.1534 537.626 38.2614 538.021 38.4773C538.416 38.6932 538.726 38.9844 538.95 39.3509C539.175 39.7173 539.287 40.125 539.287 40.5739C539.287 40.8949 539.229 41.2088 539.112 41.5156C538.999 41.8196 538.8 42.1591 538.516 42.5341C538.234 42.9062 537.844 43.3608 537.344 43.8977L535.384 45.9943V46.0625H539.44V47H533.935Z" fill="#808080"/>
<rect x="489.5" y="29.5" width="73" height="27" rx="13.5" stroke="#808080"/>
</g>
<mask id="path-17-inside-1_1820_17314" fill="white">
<path d="M185 162C185 160.895 185.895 160 187 160H384.571C385.676 160 386.571 160.895 386.571 162V198C386.571 199.105 385.676 200 384.571 200H187C185.895 200 185 199.105 185 198V162Z"/>
</mask>
<path d="M185 162C185 160.895 185.895 160 187 160H384.571C385.676 160 386.571 160.895 386.571 162V198C386.571 199.105 385.676 200 384.571 200H187C185.895 200 185 199.105 185 198V162Z" fill="white"/>
<path d="M201.696 179.168V180.105H197.878V179.168H201.696ZM206.257 184.119C205.694 184.119 205.193 184.023 204.752 183.83C204.315 183.636 203.967 183.368 203.708 183.024C203.453 182.678 203.313 182.276 203.291 181.818H204.365C204.387 182.099 204.484 182.342 204.654 182.547C204.825 182.749 205.048 182.905 205.323 183.016C205.599 183.126 205.904 183.182 206.24 183.182C206.615 183.182 206.947 183.116 207.237 182.986C207.526 182.855 207.754 182.673 207.919 182.44C208.083 182.207 208.166 181.938 208.166 181.631C208.166 181.31 208.086 181.027 207.927 180.783C207.768 180.536 207.535 180.342 207.228 180.203C206.921 180.064 206.546 179.994 206.103 179.994H205.404V179.057H206.103C206.45 179.057 206.754 178.994 207.015 178.869C207.279 178.744 207.485 178.568 207.633 178.341C207.784 178.114 207.859 177.847 207.859 177.54C207.859 177.244 207.794 176.987 207.663 176.768C207.532 176.55 207.347 176.379 207.109 176.257C206.873 176.135 206.595 176.074 206.274 176.074C205.972 176.074 205.688 176.129 205.421 176.24C205.157 176.348 204.941 176.506 204.774 176.713C204.606 176.918 204.515 177.165 204.501 177.455H203.478C203.495 176.997 203.633 176.597 203.892 176.253C204.15 175.906 204.488 175.636 204.906 175.443C205.326 175.25 205.788 175.153 206.291 175.153C206.83 175.153 207.294 175.263 207.68 175.482C208.066 175.697 208.363 175.983 208.57 176.338C208.778 176.693 208.882 177.077 208.882 177.489C208.882 177.98 208.752 178.399 208.494 178.746C208.238 179.092 207.89 179.332 207.45 179.466V179.534C208.001 179.625 208.431 179.859 208.741 180.237C209.051 180.612 209.205 181.077 209.205 181.631C209.205 182.105 209.076 182.531 208.818 182.909C208.562 183.284 208.213 183.58 207.769 183.795C207.326 184.011 206.822 184.119 206.257 184.119ZM213.795 184.119C213.153 184.119 212.606 183.945 212.154 183.595C211.703 183.243 211.357 182.733 211.119 182.065C210.88 181.395 210.761 180.585 210.761 179.636C210.761 178.693 210.88 177.888 211.119 177.22C211.36 176.55 211.707 176.038 212.159 175.686C212.613 175.331 213.159 175.153 213.795 175.153C214.431 175.153 214.975 175.331 215.427 175.686C215.882 176.038 216.228 176.55 216.467 177.22C216.708 177.888 216.829 178.693 216.829 179.636C216.829 180.585 216.71 181.395 216.471 182.065C216.232 182.733 215.887 183.243 215.436 183.595C214.984 183.945 214.437 184.119 213.795 184.119ZM213.795 183.182C214.431 183.182 214.926 182.875 215.278 182.261C215.63 181.648 215.806 180.773 215.806 179.636C215.806 178.881 215.725 178.237 215.563 177.706C215.404 177.175 215.174 176.77 214.873 176.491C214.575 176.213 214.215 176.074 213.795 176.074C213.164 176.074 212.671 176.385 212.316 177.007C211.961 177.626 211.784 178.503 211.784 179.636C211.784 180.392 211.863 181.034 212.022 181.562C212.181 182.091 212.41 182.493 212.708 182.768C213.009 183.044 213.372 183.182 213.795 183.182ZM218.465 184V177.455H219.437V178.477H219.522C219.659 178.128 219.879 177.857 220.183 177.663C220.487 177.467 220.852 177.369 221.278 177.369C221.71 177.369 222.069 177.467 222.356 177.663C222.646 177.857 222.872 178.128 223.034 178.477H223.102C223.269 178.139 223.521 177.871 223.856 177.672C224.191 177.47 224.593 177.369 225.062 177.369C225.647 177.369 226.126 177.553 226.498 177.919C226.87 178.283 227.056 178.849 227.056 179.619V184H226.051V179.619C226.051 179.136 225.919 178.791 225.654 178.584C225.39 178.376 225.079 178.273 224.721 178.273C224.261 178.273 223.904 178.412 223.651 178.69C223.399 178.966 223.272 179.315 223.272 179.739V184H222.249V179.517C222.249 179.145 222.129 178.845 221.887 178.618C221.646 178.388 221.335 178.273 220.954 178.273C220.693 178.273 220.448 178.342 220.221 178.482C219.997 178.621 219.815 178.814 219.676 179.061C219.539 179.305 219.471 179.588 219.471 179.909V184H218.465Z" fill="#3A3A3A"/>
<path d="M248.688 179.168V180.105H244.87V179.168H248.688ZM253.168 184.119C252.668 184.119 252.218 184.02 251.817 183.821C251.417 183.622 251.096 183.349 250.854 183.003C250.613 182.656 250.481 182.261 250.458 181.818H251.481C251.52 182.213 251.699 182.54 252.017 182.798C252.338 183.054 252.722 183.182 253.168 183.182C253.526 183.182 253.844 183.098 254.123 182.93C254.404 182.763 254.624 182.533 254.783 182.24C254.945 181.945 255.026 181.611 255.026 181.239C255.026 180.858 254.942 180.518 254.775 180.22C254.61 179.919 254.383 179.682 254.093 179.509C253.803 179.335 253.472 179.247 253.1 179.244C252.833 179.241 252.559 179.283 252.277 179.368C251.996 179.45 251.765 179.557 251.583 179.688L250.594 179.568L251.123 175.273H255.657V176.21H252.009L251.702 178.784H251.753C251.932 178.642 252.157 178.524 252.427 178.43C252.696 178.337 252.978 178.29 253.27 178.29C253.804 178.29 254.28 178.418 254.698 178.673C255.118 178.926 255.448 179.273 255.687 179.713C255.928 180.153 256.049 180.656 256.049 181.222C256.049 181.778 255.924 182.276 255.674 182.713C255.427 183.148 255.086 183.491 254.651 183.744C254.216 183.994 253.722 184.119 253.168 184.119ZM257.759 184V177.455H258.73V178.477H258.815C258.952 178.128 259.172 177.857 259.476 177.663C259.78 177.467 260.145 177.369 260.571 177.369C261.003 177.369 261.362 177.467 261.649 177.663C261.939 177.857 262.165 178.128 262.327 178.477H262.395C262.563 178.139 262.814 177.871 263.149 177.672C263.484 177.47 263.886 177.369 264.355 177.369C264.94 177.369 265.419 177.553 265.791 177.919C266.163 178.283 266.349 178.849 266.349 179.619V184H265.344V179.619C265.344 179.136 265.212 178.791 264.948 178.584C264.683 178.376 264.372 178.273 264.014 178.273C263.554 178.273 263.198 178.412 262.945 178.69C262.692 178.966 262.565 179.315 262.565 179.739V184H261.543V179.517C261.543 179.145 261.422 178.845 261.18 178.618C260.939 178.388 260.628 178.273 260.247 178.273C259.986 178.273 259.742 178.342 259.514 178.482C259.29 178.621 259.108 178.814 258.969 179.061C258.832 179.305 258.764 179.588 258.764 179.909V184H257.759Z" fill="#3A3A3A"/>
<line x1="283.786" y1="160" x2="283.786" y2="200" stroke="#F3F3F3"/>
<path d="M302.585 182.466V176.841H303.54V182.466H302.585ZM300.25 180.131V179.176H305.875V180.131H300.25ZM310.649 184.119C310.149 184.119 309.699 184.02 309.298 183.821C308.898 183.622 308.577 183.349 308.335 183.003C308.094 182.656 307.961 182.261 307.939 181.818H308.961C309.001 182.213 309.18 182.54 309.498 182.798C309.819 183.054 310.203 183.182 310.649 183.182C311.007 183.182 311.325 183.098 311.604 182.93C311.885 182.763 312.105 182.533 312.264 182.24C312.426 181.945 312.507 181.611 312.507 181.239C312.507 180.858 312.423 180.518 312.256 180.22C312.091 179.919 311.863 179.682 311.574 179.509C311.284 179.335 310.953 179.247 310.581 179.244C310.314 179.241 310.04 179.283 309.758 179.368C309.477 179.45 309.246 179.557 309.064 179.688L308.075 179.568L308.604 175.273H313.138V176.21H309.49L309.183 178.784H309.234C309.413 178.642 309.638 178.524 309.908 178.43C310.177 178.337 310.459 178.29 310.751 178.29C311.285 178.29 311.761 178.418 312.179 178.673C312.599 178.926 312.929 179.273 313.167 179.713C313.409 180.153 313.53 180.656 313.53 181.222C313.53 181.778 313.405 182.276 313.155 182.713C312.908 183.148 312.567 183.491 312.132 183.744C311.697 183.994 311.203 184.119 310.649 184.119ZM315.24 184V177.455H316.211V178.477H316.296C316.433 178.128 316.653 177.857 316.957 177.663C317.261 177.467 317.626 177.369 318.052 177.369C318.484 177.369 318.843 177.467 319.13 177.663C319.42 177.857 319.646 178.128 319.808 178.477H319.876C320.044 178.139 320.295 177.871 320.63 177.672C320.965 177.47 321.367 177.369 321.836 177.369C322.421 177.369 322.9 177.553 323.272 177.919C323.644 178.283 323.83 178.849 323.83 179.619V184H322.825V179.619C322.825 179.136 322.693 178.791 322.428 178.584C322.164 178.376 321.853 178.273 321.495 178.273C321.035 178.273 320.678 178.412 320.426 178.69C320.173 178.966 320.046 179.315 320.046 179.739V184H319.024V179.517C319.024 179.145 318.903 178.845 318.661 178.618C318.42 178.388 318.109 178.273 317.728 178.273C317.467 178.273 317.223 178.342 316.995 178.482C316.771 178.621 316.589 178.814 316.45 179.061C316.313 179.305 316.245 179.588 316.245 179.909V184H315.24Z" fill="#3A3A3A"/>
<path d="M344.379 182.466V176.841H345.333V182.466H344.379ZM342.043 180.131V179.176H347.668V180.131H342.043ZM352.523 184.119C351.961 184.119 351.459 184.023 351.019 183.83C350.581 183.636 350.233 183.368 349.975 183.024C349.719 182.678 349.58 182.276 349.557 181.818H350.631C350.654 182.099 350.75 182.342 350.921 182.547C351.091 182.749 351.314 182.905 351.59 183.016C351.866 183.126 352.171 183.182 352.506 183.182C352.881 183.182 353.214 183.116 353.503 182.986C353.793 182.855 354.02 182.673 354.185 182.44C354.35 182.207 354.432 181.938 354.432 181.631C354.432 181.31 354.353 181.027 354.194 180.783C354.035 180.536 353.802 180.342 353.495 180.203C353.188 180.064 352.813 179.994 352.37 179.994H351.671V179.057H352.37C352.716 179.057 353.02 178.994 353.282 178.869C353.546 178.744 353.752 178.568 353.9 178.341C354.05 178.114 354.125 177.847 354.125 177.54C354.125 177.244 354.06 176.987 353.929 176.768C353.799 176.55 353.614 176.379 353.375 176.257C353.14 176.135 352.861 176.074 352.54 176.074C352.239 176.074 351.955 176.129 351.688 176.24C351.424 176.348 351.208 176.506 351.04 176.713C350.873 176.918 350.782 177.165 350.767 177.455H349.745C349.762 176.997 349.9 176.597 350.158 176.253C350.417 175.906 350.755 175.636 351.172 175.443C351.593 175.25 352.054 175.153 352.557 175.153C353.097 175.153 353.56 175.263 353.946 175.482C354.333 175.697 354.63 175.983 354.837 176.338C355.044 176.693 355.148 177.077 355.148 177.489C355.148 177.98 355.019 178.399 354.76 178.746C354.505 179.092 354.157 179.332 353.716 179.466V179.534C354.267 179.625 354.698 179.859 355.008 180.237C355.317 180.612 355.472 181.077 355.472 181.631C355.472 182.105 355.343 182.531 355.084 182.909C354.829 183.284 354.479 183.58 354.036 183.795C353.593 184.011 353.089 184.119 352.523 184.119ZM360.062 184.119C359.419 184.119 358.873 183.945 358.421 183.595C357.969 183.243 357.624 182.733 357.385 182.065C357.147 181.395 357.027 180.585 357.027 179.636C357.027 178.693 357.147 177.888 357.385 177.22C357.627 176.55 357.973 176.038 358.425 175.686C358.88 175.331 359.425 175.153 360.062 175.153C360.698 175.153 361.242 175.331 361.694 175.686C362.148 176.038 362.495 176.55 362.733 177.22C362.975 177.888 363.096 178.693 363.096 179.636C363.096 180.585 362.976 181.395 362.738 182.065C362.499 182.733 362.154 183.243 361.702 183.595C361.25 183.945 360.704 184.119 360.062 184.119ZM360.062 183.182C360.698 183.182 361.192 182.875 361.544 182.261C361.897 181.648 362.073 180.773 362.073 179.636C362.073 178.881 361.992 178.237 361.83 177.706C361.671 177.175 361.441 176.77 361.14 176.491C360.841 176.213 360.482 176.074 360.062 176.074C359.431 176.074 358.938 176.385 358.583 177.007C358.228 177.626 358.05 178.503 358.05 179.636C358.05 180.392 358.13 181.034 358.289 181.562C358.448 182.091 358.677 182.493 358.975 182.768C359.276 183.044 359.638 183.182 360.062 183.182ZM364.732 184V177.455H365.704V178.477H365.789C365.925 178.128 366.145 177.857 366.449 177.663C366.753 177.467 367.118 177.369 367.544 177.369C367.976 177.369 368.336 177.467 368.623 177.663C368.912 177.857 369.138 178.128 369.3 178.477H369.368C369.536 178.139 369.787 177.871 370.123 177.672C370.458 177.47 370.86 177.369 371.329 177.369C371.914 177.369 372.392 177.553 372.765 177.919C373.137 178.283 373.323 178.849 373.323 179.619V184H372.317V179.619C372.317 179.136 372.185 178.791 371.921 178.584C371.657 178.376 371.346 178.273 370.988 178.273C370.527 178.273 370.171 178.412 369.918 178.69C369.665 178.966 369.539 179.315 369.539 179.739V184H368.516V179.517C368.516 179.145 368.395 178.845 368.154 178.618C367.912 178.388 367.601 178.273 367.221 178.273C366.959 178.273 366.715 178.342 366.488 178.482C366.263 178.621 366.081 178.814 365.942 179.061C365.806 179.305 365.738 179.588 365.738 179.909V184H364.732Z" fill="#3A3A3A"/>
<path d="M187 161H384.571V159H187V161ZM385.571 162V198H387.571V162H385.571ZM384.571 199H187V201H384.571V199ZM186 198V162H184V198H186ZM187 199C186.448 199 186 198.552 186 198H184C184 199.657 185.343 201 187 201V199ZM385.571 198C385.571 198.552 385.124 199 384.571 199V201C386.228 201 387.571 199.657 387.571 198H385.571ZM384.571 161C385.124 161 385.571 161.448 385.571 162H387.571C387.571 160.343 386.228 159 384.571 159V161ZM187 159C185.343 159 184 160.343 184 162H186C186 161.448 186.448 161 187 161V159Z" fill="#F3F3F3" mask="url(#path-17-inside-1_1820_17314)"/>
<mask id="path-24-inside-2_1820_17314" fill="white">
<path d="M401 164C401 161.791 402.791 160 405 160H556C558.209 160 560 161.791 560 164V196C560 198.209 558.209 200 556 200H405C402.791 200 401 198.209 401 196V164Z"/>
</mask>
<path d="M401 164C401 161.791 402.791 160 405 160H556C558.209 160 560 161.791 560 164V196C560 198.209 558.209 200 556 200H405C402.791 200 401 198.209 401 196V164Z" fill="#0782DA" fill-opacity="0.1"/>
<path d="M441.813 174.181C441.813 173.396 442.654 172.899 443.342 173.277L453.922 179.096C454.634 179.488 454.634 180.512 453.922 180.904L443.342 186.723C442.654 187.101 441.813 186.604 441.813 185.819V174.181Z" stroke="#0B619B" stroke-width="1.37518" stroke-linecap="round" stroke-linejoin="round"/>
<path d="M476.244 184.626C475.715 184.626 475.24 184.521 474.816 184.311C474.393 184.101 474.054 183.812 473.799 183.446C473.543 183.08 473.404 182.663 473.38 182.194H474.461C474.503 182.612 474.692 182.957 475.028 183.23C475.367 183.5 475.772 183.635 476.244 183.635C476.622 183.635 476.958 183.547 477.253 183.37C477.55 183.193 477.782 182.949 477.951 182.64C478.122 182.328 478.207 181.975 478.207 181.582C478.207 181.18 478.119 180.821 477.942 180.506C477.767 180.187 477.527 179.937 477.221 179.753C476.915 179.57 476.565 179.477 476.172 179.474C475.89 179.471 475.6 179.515 475.303 179.605C475.005 179.692 474.761 179.805 474.569 179.943L473.524 179.817L474.082 175.277H478.874V176.268H475.019L474.695 178.988H474.749C474.938 178.838 475.175 178.713 475.46 178.614C475.745 178.515 476.043 178.466 476.352 178.466C476.916 178.466 477.419 178.601 477.861 178.871C478.305 179.138 478.653 179.504 478.905 179.97C479.16 180.435 479.288 180.966 479.288 181.564C479.288 182.152 479.156 182.678 478.892 183.14C478.631 183.599 478.27 183.963 477.811 184.23C477.352 184.494 476.829 184.626 476.244 184.626ZM481.095 184.5V177.583H482.122V178.664H482.212C482.356 178.294 482.589 178.008 482.91 177.804C483.231 177.596 483.617 177.493 484.067 177.493C484.524 177.493 484.903 177.596 485.207 177.804C485.513 178.008 485.751 178.294 485.923 178.664H485.995C486.172 178.306 486.438 178.023 486.792 177.813C487.146 177.599 487.571 177.493 488.066 177.493C488.685 177.493 489.191 177.686 489.584 178.074C489.977 178.458 490.174 179.057 490.174 179.871V184.5H489.111V179.871C489.111 179.36 488.971 178.995 488.692 178.776C488.413 178.557 488.084 178.448 487.706 178.448C487.22 178.448 486.843 178.595 486.576 178.889C486.308 179.18 486.175 179.549 486.175 179.997V184.5H485.094V179.762C485.094 179.369 484.966 179.052 484.711 178.812C484.456 178.569 484.127 178.448 483.725 178.448C483.449 178.448 483.191 178.521 482.95 178.668C482.713 178.815 482.521 179.019 482.374 179.281C482.23 179.539 482.158 179.838 482.158 180.177V184.5H481.095ZM493.702 183.239L493.63 183.725C493.579 184.068 493.501 184.434 493.396 184.824C493.294 185.215 493.187 185.582 493.076 185.928C492.965 186.273 492.874 186.548 492.801 186.752H491.991C492.03 186.56 492.081 186.306 492.144 185.991C492.207 185.675 492.27 185.323 492.333 184.932C492.399 184.545 492.453 184.149 492.495 183.743L492.549 183.239H493.702ZM497.793 175.277V184.5H496.677V176.448H496.623L494.371 177.943V176.808L496.677 175.277H497.793ZM505.364 179.132L504.409 179.402C504.349 179.243 504.26 179.088 504.143 178.938C504.029 178.785 503.873 178.659 503.675 178.56C503.477 178.461 503.223 178.411 502.914 178.411C502.49 178.411 502.138 178.509 501.855 178.704C501.576 178.896 501.437 179.141 501.437 179.438C501.437 179.702 501.533 179.911 501.725 180.064C501.917 180.217 502.217 180.345 502.625 180.447L503.652 180.699C504.271 180.849 504.732 181.079 505.035 181.388C505.338 181.694 505.49 182.089 505.49 182.573C505.49 182.969 505.376 183.323 505.147 183.635C504.922 183.948 504.607 184.194 504.202 184.374C503.796 184.554 503.325 184.644 502.788 184.644C502.082 184.644 501.498 184.491 501.036 184.185C500.573 183.879 500.281 183.431 500.158 182.843L501.166 182.591C501.262 182.963 501.444 183.242 501.711 183.428C501.982 183.614 502.334 183.707 502.77 183.707C503.265 183.707 503.658 183.602 503.949 183.392C504.244 183.179 504.391 182.924 504.391 182.627C504.391 182.386 504.307 182.185 504.139 182.023C503.97 181.858 503.712 181.735 503.364 181.654L502.211 181.384C501.578 181.234 501.112 181.001 500.815 180.686C500.521 180.367 500.374 179.97 500.374 179.492C500.374 179.102 500.483 178.757 500.703 178.457C500.925 178.156 501.226 177.921 501.608 177.75C501.992 177.578 502.427 177.493 502.914 177.493C503.598 177.493 504.136 177.643 504.526 177.943C504.919 178.243 505.198 178.64 505.364 179.132Z" fill="#0B619B"/>
<path fill-rule="evenodd" clip-rule="evenodd" d="M513.855 178.083C514.06 177.886 514.386 177.892 514.583 178.097L517.131 180.802L519.679 178.097C519.876 177.892 520.202 177.886 520.407 178.083C520.612 178.28 520.619 178.606 520.422 178.811L517.502 181.903C517.405 182.004 517.271 182.061 517.131 182.061C516.991 182.061 516.857 182.004 516.76 181.903L513.84 178.811C513.643 178.606 513.649 178.28 513.855 178.083Z" fill="#0B619B"/>
<path d="M405 161.057H556V158.943H405V161.057ZM558.943 164V196H561.057V164H558.943ZM556 198.943H405V201.057H556V198.943ZM402.057 196V164H399.943V196H402.057ZM405 198.943C403.375 198.943 402.057 197.625 402.057 196H399.943C399.943 198.793 402.207 201.057 405 201.057V198.943ZM558.943 196C558.943 197.625 557.625 198.943 556 198.943V201.057C558.793 201.057 561.057 198.793 561.057 196H558.943ZM556 161.057C557.626 161.057 558.943 162.375 558.943 164H561.057C561.057 161.207 558.793 158.943 556 158.943V161.057ZM405 158.943C402.207 158.943 399.943 161.207 399.943 164H402.057C402.057 162.375 403.375 161.057 405 161.057V158.943Z" fill="#0782DA" mask="url(#path-24-inside-2_1820_17314)"/>
<rect width="164" height="300" fill="white"/>
<mask id="path-29-inside-3_1820_17314" fill="white">
<path d="M0 0H164V300H0V0Z"/>
</mask>
<path d="M163 0V300H165V0H163Z" fill="#F3F3F3" mask="url(#path-29-inside-3_1820_17314)"/>
<rect x="16" y="18" width="129" height="40" rx="4" fill="white"/>
<rect x="24" y="30" width="17" height="16" rx="1" fill="#EA5555" fill-opacity="0.1"/>
<path d="M33.9227 36.7266C33.8895 36.4164 33.7499 36.175 33.5036 36.0021C33.2598 35.8293 32.9426 35.7429 32.5519 35.7429C32.2773 35.7429 32.0418 35.7843 31.8453 35.8672C31.6488 35.95 31.4984 36.0625 31.3943 36.2045C31.2901 36.3466 31.2368 36.5088 31.2345 36.6911C31.2345 36.8426 31.2688 36.974 31.3374 37.0852C31.4085 37.1965 31.5044 37.2912 31.6251 37.3693C31.7458 37.4451 31.8796 37.509 32.0264 37.5611C32.1731 37.6132 32.3211 37.657 32.4703 37.6925L33.1521 37.8629C33.4267 37.9268 33.6907 38.0133 33.944 38.1222C34.1997 38.2311 34.4281 38.3684 34.6294 38.5341C34.8329 38.6998 34.9939 38.8999 35.1123 39.1342C35.2307 39.3686 35.2899 39.6432 35.2899 39.9581C35.2899 40.3842 35.181 40.7595 34.9632 41.0838C34.7454 41.4058 34.4305 41.6579 34.0186 41.8402C33.609 42.0201 33.113 42.1101 32.5306 42.1101C31.9648 42.1101 31.4736 42.0225 31.0569 41.8473C30.6426 41.6721 30.3183 41.4164 30.0839 41.0803C29.8519 40.7441 29.7264 40.3345 29.7075 39.8516H31.0036C31.0226 40.1049 31.1007 40.3156 31.238 40.4837C31.3753 40.6518 31.5541 40.7772 31.7742 40.8601C31.9968 40.9429 32.2454 40.9844 32.52 40.9844C32.8064 40.9844 33.0574 40.9418 33.2728 40.8565C33.4906 40.7689 33.6611 40.6482 33.7842 40.4943C33.9073 40.3381 33.97 40.1558 33.9724 39.9474C33.97 39.758 33.9144 39.6018 33.8055 39.4787C33.6966 39.3532 33.5439 39.2491 33.3474 39.1662C33.1533 39.081 32.926 39.0052 32.6656 38.9389L31.8382 38.7259C31.2392 38.572 30.7657 38.3388 30.4177 38.0263C30.0721 37.7114 29.8992 37.2936 29.8992 36.7727C29.8992 36.3442 30.0152 35.969 30.2472 35.647C30.4816 35.325 30.8 35.0753 31.2025 34.8977C31.605 34.7178 32.0607 34.6278 32.5697 34.6278C33.0858 34.6278 33.538 34.7178 33.9262 34.8977C34.3169 35.0753 34.6234 35.3227 34.846 35.6399C35.0685 35.9548 35.1833 36.317 35.1904 36.7266H33.9227Z" fill="#EA5555"/>
<path d="M63.9034 42V41.233L66.7841 38.0795C67.1222 37.7102 67.4006 37.3892 67.6193 37.1165C67.8381 36.8409 68 36.5824 68.1051 36.3409C68.2131 36.0966 68.267 35.8409 68.267 35.5739C68.267 35.267 68.1932 35.0014 68.0455 34.777C67.9006 34.5526 67.7017 34.3793 67.4489 34.2571C67.196 34.1349 66.9119 34.0739 66.5966 34.0739C66.2614 34.0739 65.9688 34.1435 65.7188 34.2827C65.4716 34.419 65.2798 34.6108 65.1435 34.858C65.0099 35.1051 64.9432 35.3949 64.9432 35.7273H63.9375C63.9375 35.2159 64.0554 34.767 64.2912 34.3807C64.527 33.9943 64.848 33.6932 65.2543 33.4773C65.6634 33.2614 66.1222 33.1534 66.6307 33.1534C67.142 33.1534 67.5952 33.2614 67.9901 33.4773C68.3849 33.6932 68.6946 33.9844 68.919 34.3509C69.1435 34.7173 69.2557 35.125 69.2557 35.5739C69.2557 35.8949 69.1974 36.2088 69.081 36.5156C68.9673 36.8196 68.7685 37.1591 68.4844 37.5341C68.2031 37.9062 67.8125 38.3608 67.3125 38.8977L65.3523 40.9943V41.0625H69.4091V42H63.9034ZM74.2372 33.2727V42H73.1804V34.3807H73.1293L70.9986 35.7955V34.7216L73.1804 33.2727H74.2372ZM79.5938 42.1193C78.9517 42.1193 78.4048 41.9446 77.9531 41.5952C77.5014 41.2429 77.1563 40.733 76.9176 40.0653C76.679 39.3949 76.5597 38.5852 76.5597 37.6364C76.5597 36.6932 76.679 35.8878 76.9176 35.2202C77.1591 34.5497 77.5057 34.0384 77.9574 33.6861C78.4119 33.331 78.9574 33.1534 79.5938 33.1534C80.2301 33.1534 80.7741 33.331 81.2259 33.6861C81.6804 34.0384 82.027 34.5497 82.2656 35.2202C82.5071 35.8878 82.6278 36.6932 82.6278 37.6364C82.6278 38.5852 82.5085 39.3949 82.2699 40.0653C82.0312 40.733 81.6861 41.2429 81.2344 41.5952C80.7827 41.9446 80.2358 42.1193 79.5938 42.1193ZM79.5938 41.1818C80.2301 41.1818 80.7244 40.875 81.0767 40.2614C81.429 39.6477 81.6051 38.7727 81.6051 37.6364C81.6051 36.8807 81.5241 36.2372 81.3622 35.706C81.2031 35.1747 80.973 34.7699 80.6719 34.4915C80.3736 34.2131 80.0142 34.0739 79.5938 34.0739C78.9631 34.0739 78.4702 34.3849 78.1151 35.0071C77.7599 35.6264 77.5824 36.5028 77.5824 37.6364C77.5824 38.392 77.6619 39.0341 77.821 39.5625C77.9801 40.0909 78.2088 40.4929 78.5071 40.7685C78.8082 41.044 79.1705 41.1818 79.5938 41.1818ZM87.0938 42.1193C86.4517 42.1193 85.9048 41.9446 85.4531 41.5952C85.0014 41.2429 84.6563 40.733 84.4176 40.0653C84.179 39.3949 84.0597 38.5852 84.0597 37.6364C84.0597 36.6932 84.179 35.8878 84.4176 35.2202C84.6591 34.5497 85.0057 34.0384 85.4574 33.6861C85.9119 33.331 86.4574 33.1534 87.0938 33.1534C87.7301 33.1534 88.2741 33.331 88.7259 33.6861C89.1804 34.0384 89.527 34.5497 89.7656 35.2202C90.0071 35.8878 90.1278 36.6932 90.1278 37.6364C90.1278 38.5852 90.0085 39.3949 89.7699 40.0653C89.5312 40.733 89.1861 41.2429 88.7344 41.5952C88.2827 41.9446 87.7358 42.1193 87.0938 42.1193ZM87.0938 41.1818C87.7301 41.1818 88.2244 40.875 88.5767 40.2614C88.929 39.6477 89.1051 38.7727 89.1051 37.6364C89.1051 36.8807 89.0241 36.2372 88.8622 35.706C88.7031 35.1747 88.473 34.7699 88.1719 34.4915C87.8736 34.2131 87.5142 34.0739 87.0938 34.0739C86.4631 34.0739 85.9702 34.3849 85.6151 35.0071C85.2599 35.6264 85.0824 36.5028 85.0824 37.6364C85.0824 38.392 85.1619 39.0341 85.321 39.5625C85.4801 40.0909 85.7088 40.4929 86.0071 40.7685C86.3082 41.044 86.6705 41.1818 87.0938 41.1818ZM94.5938 42.1193C93.9517 42.1193 93.4048 41.9446 92.9531 41.5952C92.5014 41.2429 92.1563 40.733 91.9176 40.0653C91.679 39.3949 91.5597 38.5852 91.5597 37.6364C91.5597 36.6932 91.679 35.8878 91.9176 35.2202C92.1591 34.5497 92.5057 34.0384 92.9574 33.6861C93.4119 33.331 93.9574 33.1534 94.5938 33.1534C95.2301 33.1534 95.7741 33.331 96.2259 33.6861C96.6804 34.0384 97.027 34.5497 97.2656 35.2202C97.5071 35.8878 97.6278 36.6932 97.6278 37.6364C97.6278 38.5852 97.5085 39.3949 97.2699 40.0653C97.0312 40.733 96.6861 41.2429 96.2344 41.5952C95.7827 41.9446 95.2358 42.1193 94.5938 42.1193ZM94.5938 41.1818C95.2301 41.1818 95.7244 40.875 96.0767 40.2614C96.429 39.6477 96.6051 38.7727 96.6051 37.6364C96.6051 36.8807 96.5241 36.2372 96.3622 35.706C96.2031 35.1747 95.973 34.7699 95.6719 34.4915C95.3736 34.2131 95.0142 34.0739 94.5938 34.0739C93.9631 34.0739 93.4702 34.3849 93.1151 35.0071C92.7599 35.6264 92.5824 36.5028 92.5824 37.6364C92.5824 38.392 92.6619 39.0341 92.821 39.5625C92.9801 40.0909 93.2088 40.4929 93.5071 40.7685C93.8082 41.044 94.1705 41.1818 94.5938 41.1818Z" fill="#3A3A3A"/>
<path d="M129.08 36H128.023C127.96 35.696 127.851 35.429 127.695 35.1989C127.541 34.9688 127.354 34.7756 127.132 34.6193C126.913 34.4602 126.67 34.3409 126.403 34.2614C126.136 34.1818 125.858 34.142 125.568 34.142C125.04 34.142 124.561 34.2756 124.132 34.5426C123.706 34.8097 123.366 35.2031 123.114 35.723C122.864 36.2429 122.739 36.8807 122.739 37.6364C122.739 38.392 122.864 39.0298 123.114 39.5497C123.366 40.0696 123.706 40.4631 124.132 40.7301C124.561 40.9972 125.04 41.1307 125.568 41.1307C125.858 41.1307 126.136 41.0909 126.403 41.0114C126.67 40.9318 126.913 40.8139 127.132 40.6577C127.354 40.4986 127.541 40.304 127.695 40.0739C127.851 39.8409 127.96 39.5739 128.023 39.2727H129.08C129 39.7187 128.855 40.1179 128.645 40.4702C128.435 40.8224 128.173 41.1222 127.861 41.3693C127.548 41.6136 127.197 41.7997 126.808 41.9276C126.422 42.0554 126.009 42.1193 125.568 42.1193C124.824 42.1193 124.162 41.9375 123.582 41.5739C123.003 41.2102 122.547 40.6932 122.214 40.0227C121.882 39.3523 121.716 38.5568 121.716 37.6364C121.716 36.7159 121.882 35.9205 122.214 35.25C122.547 34.5795 123.003 34.0625 123.582 33.6989C124.162 33.3352 124.824 33.1534 125.568 33.1534C126.009 33.1534 126.422 33.2173 126.808 33.3452C127.197 33.473 127.548 33.6605 127.861 33.9077C128.173 34.152 128.435 34.4503 128.645 34.8026C128.855 35.152 129 35.5511 129.08 36ZM130.787 42V33.2727H136.054V34.2102H131.844V37.1591H135.782V38.0966H131.844V41.0625H136.123V42H130.787Z" fill="#3A3A3A"/>
<rect x="16" y="114" width="129" height="40" rx="4" fill="white"/>
<rect x="24" y="126" width="17" height="16" rx="1" fill="#EA5555" fill-opacity="0.1"/>
<path d="M33.9227 132.727C33.8895 132.416 33.7499 132.175 33.5036 132.002C33.2598 131.829 32.9426 131.743 32.5519 131.743C32.2773 131.743 32.0418 131.784 31.8453 131.867C31.6488 131.95 31.4984 132.062 31.3943 132.205C31.2901 132.347 31.2368 132.509 31.2345 132.691C31.2345 132.843 31.2688 132.974 31.3374 133.085C31.4085 133.196 31.5044 133.291 31.6251 133.369C31.7458 133.445 31.8796 133.509 32.0264 133.561C32.1731 133.613 32.3211 133.657 32.4703 133.692L33.1521 133.863C33.4267 133.927 33.6907 134.013 33.944 134.122C34.1997 134.231 34.4281 134.368 34.6294 134.534C34.8329 134.7 34.9939 134.9 35.1123 135.134C35.2307 135.369 35.2899 135.643 35.2899 135.958C35.2899 136.384 35.181 136.759 34.9632 137.084C34.7454 137.406 34.4305 137.658 34.0186 137.84C33.609 138.02 33.113 138.11 32.5306 138.11C31.9648 138.11 31.4736 138.022 31.0569 137.847C30.6426 137.672 30.3183 137.416 30.0839 137.08C29.8519 136.744 29.7264 136.335 29.7075 135.852H31.0036C31.0226 136.105 31.1007 136.316 31.238 136.484C31.3753 136.652 31.5541 136.777 31.7742 136.86C31.9968 136.943 32.2454 136.984 32.52 136.984C32.8064 136.984 33.0574 136.942 33.2728 136.857C33.4906 136.769 33.6611 136.648 33.7842 136.494C33.9073 136.338 33.97 136.156 33.9724 135.947C33.97 135.758 33.9144 135.602 33.8055 135.479C33.6966 135.353 33.5439 135.249 33.3474 135.166C33.1533 135.081 32.926 135.005 32.6656 134.939L31.8382 134.726C31.2392 134.572 30.7657 134.339 30.4177 134.026C30.0721 133.711 29.8992 133.294 29.8992 132.773C29.8992 132.344 30.0152 131.969 30.2472 131.647C30.4816 131.325 30.8 131.075 31.2025 130.898C31.605 130.718 32.0607 130.628 32.5697 130.628C33.0858 130.628 33.538 130.718 33.9262 130.898C34.3169 131.075 34.6234 131.323 34.846 131.64C35.0685 131.955 35.1833 132.317 35.1904 132.727H33.9227Z" fill="#EA5555"/>
<path d="M63.4034 138V137.233L66.2841 134.08C66.6222 133.71 66.9006 133.389 67.1193 133.116C67.3381 132.841 67.5 132.582 67.6051 132.341C67.7131 132.097 67.767 131.841 67.767 131.574C67.767 131.267 67.6932 131.001 67.5455 130.777C67.4006 130.553 67.2017 130.379 66.9489 130.257C66.696 130.135 66.4119 130.074 66.0966 130.074C65.7614 130.074 65.4688 130.143 65.2188 130.283C64.9716 130.419 64.7798 130.611 64.6435 130.858C64.5099 131.105 64.4432 131.395 64.4432 131.727H63.4375C63.4375 131.216 63.5554 130.767 63.7912 130.381C64.027 129.994 64.348 129.693 64.7543 129.477C65.1634 129.261 65.6222 129.153 66.1307 129.153C66.642 129.153 67.0952 129.261 67.4901 129.477C67.8849 129.693 68.1946 129.984 68.419 130.351C68.6435 130.717 68.7557 131.125 68.7557 131.574C68.7557 131.895 68.6974 132.209 68.581 132.516C68.4673 132.82 68.2685 133.159 67.9844 133.534C67.7031 133.906 67.3125 134.361 66.8125 134.898L64.8523 136.994V137.062H68.9091V138H63.4034ZM73.5156 138.119C72.8736 138.119 72.3267 137.945 71.875 137.595C71.4233 137.243 71.0781 136.733 70.8395 136.065C70.6009 135.395 70.4815 134.585 70.4815 133.636C70.4815 132.693 70.6009 131.888 70.8395 131.22C71.081 130.55 71.4276 130.038 71.8793 129.686C72.3338 129.331 72.8793 129.153 73.5156 129.153C74.152 129.153 74.696 129.331 75.1477 129.686C75.6023 130.038 75.9489 130.55 76.1875 131.22C76.429 131.888 76.5497 132.693 76.5497 133.636C76.5497 134.585 76.4304 135.395 76.1918 136.065C75.9531 136.733 75.608 137.243 75.1562 137.595C74.7045 137.945 74.1577 138.119 73.5156 138.119ZM73.5156 137.182C74.152 137.182 74.6463 136.875 74.9986 136.261C75.3509 135.648 75.527 134.773 75.527 133.636C75.527 132.881 75.446 132.237 75.2841 131.706C75.125 131.175 74.8949 130.77 74.5938 130.491C74.2955 130.213 73.9361 130.074 73.5156 130.074C72.8849 130.074 72.392 130.385 72.0369 131.007C71.6818 131.626 71.5043 132.503 71.5043 133.636C71.5043 134.392 71.5838 135.034 71.7429 135.562C71.902 136.091 72.1307 136.493 72.429 136.768C72.7301 137.044 73.0923 137.182 73.5156 137.182ZM81.0156 138.119C80.3736 138.119 79.8267 137.945 79.375 137.595C78.9233 137.243 78.5781 136.733 78.3395 136.065C78.1009 135.395 77.9815 134.585 77.9815 133.636C77.9815 132.693 78.1009 131.888 78.3395 131.22C78.581 130.55 78.9276 130.038 79.3793 129.686C79.8338 129.331 80.3793 129.153 81.0156 129.153C81.652 129.153 82.196 129.331 82.6477 129.686C83.1023 130.038 83.4489 130.55 83.6875 131.22C83.929 131.888 84.0497 132.693 84.0497 133.636C84.0497 134.585 83.9304 135.395 83.6918 136.065C83.4531 136.733 83.108 137.243 82.6562 137.595C82.2045 137.945 81.6577 138.119 81.0156 138.119ZM81.0156 137.182C81.652 137.182 82.1463 136.875 82.4986 136.261C82.8509 135.648 83.027 134.773 83.027 133.636C83.027 132.881 82.946 132.237 82.7841 131.706C82.625 131.175 82.3949 130.77 82.0938 130.491C81.7955 130.213 81.4361 130.074 81.0156 130.074C80.3849 130.074 79.892 130.385 79.5369 131.007C79.1818 131.626 79.0043 132.503 79.0043 133.636C79.0043 134.392 79.0838 135.034 79.2429 135.562C79.402 136.091 79.6307 136.493 79.929 136.768C80.2301 137.044 80.5923 137.182 81.0156 137.182ZM88.5156 138.119C87.8736 138.119 87.3267 137.945 86.875 137.595C86.4233 137.243 86.0781 136.733 85.8395 136.065C85.6009 135.395 85.4815 134.585 85.4815 133.636C85.4815 132.693 85.6009 131.888 85.8395 131.22C86.081 130.55 86.4276 130.038 86.8793 129.686C87.3338 129.331 87.8793 129.153 88.5156 129.153C89.152 129.153 89.696 129.331 90.1477 129.686C90.6023 130.038 90.9489 130.55 91.1875 131.22C91.429 131.888 91.5497 132.693 91.5497 133.636C91.5497 134.585 91.4304 135.395 91.1918 136.065C90.9531 136.733 90.608 137.243 90.1562 137.595C89.7045 137.945 89.1577 138.119 88.5156 138.119ZM88.5156 137.182C89.152 137.182 89.6463 136.875 89.9986 136.261C90.3509 135.648 90.527 134.773 90.527 133.636C90.527 132.881 90.446 132.237 90.2841 131.706C90.125 131.175 89.8949 130.77 89.5938 130.491C89.2955 130.213 88.9361 130.074 88.5156 130.074C87.8849 130.074 87.392 130.385 87.0369 131.007C86.6818 131.626 86.5043 132.503 86.5043 133.636C86.5043 134.392 86.5838 135.034 86.7429 135.562C86.902 136.091 87.1307 136.493 87.429 136.768C87.7301 137.044 88.0923 137.182 88.5156 137.182ZM96.0156 138.119C95.3736 138.119 94.8267 137.945 94.375 137.595C93.9233 137.243 93.5781 136.733 93.3395 136.065C93.1009 135.395 92.9815 134.585 92.9815 133.636C92.9815 132.693 93.1009 131.888 93.3395 131.22C93.581 130.55 93.9276 130.038 94.3793 129.686C94.8338 129.331 95.3793 129.153 96.0156 129.153C96.652 129.153 97.196 129.331 97.6477 129.686C98.1023 130.038 98.4489 130.55 98.6875 131.22C98.929 131.888 99.0497 132.693 99.0497 133.636C99.0497 134.585 98.9304 135.395 98.6918 136.065C98.4531 136.733 98.108 137.243 97.6562 137.595C97.2045 137.945 96.6577 138.119 96.0156 138.119ZM96.0156 137.182C96.652 137.182 97.1463 136.875 97.4986 136.261C97.8509 135.648 98.027 134.773 98.027 133.636C98.027 132.881 97.946 132.237 97.7841 131.706C97.625 131.175 97.3949 130.77 97.0938 130.491C96.7955 130.213 96.4361 130.074 96.0156 130.074C95.3849 130.074 94.892 130.385 94.5369 131.007C94.1818 131.626 94.0043 132.503 94.0043 133.636C94.0043 134.392 94.0838 135.034 94.2429 135.562C94.402 136.091 94.6307 136.493 94.929 136.768C95.2301 137.044 95.5923 137.182 96.0156 137.182Z" fill="#3A3A3A"/>
<path d="M123.057 138V129.273H126.006C126.69 129.273 127.25 129.396 127.685 129.643C128.122 129.888 128.446 130.219 128.656 130.636C128.866 131.054 128.972 131.52 128.972 132.034C128.972 132.548 128.866 133.016 128.656 133.436C128.449 133.857 128.128 134.192 127.693 134.442C127.259 134.689 126.702 134.812 126.023 134.812H123.909V133.875H125.989C126.457 133.875 126.834 133.794 127.118 133.632C127.402 133.47 127.608 133.251 127.736 132.976C127.866 132.697 127.932 132.384 127.932 132.034C127.932 131.685 127.866 131.372 127.736 131.097C127.608 130.821 127.401 130.605 127.114 130.449C126.827 130.29 126.446 130.21 125.972 130.21H124.114V138H123.057ZM130.674 138V129.273H135.941V130.21H131.731V133.159H135.668V134.097H131.731V137.062H136.009V138H130.674Z" fill="#3A3A3A"/>
<rect x="16" y="66" width="129" height="40" rx="4" fill="white"/>
<rect x="24" y="78" width="17" height="16" rx="1" fill="#00C452" fill-opacity="0.1"/>
<path d="M29.9312 90V82.7273H32.7153C33.2409 82.7273 33.6776 82.8101 34.0257 82.9759C34.376 83.1392 34.6376 83.3629 34.8105 83.647C34.9856 83.9311 35.0732 84.2531 35.0732 84.6129C35.0732 84.9089 35.0164 85.1622 34.9028 85.3729C34.7892 85.5812 34.6365 85.7505 34.4447 85.8807C34.2529 86.0109 34.0387 86.1044 33.8019 86.1612V86.2322C34.06 86.2464 34.3074 86.3258 34.5441 86.4702C34.7832 86.6122 34.9785 86.8134 35.1301 87.0739C35.2816 87.3343 35.3573 87.6491 35.3573 88.0185C35.3573 88.3949 35.2662 88.7334 35.0839 89.0341C34.9016 89.3324 34.627 89.5679 34.26 89.7408C33.8931 89.9136 33.4314 90 32.8751 90H29.9312ZM31.2487 88.8991H32.6656C33.1438 88.8991 33.4883 88.808 33.699 88.6257C33.912 88.4411 34.0186 88.2043 34.0186 87.9155C34.0186 87.7 33.9653 87.5059 33.8588 87.3331C33.7522 87.1579 33.6007 87.0206 33.4042 86.9212C33.2077 86.8194 32.9733 86.7685 32.7011 86.7685H31.2487V88.8991ZM31.2487 85.8203H32.5519C32.7792 85.8203 32.984 85.7789 33.1663 85.696C33.3486 85.6108 33.4918 85.4912 33.596 85.3374C33.7025 85.1811 33.7558 84.9964 33.7558 84.7834C33.7558 84.5017 33.6563 84.2696 33.4575 84.0874C33.261 83.9051 32.9686 83.8139 32.5803 83.8139H31.2487V85.8203Z" fill="#00C452"/>
<path d="M62.9034 90V89.233L65.7841 86.0795C66.1222 85.7102 66.4006 85.3892 66.6193 85.1165C66.8381 84.8409 67 84.5824 67.1051 84.3409C67.2131 84.0966 67.267 83.8409 67.267 83.5739C67.267 83.267 67.1932 83.0014 67.0455 82.777C66.9006 82.5526 66.7017 82.3793 66.4489 82.2571C66.196 82.1349 65.9119 82.0739 65.5966 82.0739C65.2614 82.0739 64.9688 82.1435 64.7188 82.2827C64.4716 82.419 64.2798 82.6108 64.1435 82.858C64.0099 83.1051 63.9432 83.3949 63.9432 83.7273H62.9375C62.9375 83.2159 63.0554 82.767 63.2912 82.3807C63.527 81.9943 63.848 81.6932 64.2543 81.4773C64.6634 81.2614 65.1222 81.1534 65.6307 81.1534C66.142 81.1534 66.5952 81.2614 66.9901 81.4773C67.3849 81.6932 67.6946 81.9844 67.919 82.3509C68.1435 82.7173 68.2557 83.125 68.2557 83.5739C68.2557 83.8949 68.1974 84.2088 68.081 84.5156C67.9673 84.8196 67.7685 85.1591 67.4844 85.5341C67.2031 85.9062 66.8125 86.3608 66.3125 86.8977L64.3523 88.9943V89.0625H68.4091V90H62.9034ZM73.0156 90.1193C72.3736 90.1193 71.8267 89.9446 71.375 89.5952C70.9233 89.2429 70.5781 88.733 70.3395 88.0653C70.1009 87.3949 69.9815 86.5852 69.9815 85.6364C69.9815 84.6932 70.1009 83.8878 70.3395 83.2202C70.581 82.5497 70.9276 82.0384 71.3793 81.6861C71.8338 81.331 72.3793 81.1534 73.0156 81.1534C73.652 81.1534 74.196 81.331 74.6477 81.6861C75.1023 82.0384 75.4489 82.5497 75.6875 83.2202C75.929 83.8878 76.0497 84.6932 76.0497 85.6364C76.0497 86.5852 75.9304 87.3949 75.6918 88.0653C75.4531 88.733 75.108 89.2429 74.6562 89.5952C74.2045 89.9446 73.6577 90.1193 73.0156 90.1193ZM73.0156 89.1818C73.652 89.1818 74.1463 88.875 74.4986 88.2614C74.8509 87.6477 75.027 86.7727 75.027 85.6364C75.027 84.8807 74.946 84.2372 74.7841 83.706C74.625 83.1747 74.3949 82.7699 74.0938 82.4915C73.7955 82.2131 73.4361 82.0739 73.0156 82.0739C72.3849 82.0739 71.892 82.3849 71.5369 83.0071C71.1818 83.6264 71.0043 84.5028 71.0043 85.6364C71.0043 86.392 71.0838 87.0341 71.2429 87.5625C71.402 88.0909 71.6307 88.4929 71.929 88.7685C72.2301 89.044 72.5923 89.1818 73.0156 89.1818ZM80.5668 90.1193C80.2088 90.1136 79.8509 90.0455 79.4929 89.9148C79.1349 89.7841 78.8082 89.5639 78.5128 89.2543C78.2173 88.9418 77.9801 88.5199 77.8011 87.9886C77.6222 87.4545 77.5327 86.7841 77.5327 85.9773C77.5327 85.2045 77.6051 84.5199 77.75 83.9233C77.8949 83.3239 78.1051 82.8196 78.3807 82.4105C78.6563 81.9986 78.9886 81.6861 79.3778 81.473C79.7699 81.2599 80.2116 81.1534 80.7031 81.1534C81.1918 81.1534 81.6264 81.2514 82.0071 81.4474C82.3906 81.6406 82.7031 81.9105 82.9446 82.2571C83.1861 82.6037 83.3423 83.0028 83.4134 83.4545H82.3736C82.277 83.0625 82.0895 82.7372 81.8111 82.4787C81.5327 82.2202 81.1634 82.0909 80.7031 82.0909C80.027 82.0909 79.4943 82.3849 79.1051 82.973C78.7188 83.5611 78.5241 84.3864 78.5213 85.4489H78.5895C78.7486 85.2074 78.9375 85.0014 79.1562 84.831C79.3778 84.6577 79.6222 84.5241 79.8892 84.4304C80.1563 84.3366 80.4389 84.2898 80.7372 84.2898C81.2372 84.2898 81.6946 84.4148 82.1094 84.6648C82.5241 84.9119 82.8565 85.2543 83.1065 85.6918C83.3565 86.1264 83.4815 86.625 83.4815 87.1875C83.4815 87.7273 83.3608 88.2216 83.1193 88.6705C82.8778 89.1165 82.5384 89.4716 82.1009 89.7358C81.6662 89.9972 81.1548 90.125 80.5668 90.1193ZM80.5668 89.1818C80.9247 89.1818 81.2457 89.0923 81.5298 88.9134C81.8168 88.7344 82.0426 88.4943 82.2074 88.1932C82.375 87.892 82.4588 87.5568 82.4588 87.1875C82.4588 86.8267 82.3778 86.4986 82.2159 86.2031C82.0568 85.9048 81.8366 85.6676 81.5554 85.4915C81.277 85.3153 80.9588 85.2273 80.6009 85.2273C80.331 85.2273 80.0795 85.2812 79.8466 85.3892C79.6136 85.4943 79.4091 85.6392 79.233 85.8239C79.0597 86.0085 78.9233 86.2202 78.8239 86.4588C78.7244 86.6946 78.6747 86.9432 78.6747 87.2045C78.6747 87.5511 78.7557 87.875 78.9176 88.1761C79.0824 88.4773 79.3068 88.7202 79.5909 88.9048C79.8778 89.0895 80.2031 89.1818 80.5668 89.1818ZM88.0039 90.1193C87.3619 90.1193 86.815 89.9446 86.3633 89.5952C85.9116 89.2429 85.5664 88.733 85.3278 88.0653C85.0891 87.3949 84.9698 86.5852 84.9698 85.6364C84.9698 84.6932 85.0891 83.8878 85.3278 83.2202C85.5692 82.5497 85.9158 82.0384 86.3675 81.6861C86.8221 81.331 87.3675 81.1534 88.0039 81.1534C88.6403 81.1534 89.1843 81.331 89.636 81.6861C90.0906 82.0384 90.4371 82.5497 90.6758 83.2202C90.9173 83.8878 91.038 84.6932 91.038 85.6364C91.038 86.5852 90.9187 87.3949 90.68 88.0653C90.4414 88.733 90.0962 89.2429 89.6445 89.5952C89.1928 89.9446 88.646 90.1193 88.0039 90.1193ZM88.0039 89.1818C88.6403 89.1818 89.1346 88.875 89.4869 88.2614C89.8391 87.6477 90.0153 86.7727 90.0153 85.6364C90.0153 84.8807 89.9343 84.2372 89.7724 83.706C89.6133 83.1747 89.3832 82.7699 89.082 82.4915C88.7837 82.2131 88.4244 82.0739 88.0039 82.0739C87.3732 82.0739 86.8803 82.3849 86.5252 83.0071C86.1701 83.6264 85.9925 84.5028 85.9925 85.6364C85.9925 86.392 86.0721 87.0341 86.2312 87.5625C86.3903 88.0909 86.619 88.4929 86.9173 88.7685C87.2184 89.044 87.5806 89.1818 88.0039 89.1818ZM95.5039 90.1193C94.8619 90.1193 94.315 89.9446 93.8633 89.5952C93.4116 89.2429 93.0664 88.733 92.8278 88.0653C92.5891 87.3949 92.4698 86.5852 92.4698 85.6364C92.4698 84.6932 92.5891 83.8878 92.8278 83.2202C93.0692 82.5497 93.4158 82.0384 93.8675 81.6861C94.3221 81.331 94.8675 81.1534 95.5039 81.1534C96.1403 81.1534 96.6843 81.331 97.136 81.6861C97.5906 82.0384 97.9371 82.5497 98.1758 83.2202C98.4173 83.8878 98.538 84.6932 98.538 85.6364C98.538 86.5852 98.4187 87.3949 98.18 88.0653C97.9414 88.733 97.5962 89.2429 97.1445 89.5952C96.6928 89.9446 96.146 90.1193 95.5039 90.1193ZM95.5039 89.1818C96.1403 89.1818 96.6346 88.875 96.9869 88.2614C97.3391 87.6477 97.5153 86.7727 97.5153 85.6364C97.5153 84.8807 97.4343 84.2372 97.2724 83.706C97.1133 83.1747 96.8832 82.7699 96.582 82.4915C96.2837 82.2131 95.9244 82.0739 95.5039 82.0739C94.8732 82.0739 94.3803 82.3849 94.0252 83.0071C93.6701 83.6264 93.4925 84.5028 93.4925 85.6364C93.4925 86.392 93.5721 87.0341 93.7312 87.5625C93.8903 88.0909 94.119 88.4929 94.4173 88.7685C94.7184 89.044 95.0806 89.1818 95.5039 89.1818Z" fill="#3A3A3A"/>
<path d="M129.08 84H128.023C127.96 83.696 127.851 83.429 127.695 83.1989C127.541 82.9688 127.354 82.7756 127.132 82.6193C126.913 82.4602 126.67 82.3409 126.403 82.2614C126.136 82.1818 125.858 82.142 125.568 82.142C125.04 82.142 124.561 82.2756 124.132 82.5426C123.706 82.8097 123.366 83.2031 123.114 83.723C122.864 84.2429 122.739 84.8807 122.739 85.6364C122.739 86.392 122.864 87.0298 123.114 87.5497C123.366 88.0696 123.706 88.4631 124.132 88.7301C124.561 88.9972 125.04 89.1307 125.568 89.1307C125.858 89.1307 126.136 89.0909 126.403 89.0114C126.67 88.9318 126.913 88.8139 127.132 88.6577C127.354 88.4986 127.541 88.304 127.695 88.0739C127.851 87.8409 127.96 87.5739 128.023 87.2727H129.08C129 87.7187 128.855 88.1179 128.645 88.4702C128.435 88.8224 128.173 89.1222 127.861 89.3693C127.548 89.6136 127.197 89.7997 126.808 89.9276C126.422 90.0554 126.009 90.1193 125.568 90.1193C124.824 90.1193 124.162 89.9375 123.582 89.5739C123.003 89.2102 122.547 88.6932 122.214 88.0227C121.882 87.3523 121.716 86.5568 121.716 85.6364C121.716 84.7159 121.882 83.9205 122.214 83.25C122.547 82.5795 123.003 82.0625 123.582 81.6989C124.162 81.3352 124.824 81.1534 125.568 81.1534C126.009 81.1534 126.422 81.2173 126.808 81.3452C127.197 81.473 127.548 81.6605 127.861 81.9077C128.173 82.152 128.435 82.4503 128.645 82.8026C128.855 83.152 129 83.5511 129.08 84ZM130.787 90V81.2727H136.054V82.2102H131.844V85.1591H135.782V86.0966H131.844V89.0625H136.123V90H130.787Z" fill="#3A3A3A"/>
<rect x="16" y="162" width="129" height="40" rx="4" fill="white"/>
<rect x="24" y="174" width="17" height="16" rx="1" fill="#00C452" fill-opacity="0.1"/>
<path d="M29.9312 186V178.727H32.7153C33.2409 178.727 33.6776 178.81 34.0257 178.976C34.376 179.139 34.6376 179.363 34.8105 179.647C34.9856 179.931 35.0732 180.253 35.0732 180.613C35.0732 180.909 35.0164 181.162 34.9028 181.373C34.7892 181.581 34.6365 181.75 34.4447 181.881C34.2529 182.011 34.0387 182.104 33.8019 182.161V182.232C34.06 182.246 34.3074 182.326 34.5441 182.47C34.7832 182.612 34.9785 182.813 35.1301 183.074C35.2816 183.334 35.3573 183.649 35.3573 184.018C35.3573 184.395 35.2662 184.733 35.0839 185.034C34.9016 185.332 34.627 185.568 34.26 185.741C33.8931 185.914 33.4314 186 32.8751 186H29.9312ZM31.2487 184.899H32.6656C33.1438 184.899 33.4883 184.808 33.699 184.626C33.912 184.441 34.0186 184.204 34.0186 183.915C34.0186 183.7 33.9653 183.506 33.8588 183.333C33.7522 183.158 33.6007 183.021 33.4042 182.921C33.2077 182.819 32.9733 182.768 32.7011 182.768H31.2487V184.899ZM31.2487 181.82H32.5519C32.7792 181.82 32.984 181.779 33.1663 181.696C33.3486 181.611 33.4918 181.491 33.596 181.337C33.7025 181.181 33.7558 180.996 33.7558 180.783C33.7558 180.502 33.6563 180.27 33.4575 180.087C33.261 179.905 32.9686 179.814 32.5803 179.814H31.2487V181.82Z" fill="#00C452"/>
<path d="M67.4716 177.273V186H66.4148V178.381H66.3636L64.233 179.795V178.722L66.4148 177.273H67.4716ZM72.7599 177.153C73.1179 177.156 73.4759 177.224 73.8338 177.358C74.1918 177.491 74.5185 177.713 74.8139 178.023C75.1094 178.33 75.3466 178.749 75.5256 179.28C75.7045 179.811 75.794 180.477 75.794 181.278C75.794 182.054 75.7202 182.743 75.5724 183.345C75.4276 183.945 75.2173 184.45 74.9418 184.862C74.669 185.274 74.3366 185.587 73.9446 185.8C73.5554 186.013 73.1151 186.119 72.6236 186.119C72.1349 186.119 71.6989 186.023 71.3153 185.83C70.9347 185.634 70.6222 185.362 70.3778 185.016C70.1364 184.666 69.9815 184.261 69.9134 183.801H70.9531C71.0469 184.202 71.233 184.533 71.5114 184.794C71.7926 185.053 72.1634 185.182 72.6236 185.182C73.2969 185.182 73.8281 184.888 74.2173 184.3C74.6094 183.712 74.8054 182.881 74.8054 181.807H74.7372C74.5781 182.045 74.3892 182.251 74.1705 182.425C73.9517 182.598 73.7088 182.732 73.4418 182.825C73.1747 182.919 72.8906 182.966 72.5895 182.966C72.0895 182.966 71.6307 182.842 71.2131 182.595C70.7983 182.345 70.4659 182.003 70.2159 181.568C69.9688 181.131 69.8452 180.631 69.8452 180.068C69.8452 179.534 69.9645 179.045 70.2031 178.602C70.4446 178.156 70.7827 177.801 71.2173 177.537C71.6548 177.273 72.169 177.145 72.7599 177.153ZM72.7599 178.091C72.402 178.091 72.0795 178.18 71.7926 178.359C71.5085 178.536 71.2827 178.774 71.1151 179.075C70.9503 179.374 70.8679 179.705 70.8679 180.068C70.8679 180.432 70.9474 180.763 71.1065 181.061C71.2685 181.357 71.4886 181.592 71.767 181.768C72.0483 181.942 72.3679 182.028 72.7259 182.028C72.9957 182.028 73.2472 181.976 73.4801 181.871C73.7131 181.763 73.9162 181.616 74.0895 181.432C74.2656 181.244 74.4034 181.033 74.5028 180.797C74.6023 180.558 74.652 180.31 74.652 180.051C74.652 179.71 74.5696 179.391 74.4048 179.092C74.2429 178.794 74.0185 178.553 73.7315 178.368C73.4474 178.183 73.1236 178.091 72.7599 178.091ZM80.2653 186.119C79.68 186.119 79.163 186.016 78.7141 185.808C78.2681 185.598 77.9201 185.31 77.6701 184.943C77.4201 184.574 77.2965 184.153 77.2994 183.682C77.2965 183.312 77.369 182.972 77.5167 182.659C77.6644 182.344 77.8661 182.081 78.1218 181.871C78.3803 181.658 78.6687 181.523 78.9869 181.466V181.415C78.5692 181.307 78.2369 181.072 77.9897 180.712C77.7425 180.348 77.6204 179.935 77.6232 179.472C77.6204 179.028 77.7326 178.632 77.9599 178.283C78.1871 177.933 78.4996 177.658 78.8974 177.456C79.2979 177.254 79.7539 177.153 80.2653 177.153C80.771 177.153 81.2227 177.254 81.6204 177.456C82.0181 177.658 82.3306 177.933 82.5579 178.283C82.788 178.632 82.9045 179.028 82.9073 179.472C82.9045 179.935 82.7781 180.348 82.5281 180.712C82.2809 181.072 81.9528 181.307 81.5437 181.415V181.466C81.859 181.523 82.1431 181.658 82.396 181.871C82.6488 182.081 82.8505 182.344 83.0011 182.659C83.1516 182.972 83.2283 183.312 83.2312 183.682C83.2283 184.153 83.1005 184.574 82.8477 184.943C82.5977 185.31 82.2496 185.598 81.8036 185.808C81.3604 186.016 80.8477 186.119 80.2653 186.119ZM80.2653 185.182C80.6602 185.182 81.0011 185.118 81.288 184.99C81.5749 184.862 81.7965 184.682 81.9528 184.449C82.109 184.216 82.1886 183.943 82.1914 183.631C82.1886 183.301 82.1033 183.01 81.9357 182.757C81.7681 182.504 81.5394 182.305 81.2496 182.161C80.9627 182.016 80.6346 181.943 80.2653 181.943C79.8931 181.943 79.5607 182.016 79.2681 182.161C78.9783 182.305 78.7496 182.504 78.582 182.757C78.4173 183.01 78.3363 183.301 78.3391 183.631C78.3363 183.943 78.4116 184.216 78.565 184.449C78.7212 184.682 78.9442 184.862 79.234 184.99C79.5238 185.118 79.8675 185.182 80.2653 185.182ZM80.2653 181.04C80.5778 181.04 80.8548 180.977 81.0962 180.852C81.3406 180.727 81.5323 180.553 81.6715 180.328C81.8107 180.104 81.8817 179.841 81.8846 179.54C81.8817 179.244 81.8121 178.987 81.6758 178.768C81.5394 178.547 81.3505 178.376 81.109 178.257C80.8675 178.135 80.5863 178.074 80.2653 178.074C79.9386 178.074 79.6531 178.135 79.4087 178.257C79.1644 178.376 78.9755 178.547 78.842 178.768C78.7085 178.987 78.6431 179.244 78.646 179.54C78.6431 179.841 78.7099 180.104 78.8462 180.328C78.9854 180.553 79.1772 180.727 79.4215 180.852C79.6658 180.977 79.9471 181.04 80.2653 181.04ZM87.7109 186.119C87.0689 186.119 86.522 185.945 86.0703 185.595C85.6186 185.243 85.2734 184.733 85.0348 184.065C84.7962 183.395 84.6768 182.585 84.6768 181.636C84.6768 180.693 84.7962 179.888 85.0348 179.22C85.2763 178.55 85.6229 178.038 86.0746 177.686C86.5291 177.331 87.0746 177.153 87.7109 177.153C88.3473 177.153 88.8913 177.331 89.343 177.686C89.7976 178.038 90.1442 178.55 90.3828 179.22C90.6243 179.888 90.745 180.693 90.745 181.636C90.745 182.585 90.6257 183.395 90.3871 184.065C90.1484 184.733 89.8033 185.243 89.3516 185.595C88.8999 185.945 88.353 186.119 87.7109 186.119ZM87.7109 185.182C88.3473 185.182 88.8416 184.875 89.1939 184.261C89.5462 183.648 89.7223 182.773 89.7223 181.636C89.7223 180.881 89.6413 180.237 89.4794 179.706C89.3203 179.175 89.0902 178.77 88.7891 178.491C88.4908 178.213 88.1314 178.074 87.7109 178.074C87.0803 178.074 86.5874 178.385 86.2322 179.007C85.8771 179.626 85.6996 180.503 85.6996 181.636C85.6996 182.392 85.7791 183.034 85.9382 183.562C86.0973 184.091 86.326 184.493 86.6243 184.768C86.9254 185.044 87.2876 185.182 87.7109 185.182ZM95.2109 186.119C94.5689 186.119 94.022 185.945 93.5703 185.595C93.1186 185.243 92.7734 184.733 92.5348 184.065C92.2962 183.395 92.1768 182.585 92.1768 181.636C92.1768 180.693 92.2962 179.888 92.5348 179.22C92.7763 178.55 93.1229 178.038 93.5746 177.686C94.0291 177.331 94.5746 177.153 95.2109 177.153C95.8473 177.153 96.3913 177.331 96.843 177.686C97.2976 178.038 97.6442 178.55 97.8828 179.22C98.1243 179.888 98.245 180.693 98.245 181.636C98.245 182.585 98.1257 183.395 97.8871 184.065C97.6484 184.733 97.3033 185.243 96.8516 185.595C96.3999 185.945 95.853 186.119 95.2109 186.119ZM95.2109 185.182C95.8473 185.182 96.3416 184.875 96.6939 184.261C97.0462 183.648 97.2223 182.773 97.2223 181.636C97.2223 180.881 97.1413 180.237 96.9794 179.706C96.8203 179.175 96.5902 178.77 96.2891 178.491C95.9908 178.213 95.6314 178.074 95.2109 178.074C94.5803 178.074 94.0874 178.385 93.7322 179.007C93.3771 179.626 93.1996 180.503 93.1996 181.636C93.1996 182.392 93.2791 183.034 93.4382 183.562C93.5973 184.091 93.826 184.493 94.1243 184.768C94.4254 185.044 94.7876 185.182 95.2109 185.182Z" fill="#3A3A3A"/>
<path d="M123.057 186V177.273H126.006C126.69 177.273 127.25 177.396 127.685 177.643C128.122 177.888 128.446 178.219 128.656 178.636C128.866 179.054 128.972 179.52 128.972 180.034C128.972 180.548 128.866 181.016 128.656 181.436C128.449 181.857 128.128 182.192 127.693 182.442C127.259 182.689 126.702 182.812 126.023 182.812H123.909V181.875H125.989C126.457 181.875 126.834 181.794 127.118 181.632C127.402 181.47 127.608 181.251 127.736 180.976C127.866 180.697 127.932 180.384 127.932 180.034C127.932 179.685 127.866 179.372 127.736 179.097C127.608 178.821 127.401 178.605 127.114 178.449C126.827 178.29 126.446 178.21 125.972 178.21H124.114V186H123.057ZM130.674 186V177.273H135.941V178.21H131.731V181.159H135.668V182.097H131.731V185.062H136.009V186H130.674Z" fill="#3A3A3A"/>
</g>
<defs>
<linearGradient id="paint0_linear_1820_17314" x1="332.214" y1="107.848" x2="459.053" y2="108.145" gradientUnits="userSpaceOnUse">
<stop offset="0.0539238" stop-color="#BFBFBF"/>
<stop offset="0.0540238" stop-color="#F8F8F8" stop-opacity="0.904419"/>
</linearGradient>
<clipPath id="clip0_1820_17314">
<rect width="580" height="300" rx="4" fill="white"/>
</clipPath>
</defs>
</svg>
